solid
 facet normal  -4.8282258577e-01 8.3332047603e-01 -2.6918271655e-01
   outer loop
     vertex 0.0000000000e+00 1.0000000000e+01 0.0000000000e+00
     vertex 1.7433401412e+01 2.0100843782e+01 -4.5474735089e-16
     vertex 1.7946750181e+01 1.7944898958e+01 -7.5950245728e+00
   endloop
 endfacet
 facet normal  -4.5978269897e-01 8.7043230909e-01 -1.7591891607e-01
   outer loop
     vertex 0.0000000000e+00 1.0000000000e+01 0.0000000000e+00
     vertex 1.7946750181e+01 1.7944898958e+01 -7.5950245728e+00
     vertex 0.0000000000e+00 9.2136305032e+00 -3.8908915096e+00
   endloop
 endfacet
 facet normal  -4.3891801184e-01 6.3065806459e-01 -6.4001670639e-01
   outer loop
     vertex 0.0000000000e+00 9.2136305032e+00 -3.8908915096e+00
     vertex 1.7946750181e+01 1.7944898958e+01 -7.5950245728e+00
     vertex 1.8956392983e+01 1.2895434384e+01 -1.3263057814e+01
   endloop
 endfacet
 facet normal  -4.0080133954e-01 7.5955421219e-01 -5.1228476941e-01
   outer loop
     vertex 0.0000000000e+00 9.2136305032e+00 -3.8908915096e+00
     vertex 1.8956392983e+01 1.2895434384e+01 -1.3263057814e+01
     vertex 0.0000000000e+00 7.0696813419e+00 -7.0696813419e+00
   endloop
 endfacet
 facet normal  -3.8380299782e-01 3.3337979256e-01 -8.6113481684e-01
   outer loop
     vertex 0.0000000000e+00 7.0696813419e+00 -7.0696813419e+00
     vertex 1.8956392983e+01 1.2895434384e+01 -1.3263057814e+01
     vertex 1.9766494967e+01 6.7517342340e+00 -1.6002588263e+01
   endloop
 endfacet
 facet normal  -3.4343370320e-01 5.2515217142e-01 -7.7863244754e-01
   outer loop
     vertex 0.0000000000e+00 7.0696813419e+00 -7.0696813419e+00
     vertex 1.9766494967e+01 6.7517342340e+00 -1.6002588263e+01
     vertex -2.3684757859e-15 3.8908915096e+00 -9.2136305032e+00
   endloop
 endfacet
 facet normal  -3.3331894363e-01 7.2227710961e-02 -9.4004342431e-01
   outer loop
     vertex -2.3684757859e-15 3.8908915096e+00 -9.2136305032e+00
     vertex 1.9766494967e+01 6.7517342340e+00 -1.6002588263e+01
     vertex 2.0080302918e+01 -5.2295945352e-15 -1.6632623460e+01
   endloop
 endfacet
 facet normal  -3.0801793428e-01 1.8846836314e-01 -9.3252593972e-01
   outer loop
     vertex -2.3684757859e-15 3.8908915096e+00 -9.2136305032e+00
     vertex 2.0080302918e+01 -5.2295945352e-15 -1.6632623460e+01
     vertex -4.7369515717e-15 0.0000000000e+00 -1.0000000000e+01
   endloop
 endfacet
 facet normal  -3.0801793428e-01 -1.8846836314e-01 -9.3252593972e-01
   outer loop
     vertex -4.7369515717e-15 0.0000000000e+00 -1.0000000000e+01
     vertex 2.0080302918e+01 -5.2295945352e-15 -1.6632623460e+01
     vertex -2.3684757859e-15 -3.8908915096e+00 -9.2136305032e+00
   endloop
 endfacet
 facet normal  -3.3331894363e-01 -7.2227710961e-02 -9.4004342431e-01
   outer loop
     vertex 2.0080302918e+01 -5.2295945352e-15 -1.6632623460e+01
     vertex 1.9766494967e+01 -6.7517342340e+00 -1.6002588263e+01
     vertex -2.3684757859e-15 -3.8908915096e+00 -9.2136305032e+00
   endloop
 endfacet
 facet normal  -3.4343370320e-01 -5.2515217142e-01 -7.7863244754e-01
   outer loop
     vertex -2.3684757859e-15 -3.8908915096e+00 -9.2136305032e+00
     vertex 1.9766494967e+01 -6.7517342340e+00 -1.6002588263e+01
     vertex 0.0000000000e+00 -7.0696813419e+00 -7.0696813419e+00
   endloop
 endfacet
 facet normal  -3.8380299782e-01 -3.3337979256e-01 -8.6113481684e-01
   outer loop
     vertex 1.9766494967e+01 -6.7517342340e+00 -1.6002588263e+01
     vertex 1.8956392983e+01 -1.2895434384e+01 -1.3263057814e+01
     vertex 0.0000000000e+00 -7.0696813419e+00 -7.0696813419e+00
   endloop
 endfacet
 facet normal  -4.0080133954e-01 -7.5955421219e-01 -5.1228476941e-01
   outer loop
     vertex 0.0000000000e+00 -7.0696813419e+00 -7.0696813419e+00
     vertex 1.8956392983e+01 -1.2895434384e+01 -1.3263057814e+01
     vertex 0.0000000000e+00 -9.2136305032e+00 -3.8908915096e+00
   endloop
 endfacet
 facet normal  -4.3891801184e-01 -6.3065806459e-01 -6.4001670639e-01
   outer loop
     vertex 1.8956392983e+01 -1.2895434384e+01 -1.3263057814e+01
     vertex 1.7946750181e+01 -1.7944898958e+01 -7.5950245728e+00
     vertex 0.0000000000e+00 -9.2136305032e+00 -3.8908915096e+00
   endloop
 endfacet
 facet normal  -4.5978269897e-01 -8.7043230909e-01 -1.7591891607e-01
   outer loop
     vertex 0.0000000000e+00 -9.2136305032e+00 -3.8908915096e+00
     vertex 1.7946750181e+01 -1.7944898958e+01 -7.5950245728e+00
     vertex 0.0000000000e+00 -1.0000000000e+01 0.0000000000e+00
   endloop
 endfacet
 facet normal  -4.8282258577e-01 -8.3332047603e-01 -2.6918271655e-01
   outer loop
     vertex 1.7946750181e+01 -1.7944898958e+01 -7.5950245728e+00
     vertex 1.7433401412e+01 -2.0100843782e+01 -3.8805107276e-15
     vertex 0.0000000000e+00 -1.0000000000e+01 0.0000000000e+00
   endloop
 endfacet
 facet normal  -4.8282258577e-01 -8.3332047603e-01 2.6918271655e-01
   outer loop
     vertex 0.0000000000e+00 -1.0000000000e+01 0.0000000000e+00
     vertex 1.7433401412e+01 -2.0100843782e+01 -3.8805107276e-15
     vertex 1.7946750181e+01 -1.7944898958e+01 7.5950245728e+00
   endloop
 endfacet
 facet normal  -4.5978269897e-01 -8.7043230909e-01 1.7591891607e-01
   outer loop
     vertex 0.0000000000e+00 -1.0000000000e+01 0.0000000000e+00
     vertex 1.7946750181e+01 -1.7944898958e+01 7.5950245728e+00
     vertex -2.3684757859e-15 -9.2136305032e+00 3.8908915096e+00
   endloop
 endfacet
 facet normal  -4.3891801184e-01 -6.3065806459e-01 6.4001670639e-01
   outer loop
     vertex -2.3684757859e-15 -9.2136305032e+00 3.8908915096e+00
     vertex 1.7946750181e+01 -1.7944898958e+01 7.5950245728e+00
     vertex 1.8956392983e+01 -1.2895434384e+01 1.3263057814e+01
   endloop
 endfacet
 facet normal  -4.0080133954e-01 -7.5955421219e-01 5.1228476941e-01
   outer loop
     vertex -2.3684757859e-15 -9.2136305032e+00 3.8908915096e+00
     vertex 1.8956392983e+01 -1.2895434384e+01 1.3263057814e+01
     vertex -4.7369515717e-15 -7.0696813419e+00 7.0696813419e+00
   endloop
 endfacet
 facet normal  -3.8380299782e-01 -3.3337979256e-01 8.6113481684e-01
   outer loop
     vertex -4.7369515717e-15 -7.0696813419e+00 7.0696813419e+00
     vertex 1.8956392983e+01 -1.2895434384e+01 1.3263057814e+01
     vertex 1.9766494967e+01 -6.7517342340e+00 1.6002588263e+01
   endloop
 endfacet
 facet normal  -3.4343370320e-01 -5.2515217142e-01 7.7863244754e-01
   outer loop
     vertex -4.7369515717e-15 -7.0696813419e+00 7.0696813419e+00
     vertex 1.9766494967e+01 -6.7517342340e+00 1.6002588263e+01
     vertex -2.3684757859e-15 -3.8908915096e+00 9.2136305032e+00
   endloop
 endfacet
 facet normal  -3.3331894363e-01 -7.2227710961e-02 9.4004342431e-01
   outer loop
     vertex -2.3684757859e-15 -3.8908915096e+00 9.2136305032e+00
     vertex 1.9766494967e+01 -6.7517342340e+00 1.6002588263e+01
     vertex 2.0080302918e+01 1.7058465220e-15 1.6632623460e+01
   endloop
 endfacet
 facet normal  -3.0801793428e-01 -1.8846836314e-01 9.3252593972e-01
   outer loop
     vertex -2.3684757859e-15 -3.8908915096e+00 9.2136305032e+00
     vertex 2.0080302918e+01 1.7058465220e-15 1.6632623460e+01
     vertex 0.0000000000e+00 -5.2590727015e-31 1.0000000000e+01
   endloop
 endfacet
 facet normal  -3.0801793428e-01 1.8846836314e-01 9.3252593972e-01
   outer loop
     vertex 0.0000000000e+00 -5.2590727015e-31 1.0000000000e+01
     vertex 2.0080302918e+01 1.7058465220e-15 1.6632623460e+01
     vertex 0.0000000000e+00 3.8908915096e+00 9.2136305032e+00
   endloop
 endfacet
 facet normal  -3.3331894363e-01 7.2227710961e-02 9.4004342431e-01
   outer loop
     vertex 2.0080302918e+01 1.7058465220e-15 1.6632623460e+01
     vertex 1.9766494967e+01 6.7517342340e+00 1.6002588263e+01
     vertex 0.0000000000e+00 3.8908915096e+00 9.2136305032e+00
   endloop
 endfacet
 facet normal  -3.4343370320e-01 5.2515217142e-01 7.7863244754e-01
   outer loop
     vertex 0.0000000000e+00 3.8908915096e+00 9.2136305032e+00
     vertex 1.9766494967e+01 6.7517342340e+00 1.6002588263e+01
     vertex 0.0000000000e+00 7.0696813419e+00 7.0696813419e+00
   endloop
 endfacet
 facet normal  -3.8380299782e-01 3.3337979256e-01 8.6113481684e-01
   outer loop
     vertex 1.9766494967e+01 6.7517342340e+00 1.6002588263e+01
     vertex 1.8956392983e+01 1.2895434384e+01 1.3263057814e+01
     vertex 0.0000000000e+00 7.0696813419e+00 7.0696813419e+00
   endloop
 endfacet
 facet normal  -4.0080133954e-01 7.5955421219e-01 5.1228476941e-01
   outer loop
     vertex 0.0000000000e+00 7.0696813419e+00 7.0696813419e+00
     vertex 1.8956392983e+01 1.2895434384e+01 1.3263057814e+01
     vertex 0.0000000000e+00 9.2136305032e+00 3.8908915096e+00
   endloop
 endfacet
 facet normal  -4.3891801184e-01 6.3065806459e-01 6.4001670639e-01
   outer loop
     vertex 1.8956392983e+01 1.2895434384e+01 1.3263057814e+01
     vertex 1.7946750181e+01 1.7944898958e+01 7.5950245728e+00
     vertex 0.0000000000e+00 9.2136305032e+00 3.8908915096e+00
   endloop
 endfacet
 facet normal  -4.5978269897e-01 8.7043230909e-01 1.7591891607e-01
   outer loop
     vertex 0.0000000000e+00 9.2136305032e+00 3.8908915096e+00
     vertex 1.7946750181e+01 1.7944898958e+01 7.5950245728e+00
     vertex 0.0000000000e+00 1.0000000000e+01 0.0000000000e+00
   endloop
 endfacet
 facet normal  -4.8282258577e-01 8.3332047603e-01 2.6918271655e-01
   outer loop
     vertex 1.7946750181e+01 1.7944898958e+01 7.5950245728e+00
     vertex 1.7433401412e+01 2.0100843782e+01 0.0000000000e+00
     vertex 0.0000000000e+00 1.0000000000e+01 0.0000000000e+00
   endloop
 endfacet
 facet normal  -1.9023812556e-01 9.4655918622e-01 -2.6045184308e-01
   outer loop
     vertex 1.7433401412e+01 2.0100843782e+01 -4.5474735089e-16
     vertex 4.1254872144e+01 2.4888449254e+01 -5.1159076975e-16
     vertex 4.1832389510e+01 2.2284112267e+01 -9.8867602152e+00
   endloop
 endfacet
 facet normal  -1.9753369829e-01 9.3944973007e-01 -2.8002614646e-01
   outer loop
     vertex 1.7433401412e+01 2.0100843782e+01 -4.5474735089e-16
     vertex 4.1832389510e+01 2.2284112267e+01 -9.8867602152e+00
     vertex 1.7946750181e+01 1.7944898958e+01 -7.5950245728e+00
   endloop
 endfacet
 facet normal  -1.9625624658e-01 7.4137145263e-01 -6.4175685030e-01
   outer loop
     vertex 1.7946750181e+01 1.7944898958e+01 -7.5950245728e+00
     vertex 4.1832389510e+01 2.2284112267e+01 -9.8867602152e+00
     vertex 4.2968237662e+01 1.6115716187e+01 -1.7359980104e+01
   endloop
 endfacet
 facet normal  -2.0985698054e-01 7.1118422868e-01 -6.7095233855e-01
   outer loop
     vertex 1.7946750181e+01 1.7944898958e+01 -7.5950245728e+00
     vertex 4.2968237662e+01 1.6115716187e+01 -1.7359980104e+01
     vertex 1.8956392983e+01 1.2895434384e+01 -1.3263057814e+01
   endloop
 endfacet
 facet normal  -2.0698453996e-01 4.1804621060e-01 -8.8453081688e-01
   outer loop
     vertex 1.8956392983e+01 1.2895434384e+01 -1.3263057814e+01
     vertex 4.2968237662e+01 1.6115716187e+01 -1.7359980104e+01
     vertex 4.3879602394e+01 8.4808788317e+00 -2.1181614320e+01
   endloop
 endfacet
 facet normal  -2.2032982815e-01 3.7286599376e-01 -9.0134661342e-01
   outer loop
     vertex 1.8956392983e+01 1.2895434384e+01 -1.3263057814e+01
     vertex 4.3879602394e+01 8.4808788317e+00 -2.1181614320e+01
     vertex 1.9766494967e+01 6.7517342340e+00 -1.6002588263e+01
   endloop
 endfacet
 facet normal  -2.1593974757e-01 1.0321661194e-01 -9.7093581479e-01
   outer loop
     vertex 1.9766494967e+01 6.7517342340e+00 -1.6002588263e+01
     vertex 4.3879602394e+01 8.4808788317e+00 -2.1181614320e+01
     vertex 4.4232636339e+01 -5.8832938521e-15 -2.2161701392e+01
   endloop
 endfacet
 facet normal  -2.2243137873e-01 8.0329362757e-02 -9.7163340578e-01
   outer loop
     vertex 1.9766494967e+01 6.7517342340e+00 -1.6002588263e+01
     vertex 4.4232636339e+01 -5.8832938521e-15 -2.2161701392e+01
     vertex 2.0080302918e+01 -5.2295945352e-15 -1.6632623460e+01
   endloop
 endfacet
 facet normal  -2.2243137873e-01 -8.0329362757e-02 -9.7163340578e-01
   outer loop
     vertex 2.0080302918e+01 -5.2295945352e-15 -1.6632623460e+01
     vertex 4.4232636339e+01 -5.8832938521e-15 -2.2161701392e+01
     vertex 1.9766494967e+01 -6.7517342340e+00 -1.6002588263e+01
   endloop
 endfacet
 facet normal  -2.1593974757e-01 -1.0321661194e-01 -9.7093581479e-01
   outer loop
     vertex 4.4232636339e+01 -5.8832938521e-15 -2.2161701392e+01
     vertex 4.3879602394e+01 -8.4808788317e+00 -2.1181614320e+01
     vertex 1.9766494967e+01 -6.7517342340e+00 -1.6002588263e+01
   endloop
 endfacet
 facet normal  -2.2032982815e-01 -3.7286599376e-01 -9.0134661342e-01
   outer loop
     vertex 1.9766494967e+01 -6.7517342340e+00 -1.6002588263e+01
     vertex 4.3879602394e+01 -8.4808788317e+00 -2.1181614320e+01
     vertex 1.8956392983e+01 -1.2895434384e+01 -1.3263057814e+01
   endloop
 endfacet
 facet normal  -2.0698453996e-01 -4.1804621060e-01 -8.8453081688e-01
   outer loop
     vertex 4.3879602394e+01 -8.4808788317e+00 -2.1181614320e+01
     vertex 4.2968237662e+01 -1.6115716187e+01 -1.7359980104e+01
     vertex 1.8956392983e+01 -1.2895434384e+01 -1.3263057814e+01
   endloop
 endfacet
 facet normal  -2.0985698054e-01 -7.1118422868e-01 -6.7095233855e-01
   outer loop
     vertex 1.8956392983e+01 -1.2895434384e+01 -1.3263057814e+01
     vertex 4.2968237662e+01 -1.6115716187e+01 -1.7359980104e+01
     vertex 1.7946750181e+01 -1.7944898958e+01 -7.5950245728e+00
   endloop
 endfacet
 facet normal  -1.9625624658e-01 -7.4137145263e-01 -6.4175685030e-01
   outer loop
     vertex 4.2968237662e+01 -1.6115716187e+01 -1.7359980104e+01
     vertex 4.1832389510e+01 -2.2284112267e+01 -9.8867602152e+00
     vertex 1.7946750181e+01 -1.7944898958e+01 -7.5950245728e+00
   endloop
 endfacet
 facet normal  -1.9753369829e-01 -9.3944973007e-01 -2.8002614646e-01
   outer loop
     vertex 1.7946750181e+01 -1.7944898958e+01 -7.5950245728e+00
     vertex 4.1832389510e+01 -2.2284112267e+01 -9.8867602152e+00
     vertex 1.7433401412e+01 -2.0100843782e+01 -3.8805107276e-15
   endloop
 endfacet
 facet normal  -1.9023812556e-01 -9.4655918622e-01 -2.6045184308e-01
   outer loop
     vertex 4.1832389510e+01 -2.2284112267e+01 -9.8867602152e+00
     vertex 4.1254872144e+01 -2.4888449254e+01 -4.3655745685e-15
     vertex 1.7433401412e+01 -2.0100843782e+01 -3.8805107276e-15
   endloop
 endfacet
 facet normal  -1.9023812556e-01 -9.4655918622e-01 2.6045184308e-01
   outer loop
     vertex 1.7433401412e+01 -2.0100843782e+01 -3.8805107276e-15
     vertex 4.1254872144e+01 -2.4888449254e+01 -4.3655745685e-15
     vertex 4.1832389510e+01 -2.2284112267e+01 9.8867602152e+00
   endloop
 endfacet
 facet normal  -1.9753369829e-01 -9.3944973007e-01 2.8002614646e-01
   outer loop
     vertex 1.7433401412e+01 -2.0100843782e+01 -3.8805107276e-15
     vertex 4.1832389510e+01 -2.2284112267e+01 9.8867602152e+00
     vertex 1.7946750181e+01 -1.7944898958e+01 7.5950245728e+00
   endloop
 endfacet
 facet normal  -1.9625624658e-01 -7.4137145263e-01 6.4175685030e-01
   outer loop
     vertex 1.7946750181e+01 -1.7944898958e+01 7.5950245728e+00
     vertex 4.1832389510e+01 -2.2284112267e+01 9.8867602152e+00
     vertex 4.2968237662e+01 -1.6115716187e+01 1.7359980104e+01
   endloop
 endfacet
 facet normal  -2.0985698054e-01 -7.1118422868e-01 6.7095233855e-01
   outer loop
     vertex 1.7946750181e+01 -1.7944898958e+01 7.5950245728e+00
     vertex 4.2968237662e+01 -1.6115716187e+01 1.7359980104e+01
     vertex 1.8956392983e+01 -1.2895434384e+01 1.3263057814e+01
   endloop
 endfacet
 facet normal  -2.0698453996e-01 -4.1804621060e-01 8.8453081688e-01
   outer loop
     vertex 1.8956392983e+01 -1.2895434384e+01 1.3263057814e+01
     vertex 4.2968237662e+01 -1.6115716187e+01 1.7359980104e+01
     vertex 4.3879602394e+01 -8.4808788317e+00 2.1181614320e+01
   endloop
 endfacet
 facet normal  -2.2032982815e-01 -3.7286599376e-01 9.0134661342e-01
   outer loop
     vertex 1.8956392983e+01 -1.2895434384e+01 1.3263057814e+01
     vertex 4.3879602394e+01 -8.4808788317e+00 2.1181614320e+01
     vertex 1.9766494967e+01 -6.7517342340e+00 1.6002588263e+01
   endloop
 endfacet
 facet normal  -2.1593974757e-01 -1.0321661194e-01 9.7093581479e-01
   outer loop
     vertex 1.9766494967e+01 -6.7517342340e+00 1.6002588263e+01
     vertex 4.3879602394e+01 -8.4808788317e+00 2.1181614320e+01
     vertex 4.4232636339e+01 1.9190773372e-15 2.2161701392e+01
   endloop
 endfacet
 facet normal  -2.2243137873e-01 -8.0329362757e-02 9.7163340578e-01
   outer loop
     vertex 1.9766494967e+01 -6.7517342340e+00 1.6002588263e+01
     vertex 4.4232636339e+01 1.9190773372e-15 2.2161701392e+01
     vertex 2.0080302918e+01 1.7058465220e-15 1.6632623460e+01
   endloop
 endfacet
 facet normal  -2.2243137873e-01 8.0329362757e-02 9.7163340578e-01
   outer loop
     vertex 2.0080302918e+01 1.7058465220e-15 1.6632623460e+01
     vertex 4.4232636339e+01 1.9190773372e-15 2.2161701392e+01
     vertex 1.9766494967e+01 6.7517342340e+00 1.6002588263e+01
   endloop
 endfacet
 facet normal  -2.1593974757e-01 1.0321661194e-01 9.7093581479e-01
   outer loop
     vertex 4.4232636339e+01 1.9190773372e-15 2.2161701392e+01
     vertex 4.3879602394e+01 8.4808788317e+00 2.1181614320e+01
     vertex 1.9766494967e+01 6.7517342340e+00 1.6002588263e+01
   endloop
 endfacet
 facet normal  -2.2032982815e-01 3.7286599376e-01 9.0134661342e-01
   outer loop
     vertex 1.9766494967e+01 6.7517342340e+00 1.6002588263e+01
     vertex 4.3879602394e+01 8.4808788317e+00 2.1181614320e+01
     vertex 1.8956392983e+01 1.2895434384e+01 1.3263057814e+01
   endloop
 endfacet
 facet normal  -2.0698453996e-01 4.1804621060e-01 8.8453081688e-01
   outer loop
     vertex 4.3879602394e+01 8.4808788317e+00 2.1181614320e+01
     vertex 4.2968237662e+01 1.6115716187e+01 1.7359980104e+01
     vertex 1.8956392983e+01 1.2895434384e+01 1.3263057814e+01
   endloop
 endfacet
 facet normal  -2.0985698054e-01 7.1118422868e-01 6.7095233855e-01
   outer loop
     vertex 1.8956392983e+01 1.2895434384e+01 1.3263057814e+01
     vertex 4.2968237662e+01 1.6115716187e+01 1.7359980104e+01
     vertex 1.7946750181e+01 1.7944898958e+01 7.5950245728e+00
   endloop
 endfacet
 facet normal  -1.9625624658e-01 7.4137145263e-01 6.4175685030e-01
   outer loop
     vertex 4.2968237662e+01 1.6115716187e+01 1.7359980104e+01
     vertex 4.1832389510e+01 2.2284112267e+01 9.8867602152e+00
     vertex 1.7946750181e+01 1.7944898958e+01 7.5950245728e+00
   endloop
 endfacet
 facet normal  -1.9753369829e-01 9.3944973007e-01 2.8002614646e-01
   outer loop
     vertex 1.7946750181e+01 1.7944898958e+01 7.5950245728e+00
     vertex 4.1832389510e+01 2.2284112267e+01 9.8867602152e+00
     vertex 1.7433401412e+01 2.0100843782e+01 0.0000000000e+00
   endloop
 endfacet
 facet normal  -1.9023812556e-01 9.4655918622e-01 2.6045184308e-01
   outer loop
     vertex 4.1832389510e+01 2.2284112267e+01 9.8867602152e+00
     vertex 4.1254872144e+01 2.4888449254e+01 0.0000000000e+00
     vertex 1.7433401412e+01 2.0100843782e+01 0.0000000000e+00
   endloop
 endfacet
 facet normal  -4.3802698227e-02 9.7458561763e-01 -2.1969114124e-01
   outer loop
     vertex 4.1254872144e+01 2.4888449254e+01 -5.1159076975e-16
     vertex 6.8781517171e+01 2.6125632836e+01 -3.4106051316e-16
     vertex 6.9166528748e+01 2.3639735925e+01 -1.1104607628e+01
   endloop
 endfacet
 facet normal  -5.9304976026e-02 9.6445215243e-01 -2.5751692271e-01
   outer loop
     vertex 4.1254872144e+01 2.4888449254e+01 -5.1159076975e-16
     vertex 6.9166528748e+01 2.3639735925e+01 -1.1104607628e+01
     vertex 4.1832389510e+01 2.2284112267e+01 -9.8867602152e+00
   endloop
 endfacet
 facet normal  -6.6122490853e-02 8.1082826029e-01 -5.8153705687e-01
   outer loop
     vertex 4.1832389510e+01 2.2284112267e+01 -9.8867602152e+00
     vertex 6.9166528748e+01 2.3639735925e+01 -1.1104607628e+01
     vertex 6.9923760850e+01 1.7483573671e+01 -1.9774150426e+01
   endloop
 endfacet
 facet normal  -9.6110333510e-02 7.6043097718e-01 -6.4226749314e-01
   outer loop
     vertex 4.1832389510e+01 2.2284112267e+01 -9.8867602152e+00
     vertex 6.9923760850e+01 1.7483573671e+01 -1.9774150426e+01
     vertex 4.2968237662e+01 1.6115716187e+01 -1.7359980104e+01
   endloop
 endfacet
 facet normal  -1.0234203774e-01 5.1864011292e-01 -8.4884541619e-01
   outer loop
     vertex 4.2968237662e+01 1.6115716187e+01 -1.7359980104e+01
     vertex 6.9923760850e+01 1.7483573671e+01 -1.9774150426e+01
     vertex 7.0531337338e+01 9.3632357936e+00 -2.4808887597e+01
   endloop
 endfacet
 facet normal  -1.3569896241e-01 4.3046792088e-01 -8.9234699568e-01
   outer loop
     vertex 4.2968237662e+01 1.6115716187e+01 -1.7359980104e+01
     vertex 7.0531337338e+01 9.3632357936e+00 -2.4808887597e+01
     vertex 4.3879602394e+01 8.4808788317e+00 -2.1181614320e+01
   endloop
 endfacet
 facet normal  -1.3831671210e-01 1.5994725743e-01 -9.7738700728e-01
   outer loop
     vertex 4.3879602394e+01 8.4808788317e+00 -2.1181614320e+01
     vertex 7.0531337338e+01 9.3632357936e+00 -2.4808887597e+01
     vertex 7.0766693301e+01 -3.9221959014e-15 -2.6374467595e+01
   endloop
 endfacet
 facet normal  -1.5590421654e-01 1.0698981138e-01 -9.8196082179e-01
   outer loop
     vertex 4.3879602394e+01 8.4808788317e+00 -2.1181614320e+01
     vertex 7.0766693301e+01 -3.9221959014e-15 -2.6374467595e+01
     vertex 4.4232636339e+01 -5.8832938521e-15 -2.2161701392e+01
   endloop
 endfacet
 facet normal  -1.5590421654e-01 -1.0698981138e-01 -9.8196082179e-01
   outer loop
     vertex 4.4232636339e+01 -5.8832938521e-15 -2.2161701392e+01
     vertex 7.0766693301e+01 -3.9221959014e-15 -2.6374467595e+01
     vertex 4.3879602394e+01 -8.4808788317e+00 -2.1181614320e+01
   endloop
 endfacet
 facet normal  -1.3831671210e-01 -1.5994725743e-01 -9.7738700728e-01
   outer loop
     vertex 7.0766693301e+01 -3.9221959014e-15 -2.6374467595e+01
     vertex 7.0531337338e+01 -9.3632357936e+00 -2.4808887597e+01
     vertex 4.3879602394e+01 -8.4808788317e+00 -2.1181614320e+01
   endloop
 endfacet
 facet normal  -1.3569896241e-01 -4.3046792088e-01 -8.9234699568e-01
   outer loop
     vertex 4.3879602394e+01 -8.4808788317e+00 -2.1181614320e+01
     vertex 7.0531337338e+01 -9.3632357936e+00 -2.4808887597e+01
     vertex 4.2968237662e+01 -1.6115716187e+01 -1.7359980104e+01
   endloop
 endfacet
 facet normal  -1.0234203774e-01 -5.1864011292e-01 -8.4884541619e-01
   outer loop
     vertex 7.0531337338e+01 -9.3632357936e+00 -2.4808887597e+01
     vertex 6.9923760850e+01 -1.7483573671e+01 -1.9774150426e+01
     vertex 4.2968237662e+01 -1.6115716187e+01 -1.7359980104e+01
   endloop
 endfacet
 facet normal  -9.6110333510e-02 -7.6043097718e-01 -6.4226749314e-01
   outer loop
     vertex 4.2968237662e+01 -1.6115716187e+01 -1.7359980104e+01
     vertex 6.9923760850e+01 -1.7483573671e+01 -1.9774150426e+01
     vertex 4.1832389510e+01 -2.2284112267e+01 -9.8867602152e+00
   endloop
 endfacet
 facet normal  -6.6122490853e-02 -8.1082826029e-01 -5.8153705687e-01
   outer loop
     vertex 6.9923760850e+01 -1.7483573671e+01 -1.9774150426e+01
     vertex 6.9166528748e+01 -2.3639735925e+01 -1.1104607628e+01
     vertex 4.1832389510e+01 -2.2284112267e+01 -9.8867602152e+00
   endloop
 endfacet
 facet normal  -5.9304976026e-02 -9.6445215243e-01 -2.5751692271e-01
   outer loop
     vertex 4.1832389510e+01 -2.2284112267e+01 -9.8867602152e+00
     vertex 6.9166528748e+01 -2.3639735925e+01 -1.1104607628e+01
     vertex 4.1254872144e+01 -2.4888449254e+01 -4.3655745685e-15
   endloop
 endfacet
 facet normal  -4.3802698227e-02 -9.7458561763e-01 -2.1969114124e-01
   outer loop
     vertex 6.9166528748e+01 -2.3639735925e+01 -1.1104607628e+01
     vertex 6.8781517171e+01 -2.6125632836e+01 -2.9103830457e-15
     vertex 4.1254872144e+01 -2.4888449254e+01 -4.3655745685e-15
   endloop
 endfacet
 facet normal  -4.3802698227e-02 -9.7458561763e-01 2.1969114124e-01
   outer loop
     vertex 4.1254872144e+01 -2.4888449254e+01 -4.3655745685e-15
     vertex 6.8781517171e+01 -2.6125632836e+01 -2.9103830457e-15
     vertex 6.9166528748e+01 -2.3639735925e+01 1.1104607628e+01
   endloop
 endfacet
 facet normal  -5.9304976026e-02 -9.6445215243e-01 2.5751692271e-01
   outer loop
     vertex 4.1254872144e+01 -2.4888449254e+01 -4.3655745685e-15
     vertex 6.9166528748e+01 -2.3639735925e+01 1.1104607628e+01
     vertex 4.1832389510e+01 -2.2284112267e+01 9.8867602152e+00
   endloop
 endfacet
 facet normal  -6.6122490853e-02 -8.1082826029e-01 5.8153705687e-01
   outer loop
     vertex 4.1832389510e+01 -2.2284112267e+01 9.8867602152e+00
     vertex 6.9166528748e+01 -2.3639735925e+01 1.1104607628e+01
     vertex 6.9923760850e+01 -1.7483573671e+01 1.9774150426e+01
   endloop
 endfacet
 facet normal  -9.6110333510e-02 -7.6043097718e-01 6.4226749314e-01
   outer loop
     vertex 4.1832389510e+01 -2.2284112267e+01 9.8867602152e+00
     vertex 6.9923760850e+01 -1.7483573671e+01 1.9774150426e+01
     vertex 4.2968237662e+01 -1.6115716187e+01 1.7359980104e+01
   endloop
 endfacet
 facet normal  -1.0234203774e-01 -5.1864011292e-01 8.4884541619e-01
   outer loop
     vertex 4.2968237662e+01 -1.6115716187e+01 1.7359980104e+01
     vertex 6.9923760850e+01 -1.7483573671e+01 1.9774150426e+01
     vertex 7.0531337338e+01 -9.3632357936e+00 2.4808887597e+01
   endloop
 endfacet
 facet normal  -1.3569896241e-01 -4.3046792088e-01 8.9234699568e-01
   outer loop
     vertex 4.2968237662e+01 -1.6115716187e+01 1.7359980104e+01
     vertex 7.0531337338e+01 -9.3632357936e+00 2.4808887597e+01
     vertex 4.3879602394e+01 -8.4808788317e+00 2.1181614320e+01
   endloop
 endfacet
 facet normal  -1.3831671210e-01 -1.5994725743e-01 9.7738700728e-01
   outer loop
     vertex 4.3879602394e+01 -8.4808788317e+00 2.1181614320e+01
     vertex 7.0531337338e+01 -9.3632357936e+00 2.4808887597e+01
     vertex 7.0766693301e+01 1.2793848915e-15 2.6374467595e+01
   endloop
 endfacet
 facet normal  -1.5590421654e-01 -1.0698981138e-01 9.8196082179e-01
   outer loop
     vertex 4.3879602394e+01 -8.4808788317e+00 2.1181614320e+01
     vertex 7.0766693301e+01 1.2793848915e-15 2.6374467595e+01
     vertex 4.4232636339e+01 1.9190773372e-15 2.2161701392e+01
   endloop
 endfacet
 facet normal  -1.5590421654e-01 1.0698981138e-01 9.8196082179e-01
   outer loop
     vertex 4.4232636339e+01 1.9190773372e-15 2.2161701392e+01
     vertex 7.0766693301e+01 1.2793848915e-15 2.6374467595e+01
     vertex 4.3879602394e+01 8.4808788317e+00 2.1181614320e+01
   endloop
 endfacet
 facet normal  -1.3831671210e-01 1.5994725743e-01 9.7738700728e-01
   outer loop
     vertex 7.0766693301e+01 1.2793848915e-15 2.6374467595e+01
     vertex 7.0531337338e+01 9.3632357936e+00 2.4808887597e+01
     vertex 4.3879602394e+01 8.4808788317e+00 2.1181614320e+01
   endloop
 endfacet
 facet normal  -1.3569896241e-01 4.3046792088e-01 8.9234699568e-01
   outer loop
     vertex 4.3879602394e+01 8.4808788317e+00 2.1181614320e+01
     vertex 7.0531337338e+01 9.3632357936e+00 2.4808887597e+01
     vertex 4.2968237662e+01 1.6115716187e+01 1.7359980104e+01
   endloop
 endfacet
 facet normal  -1.0234203774e-01 5.1864011292e-01 8.4884541619e-01
   outer loop
     vertex 7.0531337338e+01 9.3632357936e+00 2.4808887597e+01
     vertex 6.9923760850e+01 1.7483573671e+01 1.9774150426e+01
     vertex 4.2968237662e+01 1.6115716187e+01 1.7359980104e+01
   endloop
 endfacet
 facet normal  -9.6110333510e-02 7.6043097718e-01 6.4226749314e-01
   outer loop
     vertex 4.2968237662e+01 1.6115716187e+01 1.7359980104e+01
     vertex 6.9923760850e+01 1.7483573671e+01 1.9774150426e+01
     vertex 4.1832389510e+01 2.2284112267e+01 9.8867602152e+00
   endloop
 endfacet
 facet normal  -6.6122490853e-02 8.1082826029e-01 5.8153705687e-01
   outer loop
     vertex 6.9923760850e+01 1.7483573671e+01 1.9774150426e+01
     vertex 6.9166528748e+01 2.3639735925e+01 1.1104607628e+01
     vertex 4.1832389510e+01 2.2284112267e+01 9.8867602152e+00
   endloop
 endfacet
 facet normal  -5.9304976026e-02 9.6445215243e-01 2.5751692271e-01
   outer loop
     vertex 4.1832389510e+01 2.2284112267e+01 9.8867602152e+00
     vertex 6.9166528748e+01 2.3639735925e+01 1.1104607628e+01
     vertex 4.1254872144e+01 2.4888449254e+01 0.0000000000e+00
   endloop
 endfacet
 facet normal  -4.3802698227e-02 9.7458561763e-01 2.1969114124e-01
   outer loop
     vertex 6.9166528748e+01 2.3639735925e+01 1.1104607628e+01
     vertex 6.8781517171e+01 2.6125632836e+01 0.0000000000e+00
     vertex 4.1254872144e+01 2.4888449254e+01 0.0000000000e+00
   endloop
 endfacet
 facet normal  1.8952246208e-02 9.8300276805e-01 -1.8260988575e-01
   outer loop
     vertex 6.8781517171e+01 2.6125632836e+01 -3.4106051316e-16
     vertex 9.7330441465e+01 2.5575210945e+01 -1.1368683772e-16
     vertex 9.7458778658e+01 2.3420235424e+01 -1.1587076002e+01
   endloop
 endfacet
 facet normal  3.8479832605e-03 9.7586826911e-01 -2.1832616509e-01
   outer loop
     vertex 6.8781517171e+01 2.6125632836e+01 -3.4106051316e-16
     vertex 9.7458778658e+01 2.3420235424e+01 -1.1587076002e+01
     vertex 6.9166528748e+01 2.3639735925e+01 -1.1104607628e+01
   endloop
 endfacet
 facet normal  -2.2225887551e-03 8.5466908431e-01 -5.1916838928e-01
   outer loop
     vertex 6.9166528748e+01 2.3639735925e+01 -1.1104607628e+01
     vertex 9.7458778658e+01 2.3420235424e+01 -1.1587076002e+01
     vertex 9.7711189358e+01 1.7752053754e+01 -2.0919270995e+01
   endloop
 endfacet
 facet normal  -3.1784523453e-02 8.1362346706e-01 -5.8052269371e-01
   outer loop
     vertex 6.9166528748e+01 2.3639735925e+01 -1.1104607628e+01
     vertex 9.7711189358e+01 1.7752053754e+01 -2.0919270995e+01
     vertex 6.9923760850e+01 1.7483573671e+01 -1.9774150426e+01
   endloop
 endfacet
 facet normal  -3.8786789178e-02 5.9714719868e-01 -8.0119336499e-01
   outer loop
     vertex 6.9923760850e+01 1.7483573671e+01 -1.9774150426e+01
     vertex 9.7711189358e+01 1.7752053754e+01 -2.0919270995e+01
     vertex 9.7913714854e+01 9.6837156107e+00 -2.6942587019e+01
   endloop
 endfacet
 facet normal  -7.2345975532e-02 5.2165294040e-01 -8.5008486023e-01
   outer loop
     vertex 6.9923760850e+01 1.7483573671e+01 -1.9774150426e+01
     vertex 9.7913714854e+01 9.6837156107e+00 -2.6942587019e+01
     vertex 7.0531337338e+01 9.3632357936e+00 -2.4808887597e+01
   endloop
 endfacet
 facet normal  -7.8386128090e-02 2.1216981575e-01 -9.7408397185e-01
   outer loop
     vertex 7.0531337338e+01 9.3632357936e+00 -2.4808887597e+01
     vertex 9.7913714854e+01 9.6837156107e+00 -2.6942587019e+01
     vertex 9.7992166842e+01 -1.3073986338e-15 -2.9058155865e+01
   endloop
 endfacet
 facet normal  -9.6805116914e-02 1.6177343416e-01 -9.8206828955e-01
   outer loop
     vertex 7.0531337338e+01 9.3632357936e+00 -2.4808887597e+01
     vertex 9.7992166842e+01 -1.3073986338e-15 -2.9058155865e+01
     vertex 7.0766693301e+01 -3.9221959014e-15 -2.6374467595e+01
   endloop
 endfacet
 facet normal  -9.6805116914e-02 -1.6177343416e-01 -9.8206828955e-01
   outer loop
     vertex 7.0766693301e+01 -3.9221959014e-15 -2.6374467595e+01
     vertex 9.7992166842e+01 -1.3073986338e-15 -2.9058155865e+01
     vertex 7.0531337338e+01 -9.3632357936e+00 -2.4808887597e+01
   endloop
 endfacet
 facet normal  -7.8386128090e-02 -2.1216981575e-01 -9.7408397185e-01
   outer loop
     vertex 9.7992166842e+01 -1.3073986338e-15 -2.9058155865e+01
     vertex 9.7913714854e+01 -9.6837156107e+00 -2.6942587019e+01
     vertex 7.0531337338e+01 -9.3632357936e+00 -2.4808887597e+01
   endloop
 endfacet
 facet normal  -7.2345975532e-02 -5.2165294040e-01 -8.5008486023e-01
   outer loop
     vertex 7.0531337338e+01 -9.3632357936e+00 -2.4808887597e+01
     vertex 9.7913714854e+01 -9.6837156107e+00 -2.6942587019e+01
     vertex 6.9923760850e+01 -1.7483573671e+01 -1.9774150426e+01
   endloop
 endfacet
 facet normal  -3.8786789178e-02 -5.9714719868e-01 -8.0119336499e-01
   outer loop
     vertex 9.7913714854e+01 -9.6837156107e+00 -2.6942587019e+01
     vertex 9.7711189358e+01 -1.7752053754e+01 -2.0919270995e+01
     vertex 6.9923760850e+01 -1.7483573671e+01 -1.9774150426e+01
   endloop
 endfacet
 facet normal  -3.1784523453e-02 -8.1362346706e-01 -5.8052269371e-01
   outer loop
     vertex 6.9923760850e+01 -1.7483573671e+01 -1.9774150426e+01
     vertex 9.7711189358e+01 -1.7752053754e+01 -2.0919270995e+01
     vertex 6.9166528748e+01 -2.3639735925e+01 -1.1104607628e+01
   endloop
 endfacet
 facet normal  -2.2225887551e-03 -8.5466908431e-01 -5.1916838928e-01
   outer loop
     vertex 9.7711189358e+01 -1.7752053754e+01 -2.0919270995e+01
     vertex 9.7458778658e+01 -2.3420235424e+01 -1.1587076002e+01
     vertex 6.9166528748e+01 -2.3639735925e+01 -1.1104607628e+01
   endloop
 endfacet
 facet normal  3.8479832605e-03 -9.7586826911e-01 -2.1832616509e-01
   outer loop
     vertex 6.9166528748e+01 -2.3639735925e+01 -1.1104607628e+01
     vertex 9.7458778658e+01 -2.3420235424e+01 -1.1587076002e+01
     vertex 6.8781517171e+01 -2.6125632836e+01 -2.9103830457e-15
   endloop
 endfacet
 facet normal  1.8952246208e-02 -9.8300276805e-01 -1.8260988575e-01
   outer loop
     vertex 9.7458778658e+01 -2.3420235424e+01 -1.1587076002e+01
     vertex 9.7330441465e+01 -2.5575210945e+01 -9.7012768189e-16
     vertex 6.8781517171e+01 -2.6125632836e+01 -2.9103830457e-15
   endloop
 endfacet
 facet normal  1.8952246208e-02 -9.8300276805e-01 1.8260988575e-01
   outer loop
     vertex 6.8781517171e+01 -2.6125632836e+01 -2.9103830457e-15
     vertex 9.7330441465e+01 -2.5575210945e+01 -9.7012768189e-16
     vertex 9.7458778658e+01 -2.3420235424e+01 1.1587076002e+01
   endloop
 endfacet
 facet normal  3.8479832605e-03 -9.7586826911e-01 2.1832616509e-01
   outer loop
     vertex 6.8781517171e+01 -2.6125632836e+01 -2.9103830457e-15
     vertex 9.7458778658e+01 -2.3420235424e+01 1.1587076002e+01
     vertex 6.9166528748e+01 -2.3639735925e+01 1.1104607628e+01
   endloop
 endfacet
 facet normal  -2.2225887551e-03 -8.5466908431e-01 5.1916838928e-01
   outer loop
     vertex 6.9166528748e+01 -2.3639735925e+01 1.1104607628e+01
     vertex 9.7458778658e+01 -2.3420235424e+01 1.1587076002e+01
     vertex 9.7711189358e+01 -1.7752053754e+01 2.0919270995e+01
   endloop
 endfacet
 facet normal  -3.1784523453e-02 -8.1362346706e-01 5.8052269371e-01
   outer loop
     vertex 6.9166528748e+01 -2.3639735925e+01 1.1104607628e+01
     vertex 9.7711189358e+01 -1.7752053754e+01 2.0919270995e+01
     vertex 6.9923760850e+01 -1.7483573671e+01 1.9774150426e+01
   endloop
 endfacet
 facet normal  -3.8786789178e-02 -5.9714719868e-01 8.0119336499e-01
   outer loop
     vertex 6.9923760850e+01 -1.7483573671e+01 1.9774150426e+01
     vertex 9.7711189358e+01 -1.7752053754e+01 2.0919270995e+01
     vertex 9.7913714854e+01 -9.6837156107e+00 2.6942587019e+01
   endloop
 endfacet
 facet normal  -7.2345975532e-02 -5.2165294040e-01 8.5008486023e-01
   outer loop
     vertex 6.9923760850e+01 -1.7483573671e+01 1.9774150426e+01
     vertex 9.7913714854e+01 -9.6837156107e+00 2.6942587019e+01
     vertex 7.0531337338e+01 -9.3632357936e+00 2.4808887597e+01
   endloop
 endfacet
 facet normal  -7.8386128090e-02 -2.1216981575e-01 9.7408397185e-01
   outer loop
     vertex 7.0531337338e+01 -9.3632357936e+00 2.4808887597e+01
     vertex 9.7913714854e+01 -9.6837156107e+00 2.6942587019e+01
     vertex 9.7992166842e+01 4.2646163050e-16 2.9058155865e+01
   endloop
 endfacet
 facet normal  -9.6805116914e-02 -1.6177343416e-01 9.8206828955e-01
   outer loop
     vertex 7.0531337338e+01 -9.3632357936e+00 2.4808887597e+01
     vertex 9.7992166842e+01 4.2646163050e-16 2.9058155865e+01
     vertex 7.0766693301e+01 1.2793848915e-15 2.6374467595e+01
   endloop
 endfacet
 facet normal  -9.6805116914e-02 1.6177343416e-01 9.8206828955e-01
   outer loop
     vertex 7.0766693301e+01 1.2793848915e-15 2.6374467595e+01
     vertex 9.7992166842e+01 4.2646163050e-16 2.9058155865e+01
     vertex 7.0531337338e+01 9.3632357936e+00 2.4808887597e+01
   endloop
 endfacet
 facet normal  -7.8386128090e-02 2.1216981575e-01 9.7408397185e-01
   outer loop
     vertex 9.7992166842e+01 4.2646163050e-16 2.9058155865e+01
     vertex 9.7913714854e+01 9.6837156107e+00 2.6942587019e+01
     vertex 7.0531337338e+01 9.3632357936e+00 2.4808887597e+01
   endloop
 endfacet
 facet normal  -7.2345975532e-02 5.2165294040e-01 8.5008486023e-01
   outer loop
     vertex 7.0531337338e+01 9.3632357936e+00 2.4808887597e+01
     vertex 9.7913714854e+01 9.6837156107e+00 2.6942587019e+01
     vertex 6.9923760850e+01 1.7483573671e+01 1.9774150426e+01
   endloop
 endfacet
 facet normal  -3.8786789178e-02 5.9714719868e-01 8.0119336499e-01
   outer loop
     vertex 9.7913714854e+01 9.6837156107e+00 2.6942587019e+01
     vertex 9.7711189358e+01 1.7752053754e+01 2.0919270995e+01
     vertex 6.9923760850e+01 1.7483573671e+01 1.9774150426e+01
   endloop
 endfacet
 facet normal  -3.1784523453e-02 8.1362346706e-01 5.8052269371e-01
   outer loop
     vertex 6.9923760850e+01 1.7483573671e+01 1.9774150426e+01
     vertex 9.7711189358e+01 1.7752053754e+01 2.0919270995e+01
     vertex 6.9166528748e+01 2.3639735925e+01 1.1104607628e+01
   endloop
 endfacet
 facet normal  -2.2225887551e-03 8.5466908431e-01 5.1916838928e-01
   outer loop
     vertex 9.7711189358e+01 1.7752053754e+01 2.0919270995e+01
     vertex 9.7458778658e+01 2.3420235424e+01 1.1587076002e+01
     vertex 6.9166528748e+01 2.3639735925e+01 1.1104607628e+01
   endloop
 endfacet
 facet normal  3.8479832605e-03 9.7586826911e-01 2.1832616509e-01
   outer loop
     vertex 6.9166528748e+01 2.3639735925e+01 1.1104607628e+01
     vertex 9.7458778658e+01 2.3420235424e+01 1.1587076002e+01
     vertex 6.8781517171e+01 2.6125632836e+01 0.0000000000e+00
   endloop
 endfacet
 facet normal  1.8952246208e-02 9.8300276805e-01 1.8260988575e-01
   outer loop
     vertex 9.7458778658e+01 2.3420235424e+01 1.1587076002e+01
     vertex 9.7330441465e+01 2.5575210945e+01 0.0000000000e+00
     vertex 6.8781517171e+01 2.6125632836e+01 0.0000000000e+00
   endloop
 endfacet
 facet normal  2.1090810347e-02 9.8589260237e-01 -1.6604503701e-01
   outer loop
     vertex 9.7330441465e+01 2.5575210945e+01 -1.1368683772e-16
     vertex 1.2421875000e+02 2.5000000000e+01 0.0000000000e+00
     vertex 1.2421875000e+02 2.3034076258e+01 -1.1672674529e+01
   endloop
 endfacet
 facet normal  1.3601923487e-02 9.8307775666e-01 -1.8268309180e-01
   outer loop
     vertex 9.7330441465e+01 2.5575210945e+01 -1.1368683772e-16
     vertex 1.2421875000e+02 2.3034076258e+01 -1.1672674529e+01
     vertex 9.7458778658e+01 2.3420235424e+01 -1.1587076002e+01
   endloop
 endfacet
 facet normal  1.1011764813e-02 8.7169195540e-01 -4.8993048071e-01
   outer loop
     vertex 9.7458778658e+01 2.3420235424e+01 -1.1587076002e+01
     vertex 1.2421875000e+02 2.3034076258e+01 -1.1672674529e+01
     vertex 1.2421875000e+02 1.7674203355e+01 -2.1209044026e+01
   endloop
 endfacet
 facet normal  -3.1655396820e-03 8.5465559575e-01 -5.1918570089e-01
   outer loop
     vertex 9.7458778658e+01 2.3420235424e+01 -1.1587076002e+01
     vertex 1.2421875000e+02 1.7674203355e+01 -2.1209044026e+01
     vertex 9.7711189358e+01 1.7752053754e+01 -2.0919270995e+01
   endloop
 endfacet
 facet normal  -6.6495572629e-03 6.2910054794e-01 -7.7729549334e-01
   outer loop
     vertex 9.7711189358e+01 1.7752053754e+01 -2.0919270995e+01
     vertex 1.2421875000e+02 1.7674203355e+01 -2.1209044026e+01
     vertex 1.2421875000e+02 9.7272287740e+00 -2.7640891510e+01
   endloop
 endfacet
 facet normal  -2.2263002840e-02 5.9771554232e-01 -8.0139908234e-01
   outer loop
     vertex 9.7711189358e+01 1.7752053754e+01 -2.0919270995e+01
     vertex 1.2421875000e+02 9.7272287740e+00 -2.7640891510e+01
     vertex 9.7913714854e+01 9.6837156107e+00 -2.6942587019e+01
   endloop
 endfacet
 facet normal  -2.6179440587e-02 2.3561289024e-01 -9.7149431437e-01
   outer loop
     vertex 9.7913714854e+01 9.6837156107e+00 -2.6942587019e+01
     vertex 1.2421875000e+02 9.7272287740e+00 -2.7640891510e+01
     vertex 1.2421875000e+02 0.0000000000e+00 -3.0000000000e+01
   endloop
 endfacet
 facet normal  -3.5064874600e-02 2.1303028905e-01 -9.7641617690e-01
   outer loop
     vertex 9.7913714854e+01 9.6837156107e+00 -2.6942587019e+01
     vertex 1.2421875000e+02 0.0000000000e+00 -3.0000000000e+01
     vertex 9.7992166842e+01 -1.3073986338e-15 -2.9058155865e+01
   endloop
 endfacet
 facet normal  -3.5064874600e-02 -2.1303028905e-01 -9.7641617690e-01
   outer loop
     vertex 9.7992166842e+01 -1.3073986338e-15 -2.9058155865e+01
     vertex 1.2421875000e+02 0.0000000000e+00 -3.0000000000e+01
     vertex 9.7913714854e+01 -9.6837156107e+00 -2.6942587019e+01
   endloop
 endfacet
 facet normal  -2.6179440587e-02 -2.3561289024e-01 -9.7149431437e-01
   outer loop
     vertex 1.2421875000e+02 0.0000000000e+00 -3.0000000000e+01
     vertex 1.2421875000e+02 -9.7272287740e+00 -2.7640891510e+01
     vertex 9.7913714854e+01 -9.6837156107e+00 -2.6942587019e+01
   endloop
 endfacet
 facet normal  -2.2263002840e-02 -5.9771554232e-01 -8.0139908234e-01
   outer loop
     vertex 9.7913714854e+01 -9.6837156107e+00 -2.6942587019e+01
     vertex 1.2421875000e+02 -9.7272287740e+00 -2.7640891510e+01
     vertex 9.7711189358e+01 -1.7752053754e+01 -2.0919270995e+01
   endloop
 endfacet
 facet normal  -6.6495572629e-03 -6.2910054794e-01 -7.7729549334e-01
   outer loop
     vertex 1.2421875000e+02 -9.7272287740e+00 -2.7640891510e+01
     vertex 1.2421875000e+02 -1.7674203355e+01 -2.1209044026e+01
     vertex 9.7711189358e+01 -1.7752053754e+01 -2.0919270995e+01
   endloop
 endfacet
 facet normal  -3.1655396820e-03 -8.5465559575e-01 -5.1918570089e-01
   outer loop
     vertex 9.7711189358e+01 -1.7752053754e+01 -2.0919270995e+01
     vertex 1.2421875000e+02 -1.7674203355e+01 -2.1209044026e+01
     vertex 9.7458778658e+01 -2.3420235424e+01 -1.1587076002e+01
   endloop
 endfacet
 facet normal  1.1011764813e-02 -8.7169195540e-01 -4.8993048071e-01
   outer loop
     vertex 1.2421875000e+02 -1.7674203355e+01 -2.1209044026e+01
     vertex 1.2421875000e+02 -2.3034076258e+01 -1.1672674529e+01
     vertex 9.7458778658e+01 -2.3420235424e+01 -1.1587076002e+01
   endloop
 endfacet
 facet normal  1.3601923487e-02 -9.8307775666e-01 -1.8268309180e-01
   outer loop
     vertex 9.7458778658e+01 -2.3420235424e+01 -1.1587076002e+01
     vertex 1.2421875000e+02 -2.3034076258e+01 -1.1672674529e+01
     vertex 9.7330441465e+01 -2.5575210945e+01 -9.7012768189e-16
   endloop
 endfacet
 facet normal  2.1090810347e-02 -9.8589260237e-01 -1.6604503701e-01
   outer loop
     vertex 1.2421875000e+02 -2.3034076258e+01 -1.1672674529e+01
     vertex 1.2421875000e+02 -2.5000000000e+01 0.0000000000e+00
     vertex 9.7330441465e+01 -2.5575210945e+01 -9.7012768189e-16
   endloop
 endfacet
 facet normal  2.1090810347e-02 -9.8589260237e-01 1.6604503701e-01
   outer loop
     vertex 9.7330441465e+01 -2.5575210945e+01 -9.7012768189e-16
     vertex 1.2421875000e+02 -2.5000000000e+01 0.0000000000e+00
     vertex 1.2421875000e+02 -2.3034076258e+01 1.1672674529e+01
   endloop
 endfacet
 facet normal  1.3601923487e-02 -9.8307775666e-01 1.8268309180e-01
   outer loop
     vertex 9.7330441465e+01 -2.5575210945e+01 -9.7012768189e-16
     vertex 1.2421875000e+02 -2.3034076258e+01 1.1672674529e+01
     vertex 9.7458778658e+01 -2.3420235424e+01 1.1587076002e+01
   endloop
 endfacet
 facet normal  1.1011764813e-02 -8.7169195540e-01 4.8993048071e-01
   outer loop
     vertex 9.7458778658e+01 -2.3420235424e+01 1.1587076002e+01
     vertex 1.2421875000e+02 -2.3034076258e+01 1.1672674529e+01
     vertex 1.2421875000e+02 -1.7674203355e+01 2.1209044026e+01
   endloop
 endfacet
 facet normal  -3.1655396820e-03 -8.5465559575e-01 5.1918570089e-01
   outer loop
     vertex 9.7458778658e+01 -2.3420235424e+01 1.1587076002e+01
     vertex 1.2421875000e+02 -1.7674203355e+01 2.1209044026e+01
     vertex 9.7711189358e+01 -1.7752053754e+01 2.0919270995e+01
   endloop
 endfacet
 facet normal  -6.6495572629e-03 -6.2910054794e-01 7.7729549334e-01
   outer loop
     vertex 9.7711189358e+01 -1.7752053754e+01 2.0919270995e+01
     vertex 1.2421875000e+02 -1.7674203355e+01 2.1209044026e+01
     vertex 1.2421875000e+02 -9.7272287740e+00 2.7640891510e+01
   endloop
 endfacet
 facet normal  -2.2263002840e-02 -5.9771554232e-01 8.0139908234e-01
   outer loop
     vertex 9.7711189358e+01 -1.7752053754e+01 2.0919270995e+01
     vertex 1.2421875000e+02 -9.7272287740e+00 2.7640891510e+01
     vertex 9.7913714854e+01 -9.6837156107e+00 2.6942587019e+01
   endloop
 endfacet
 facet normal  -2.6179440587e-02 -2.3561289024e-01 9.7149431437e-01
   outer loop
     vertex 9.7913714854e+01 -9.6837156107e+00 2.6942587019e+01
     vertex 1.2421875000e+02 -9.7272287740e+00 2.7640891510e+01
     vertex 1.2421875000e+02 0.0000000000e+00 3.0000000000e+01
   endloop
 endfacet
 facet normal  -3.5064874600e-02 -2.1303028905e-01 9.7641617690e-01
   outer loop
     vertex 9.7913714854e+01 -9.6837156107e+00 2.6942587019e+01
     vertex 1.2421875000e+02 0.0000000000e+00 3.0000000000e+01
     vertex 9.7992166842e+01 4.2646163050e-16 2.9058155865e+01
   endloop
 endfacet
 facet normal  -3.5064874600e-02 2.1303028905e-01 9.7641617690e-01
   outer loop
     vertex 9.7992166842e+01 4.2646163050e-16 2.9058155865e+01
     vertex 1.2421875000e+02 0.0000000000e+00 3.0000000000e+01
     vertex 9.7913714854e+01 9.6837156107e+00 2.6942587019e+01
   endloop
 endfacet
 facet normal  -2.6179440587e-02 2.3561289024e-01 9.7149431437e-01
   outer loop
     vertex 1.2421875000e+02 0.0000000000e+00 3.0000000000e+01
     vertex 1.2421875000e+02 9.7272287740e+00 2.7640891510e+01
     vertex 9.7913714854e+01 9.6837156107e+00 2.6942587019e+01
   endloop
 endfacet
 facet normal  -2.2263002840e-02 5.9771554232e-01 8.0139908234e-01
   outer loop
     vertex 9.7913714854e+01 9.6837156107e+00 2.6942587019e+01
     vertex 1.2421875000e+02 9.7272287740e+00 2.7640891510e+01
     vertex 9.7711189358e+01 1.7752053754e+01 2.0919270995e+01
   endloop
 endfacet
 facet normal  -6.6495572629e-03 6.2910054794e-01 7.7729549334e-01
   outer loop
     vertex 1.2421875000e+02 9.7272287740e+00 2.7640891510e+01
     vertex 1.2421875000e+02 1.7674203355e+01 2.1209044026e+01
     vertex 9.7711189358e+01 1.7752053754e+01 2.0919270995e+01
   endloop
 endfacet
 facet normal  -3.1655396820e-03 8.5465559575e-01 5.1918570089e-01
   outer loop
     vertex 9.7711189358e+01 1.7752053754e+01 2.0919270995e+01
     vertex 1.2421875000e+02 1.7674203355e+01 2.1209044026e+01
     vertex 9.7458778658e+01 2.3420235424e+01 1.1587076002e+01
   endloop
 endfacet
 facet normal  1.1011764813e-02 8.7169195540e-01 4.8993048071e-01
   outer loop
     vertex 1.2421875000e+02 1.7674203355e+01 2.1209044026e+01
     vertex 1.2421875000e+02 2.3034076258e+01 1.1672674529e+01
     vertex 9.7458778658e+01 2.3420235424e+01 1.1587076002e+01
   endloop
 endfacet
 facet normal  1.3601923487e-02 9.8307775666e-01 1.8268309180e-01
   outer loop
     vertex 9.7458778658e+01 2.3420235424e+01 1.1587076002e+01
     vertex 1.2421875000e+02 2.3034076258e+01 1.1672674529e+01
     vertex 9.7330441465e+01 2.5575210945e+01 0.0000000000e+00
   endloop
 endfacet
 facet normal  2.1090810347e-02 9.8589260237e-01 1.6604503701e-01
   outer loop
     vertex 1.2421875000e+02 2.3034076258e+01 1.1672674529e+01
     vertex 1.2421875000e+02 2.5000000000e+01 0.0000000000e+00
     vertex 9.7330441465e+01 2.5575210945e+01 0.0000000000e+00
   endloop
 endfacet
 facet normal  2.9298542202e-02 9.8683243312e-01 -1.5907024977e-01
   outer loop
     vertex 1.2421875000e+02 2.5000000000e+01 0.0000000000e+00
     vertex 1.5296725915e+02 2.4146471701e+01 -2.8421709430e-17
     vertex 1.5298406790e+02 2.2370094835e+01 -1.1017106184e+01
   endloop
 endfacet
 facet normal  2.6537831439e-02 9.8576465002e-01 -1.6602348714e-01
   outer loop
     vertex 1.2421875000e+02 2.5000000000e+01 0.0000000000e+00
     vertex 1.5298406790e+02 2.2370094835e+01 -1.1017106184e+01
     vertex 1.2421875000e+02 2.3034076258e+01 -1.1672674529e+01
   endloop
 endfacet
 facet normal  3.1198300351e-02 8.7551572006e-01 -4.8218138701e-01
   outer loop
     vertex 1.2421875000e+02 2.3034076258e+01 -1.1672674529e+01
     vertex 1.5298406790e+02 2.2370094835e+01 -1.1017106184e+01
     vertex 1.5302890831e+02 1.7342824209e+01 -2.0142418020e+01
   endloop
 endfacet
 facet normal  2.8155368510e-02 8.7139921508e-01 -4.8976594735e-01
   outer loop
     vertex 1.2421875000e+02 2.3034076258e+01 -1.1672674529e+01
     vertex 1.5302890831e+02 1.7342824209e+01 -2.0142418020e+01
     vertex 1.2421875000e+02 1.7674203355e+01 -2.1209044026e+01
   endloop
 endfacet
 facet normal  3.5906362394e-02 6.3325239297e-01 -7.7311198409e-01
   outer loop
     vertex 1.2421875000e+02 1.7674203355e+01 -2.1209044026e+01
     vertex 1.5302890831e+02 1.7342824209e+01 -2.0142418020e+01
     vertex 1.5308685066e+02 9.5991045887e+00 -2.6482571298e+01
   endloop
 endfacet
 facet normal  3.3961910892e-02 6.2875153818e-01 -7.7686426861e-01
   outer loop
     vertex 1.2421875000e+02 1.7674203355e+01 -2.1209044026e+01
     vertex 1.5308685066e+02 9.5991045887e+00 -2.6482571298e+01
     vertex 1.2421875000e+02 9.7272287740e+00 -2.7640891510e+01
   endloop
 endfacet
 facet normal  3.9976630511e-02 2.4133322121e-01 -9.6961855662e-01
   outer loop
     vertex 1.2421875000e+02 9.7272287740e+00 -2.7640891510e+01
     vertex 1.5308685066e+02 9.5991045887e+00 -2.6482571298e+01
     vertex 1.5311676136e+02 -2.8421709430e-16 -2.8870507344e+01
   endloop
 endfacet
 facet normal  3.7956968236e-02 2.3552382511e-01 -9.7112707529e-01
   outer loop
     vertex 1.2421875000e+02 9.7272287740e+00 -2.7640891510e+01
     vertex 1.5311676136e+02 -2.8421709430e-16 -2.8870507344e+01
     vertex 1.2421875000e+02 0.0000000000e+00 -3.0000000000e+01
   endloop
 endfacet
 facet normal  3.7956968236e-02 -2.3552382511e-01 -9.7112707529e-01
   outer loop
     vertex 1.2421875000e+02 0.0000000000e+00 -3.0000000000e+01
     vertex 1.5311676136e+02 -2.8421709430e-16 -2.8870507344e+01
     vertex 1.2421875000e+02 -9.7272287740e+00 -2.7640891510e+01
   endloop
 endfacet
 facet normal  3.9976630511e-02 -2.4133322121e-01 -9.6961855662e-01
   outer loop
     vertex 1.5311676136e+02 -2.8421709430e-16 -2.8870507344e+01
     vertex 1.5308685066e+02 -9.5991045887e+00 -2.6482571298e+01
     vertex 1.2421875000e+02 -9.7272287740e+00 -2.7640891510e+01
   endloop
 endfacet
 facet normal  3.3961910892e-02 -6.2875153818e-01 -7.7686426861e-01
   outer loop
     vertex 1.2421875000e+02 -9.7272287740e+00 -2.7640891510e+01
     vertex 1.5308685066e+02 -9.5991045887e+00 -2.6482571298e+01
     vertex 1.2421875000e+02 -1.7674203355e+01 -2.1209044026e+01
   endloop
 endfacet
 facet normal  3.5906362394e-02 -6.3325239297e-01 -7.7311198409e-01
   outer loop
     vertex 1.5308685066e+02 -9.5991045887e+00 -2.6482571298e+01
     vertex 1.5302890831e+02 -1.7342824209e+01 -2.0142418020e+01
     vertex 1.2421875000e+02 -1.7674203355e+01 -2.1209044026e+01
   endloop
 endfacet
 facet normal  2.8155368510e-02 -8.7139921508e-01 -4.8976594735e-01
   outer loop
     vertex 1.2421875000e+02 -1.7674203355e+01 -2.1209044026e+01
     vertex 1.5302890831e+02 -1.7342824209e+01 -2.0142418020e+01
     vertex 1.2421875000e+02 -2.3034076258e+01 -1.1672674529e+01
   endloop
 endfacet
 facet normal  3.1198300351e-02 -8.7551572006e-01 -4.8218138701e-01
   outer loop
     vertex 1.5302890831e+02 -1.7342824209e+01 -2.0142418020e+01
     vertex 1.5298406790e+02 -2.2370094835e+01 -1.1017106184e+01
     vertex 1.2421875000e+02 -2.3034076258e+01 -1.1672674529e+01
   endloop
 endfacet
 facet normal  2.6537831439e-02 -9.8576465002e-01 -1.6602348714e-01
   outer loop
     vertex 1.2421875000e+02 -2.3034076258e+01 -1.1672674529e+01
     vertex 1.5298406790e+02 -2.2370094835e+01 -1.1017106184e+01
     vertex 1.2421875000e+02 -2.5000000000e+01 0.0000000000e+00
   endloop
 endfacet
 facet normal  2.9298542202e-02 -9.8683243312e-01 -1.5907024977e-01
   outer loop
     vertex 1.5298406790e+02 -2.2370094835e+01 -1.1017106184e+01
     vertex 1.5296725915e+02 -2.4146471701e+01 3.6379788071e-16
     vertex 1.2421875000e+02 -2.5000000000e+01 0.0000000000e+00
   endloop
 endfacet
 facet normal  2.9298542202e-02 -9.8683243312e-01 1.5907024977e-01
   outer loop
     vertex 1.2421875000e+02 -2.5000000000e+01 0.0000000000e+00
     vertex 1.5296725915e+02 -2.4146471701e+01 3.6379788071e-16
     vertex 1.5298406790e+02 -2.2370094835e+01 1.1017106184e+01
   endloop
 endfacet
 facet normal  2.6537831439e-02 -9.8576465002e-01 1.6602348714e-01
   outer loop
     vertex 1.2421875000e+02 -2.5000000000e+01 0.0000000000e+00
     vertex 1.5298406790e+02 -2.2370094835e+01 1.1017106184e+01
     vertex 1.2421875000e+02 -2.3034076258e+01 1.1672674529e+01
   endloop
 endfacet
 facet normal  3.1198300351e-02 -8.7551572006e-01 4.8218138701e-01
   outer loop
     vertex 1.2421875000e+02 -2.3034076258e+01 1.1672674529e+01
     vertex 1.5298406790e+02 -2.2370094835e+01 1.1017106184e+01
     vertex 1.5302890831e+02 -1.7342824209e+01 2.0142418020e+01
   endloop
 endfacet
 facet normal  2.8155368510e-02 -8.7139921508e-01 4.8976594735e-01
   outer loop
     vertex 1.2421875000e+02 -2.3034076258e+01 1.1672674529e+01
     vertex 1.5302890831e+02 -1.7342824209e+01 2.0142418020e+01
     vertex 1.2421875000e+02 -1.7674203355e+01 2.1209044026e+01
   endloop
 endfacet
 facet normal  3.5906362394e-02 -6.3325239297e-01 7.7311198409e-01
   outer loop
     vertex 1.2421875000e+02 -1.7674203355e+01 2.1209044026e+01
     vertex 1.5302890831e+02 -1.7342824209e+01 2.0142418020e+01
     vertex 1.5308685066e+02 -9.5991045887e+00 2.6482571298e+01
   endloop
 endfacet
 facet normal  3.3961910892e-02 -6.2875153818e-01 7.7686426861e-01
   outer loop
     vertex 1.2421875000e+02 -1.7674203355e+01 2.1209044026e+01
     vertex 1.5308685066e+02 -9.5991045887e+00 2.6482571298e+01
     vertex 1.2421875000e+02 -9.7272287740e+00 2.7640891510e+01
   endloop
 endfacet
 facet normal  3.9976630511e-02 -2.4133322121e-01 9.6961855662e-01
   outer loop
     vertex 1.2421875000e+02 -9.7272287740e+00 2.7640891510e+01
     vertex 1.5308685066e+02 -9.5991045887e+00 2.6482571298e+01
     vertex 1.5311676136e+02 -1.2184618014e-16 2.8870507344e+01
   endloop
 endfacet
 facet normal  3.7956968236e-02 -2.3552382511e-01 9.7112707529e-01
   outer loop
     vertex 1.2421875000e+02 -9.7272287740e+00 2.7640891510e+01
     vertex 1.5311676136e+02 -1.2184618014e-16 2.8870507344e+01
     vertex 1.2421875000e+02 0.0000000000e+00 3.0000000000e+01
   endloop
 endfacet
 facet normal  3.7956968236e-02 2.3552382511e-01 9.7112707529e-01
   outer loop
     vertex 1.2421875000e+02 0.0000000000e+00 3.0000000000e+01
     vertex 1.5311676136e+02 -1.2184618014e-16 2.8870507344e+01
     vertex 1.2421875000e+02 9.7272287740e+00 2.7640891510e+01
   endloop
 endfacet
 facet normal  3.9976630511e-02 2.4133322121e-01 9.6961855662e-01
   outer loop
     vertex 1.5311676136e+02 -1.2184618014e-16 2.8870507344e+01
     vertex 1.5308685066e+02 9.5991045887e+00 2.6482571298e+01
     vertex 1.2421875000e+02 9.7272287740e+00 2.7640891510e+01
   endloop
 endfacet
 facet normal  3.3961910892e-02 6.2875153818e-01 7.7686426861e-01
   outer loop
     vertex 1.2421875000e+02 9.7272287740e+00 2.7640891510e+01
     vertex 1.5308685066e+02 9.5991045887e+00 2.6482571298e+01
     vertex 1.2421875000e+02 1.7674203355e+01 2.1209044026e+01
   endloop
 endfacet
 facet normal  3.5906362394e-02 6.3325239297e-01 7.7311198409e-01
   outer loop
     vertex 1.5308685066e+02 9.5991045887e+00 2.6482571298e+01
     vertex 1.5302890831e+02 1.7342824209e+01 2.0142418020e+01
     vertex 1.2421875000e+02 1.7674203355e+01 2.1209044026e+01
   endloop
 endfacet
 facet normal  2.8155368510e-02 8.7139921508e-01 4.8976594735e-01
   outer loop
     vertex 1.2421875000e+02 1.7674203355e+01 2.1209044026e+01
     vertex 1.5302890831e+02 1.7342824209e+01 2.0142418020e+01
     vertex 1.2421875000e+02 2.3034076258e+01 1.1672674529e+01
   endloop
 endfacet
 facet normal  3.1198300351e-02 8.7551572006e-01 4.8218138701e-01
   outer loop
     vertex 1.5302890831e+02 1.7342824209e+01 2.0142418020e+01
     vertex 1.5298406790e+02 2.2370094835e+01 1.1017106184e+01
     vertex 1.2421875000e+02 2.3034076258e+01 1.1672674529e+01
   endloop
 endfacet
 facet normal  2.6537831439e-02 9.8576465002e-01 1.6602348714e-01
   outer loop
     vertex 1.2421875000e+02 2.3034076258e+01 1.1672674529e+01
     vertex 1.5298406790e+02 2.2370094835e+01 1.1017106184e+01
     vertex 1.2421875000e+02 2.5000000000e+01 0.0000000000e+00
   endloop
 endfacet
 facet normal  2.9298542202e-02 9.8683243312e-01 1.5907024977e-01
   outer loop
     vertex 1.5298406790e+02 2.2370094835e+01 1.1017106184e+01
     vertex 1.5296725915e+02 2.4146471701e+01 0.0000000000e+00
     vertex 1.2421875000e+02 2.5000000000e+01 0.0000000000e+00
   endloop
 endfacet
 facet normal  6.6360978141e-02 9.8753256596e-01 -1.4274330723e-01
   outer loop
     vertex 1.5296725915e+02 2.4146471701e+01 -2.8421709430e-17
     vertex 1.8729908467e+02 2.1839415102e+01 -8.5265128291e-17
     vertex 1.8734951091e+02 2.0489314159e+01 -9.3168803427e+00
   endloop
 endfacet
 facet normal  6.1784510376e-02 9.8537791180e-01 -1.5878616188e-01
   outer loop
     vertex 1.5296725915e+02 2.4146471701e+01 -2.8421709430e-17
     vertex 1.8734951091e+02 2.0489314159e+01 -9.3168803427e+00
     vertex 1.5298406790e+02 2.2370094835e+01 -1.1017106184e+01
   endloop
 endfacet
 facet normal  7.1326412692e-02 8.8176392272e-01 -4.6626701303e-01
   outer loop
     vertex 1.5298406790e+02 2.2370094835e+01 -1.1017106184e+01
     vertex 1.8734951091e+02 2.0489314159e+01 -9.3168803427e+00
     vertex 1.8748403214e+02 1.6255885036e+01 -1.7302197874e+01
   endloop
 endfacet
 facet normal  6.7238289519e-02 8.7403474502e-01 -4.8118840064e-01
   outer loop
     vertex 1.5298406790e+02 2.2370094835e+01 -1.1017106184e+01
     vertex 1.8748403214e+02 1.6255885036e+01 -1.7302197874e+01
     vertex 1.5302890831e+02 1.7342824209e+01 -2.0142418020e+01
   endloop
 endfacet
 facet normal  8.3218445173e-02 6.3833476731e-01 -7.6524729024e-01
   outer loop
     vertex 1.5302890831e+02 1.7342824209e+01 -2.0142418020e+01
     vertex 1.8748403214e+02 1.6255885036e+01 -1.7302197874e+01
     vertex 1.8765785922e+02 9.1094027276e+00 -2.3244567825e+01
   endloop
 endfacet
 facet normal  8.1152814571e-02 6.3177403799e-01 -7.7089284963e-01
   outer loop
     vertex 1.5302890831e+02 1.7342824209e+01 -2.0142418020e+01
     vertex 1.8765785922e+02 9.1094027276e+00 -2.3244567825e+01
     vertex 1.5308685066e+02 9.5991045887e+00 -2.6482571298e+01
   endloop
 endfacet
 facet normal  9.3790362000e-02 2.5124230590e-01 -9.6336943678e-01
   outer loop
     vertex 1.5308685066e+02 9.5991045887e+00 -2.6482571298e+01
     vertex 1.8765785922e+02 9.1094027276e+00 -2.3244567825e+01
     vertex 1.8774759130e+02 -8.5265128291e-16 -2.5611522033e+01
   endloop
 endfacet
 facet normal  9.0938486214e-02 2.4067545966e-01 -9.6633612933e-01
   outer loop
     vertex 1.5308685066e+02 9.5991045887e+00 -2.6482571298e+01
     vertex 1.8774759130e+02 -8.5265128291e-16 -2.5611522033e+01
     vertex 1.5311676136e+02 -2.8421709430e-16 -2.8870507344e+01
   endloop
 endfacet
 facet normal  9.0938486214e-02 -2.4067545966e-01 -9.6633612933e-01
   outer loop
     vertex 1.5311676136e+02 -2.8421709430e-16 -2.8870507344e+01
     vertex 1.8774759130e+02 -8.5265128291e-16 -2.5611522033e+01
     vertex 1.5308685066e+02 -9.5991045887e+00 -2.6482571298e+01
   endloop
 endfacet
 facet normal  9.3790362000e-02 -2.5124230590e-01 -9.6336943678e-01
   outer loop
     vertex 1.8774759130e+02 -8.5265128291e-16 -2.5611522033e+01
     vertex 1.8765785922e+02 -9.1094027276e+00 -2.3244567825e+01
     vertex 1.5308685066e+02 -9.5991045887e+00 -2.6482571298e+01
   endloop
 endfacet
 facet normal  8.1152814571e-02 -6.3177403799e-01 -7.7089284963e-01
   outer loop
     vertex 1.5308685066e+02 -9.5991045887e+00 -2.6482571298e+01
     vertex 1.8765785922e+02 -9.1094027276e+00 -2.3244567825e+01
     vertex 1.5302890831e+02 -1.7342824209e+01 -2.0142418020e+01
   endloop
 endfacet
 facet normal  8.3218445173e-02 -6.3833476731e-01 -7.6524729024e-01
   outer loop
     vertex 1.8765785922e+02 -9.1094027276e+00 -2.3244567825e+01
     vertex 1.8748403214e+02 -1.6255885036e+01 -1.7302197874e+01
     vertex 1.5302890831e+02 -1.7342824209e+01 -2.0142418020e+01
   endloop
 endfacet
 facet normal  6.7238289519e-02 -8.7403474502e-01 -4.8118840064e-01
   outer loop
     vertex 1.5302890831e+02 -1.7342824209e+01 -2.0142418020e+01
     vertex 1.8748403214e+02 -1.6255885036e+01 -1.7302197874e+01
     vertex 1.5298406790e+02 -2.2370094835e+01 -1.1017106184e+01
   endloop
 endfacet
 facet normal  7.1326412692e-02 -8.8176392272e-01 -4.6626701303e-01
   outer loop
     vertex 1.8748403214e+02 -1.6255885036e+01 -1.7302197874e+01
     vertex 1.8734951091e+02 -2.0489314159e+01 -9.3168803427e+00
     vertex 1.5298406790e+02 -2.2370094835e+01 -1.1017106184e+01
   endloop
 endfacet
 facet normal  6.1784510376e-02 -9.8537791180e-01 -1.5878616188e-01
   outer loop
     vertex 1.5298406790e+02 -2.2370094835e+01 -1.1017106184e+01
     vertex 1.8734951091e+02 -2.0489314159e+01 -9.3168803427e+00
     vertex 1.5296725915e+02 -2.4146471701e+01 3.6379788071e-16
   endloop
 endfacet
 facet normal  6.6360978141e-02 -9.8753256596e-01 -1.4274330723e-01
   outer loop
     vertex 1.8734951091e+02 -2.0489314159e+01 -9.3168803427e+00
     vertex 1.8729908467e+02 -2.1839415102e+01 1.0913936421e-15
     vertex 1.5296725915e+02 -2.4146471701e+01 3.6379788071e-16
   endloop
 endfacet
 facet normal  6.6360978141e-02 -9.8753256596e-01 1.4274330723e-01
   outer loop
     vertex 1.5296725915e+02 -2.4146471701e+01 3.6379788071e-16
     vertex 1.8729908467e+02 -2.1839415102e+01 1.0913936421e-15
     vertex 1.8734951091e+02 -2.0489314159e+01 9.3168803427e+00
   endloop
 endfacet
 facet normal  6.1784510376e-02 -9.8537791180e-01 1.5878616188e-01
   outer loop
     vertex 1.5296725915e+02 -2.4146471701e+01 3.6379788071e-16
     vertex 1.8734951091e+02 -2.0489314159e+01 9.3168803427e+00
     vertex 1.5298406790e+02 -2.2370094835e+01 1.1017106184e+01
   endloop
 endfacet
 facet normal  7.1326412692e-02 -8.8176392272e-01 4.6626701303e-01
   outer loop
     vertex 1.5298406790e+02 -2.2370094835e+01 1.1017106184e+01
     vertex 1.8734951091e+02 -2.0489314159e+01 9.3168803427e+00
     vertex 1.8748403214e+02 -1.6255885036e+01 1.7302197874e+01
   endloop
 endfacet
 facet normal  6.7238289519e-02 -8.7403474502e-01 4.8118840064e-01
   outer loop
     vertex 1.5298406790e+02 -2.2370094835e+01 1.1017106184e+01
     vertex 1.8748403214e+02 -1.6255885036e+01 1.7302197874e+01
     vertex 1.5302890831e+02 -1.7342824209e+01 2.0142418020e+01
   endloop
 endfacet
 facet normal  8.3218445173e-02 -6.3833476731e-01 7.6524729024e-01
   outer loop
     vertex 1.5302890831e+02 -1.7342824209e+01 2.0142418020e+01
     vertex 1.8748403214e+02 -1.6255885036e+01 1.7302197874e+01
     vertex 1.8765785922e+02 -9.1094027276e+00 2.3244567825e+01
   endloop
 endfacet
 facet normal  8.1152814571e-02 -6.3177403799e-01 7.7089284963e-01
   outer loop
     vertex 1.5302890831e+02 -1.7342824209e+01 2.0142418020e+01
     vertex 1.8765785922e+02 -9.1094027276e+00 2.3244567825e+01
     vertex 1.5308685066e+02 -9.5991045887e+00 2.6482571298e+01
   endloop
 endfacet
 facet normal  9.3790362000e-02 -2.5124230590e-01 9.6336943678e-01
   outer loop
     vertex 1.5308685066e+02 -9.5991045887e+00 2.6482571298e+01
     vertex 1.8765785922e+02 -9.1094027276e+00 2.3244567825e+01
     vertex 1.8774759130e+02 -3.6553854043e-16 2.5611522033e+01
   endloop
 endfacet
 facet normal  9.0938486214e-02 -2.4067545966e-01 9.6633612933e-01
   outer loop
     vertex 1.5308685066e+02 -9.5991045887e+00 2.6482571298e+01
     vertex 1.8774759130e+02 -3.6553854043e-16 2.5611522033e+01
     vertex 1.5311676136e+02 -1.2184618014e-16 2.8870507344e+01
   endloop
 endfacet
 facet normal  9.0938486214e-02 2.4067545966e-01 9.6633612933e-01
   outer loop
     vertex 1.5311676136e+02 -1.2184618014e-16 2.8870507344e+01
     vertex 1.8774759130e+02 -3.6553854043e-16 2.5611522033e+01
     vertex 1.5308685066e+02 9.5991045887e+00 2.6482571298e+01
   endloop
 endfacet
 facet normal  9.3790362000e-02 2.5124230590e-01 9.6336943678e-01
   outer loop
     vertex 1.8774759130e+02 -3.6553854043e-16 2.5611522033e+01
     vertex 1.8765785922e+02 9.1094027276e+00 2.3244567825e+01
     vertex 1.5308685066e+02 9.5991045887e+00 2.6482571298e+01
   endloop
 endfacet
 facet normal  8.1152814571e-02 6.3177403799e-01 7.7089284963e-01
   outer loop
     vertex 1.5308685066e+02 9.5991045887e+00 2.6482571298e+01
     vertex 1.8765785922e+02 9.1094027276e+00 2.3244567825e+01
     vertex 1.5302890831e+02 1.7342824209e+01 2.0142418020e+01
   endloop
 endfacet
 facet normal  8.3218445173e-02 6.3833476731e-01 7.6524729024e-01
   outer loop
     vertex 1.8765785922e+02 9.1094027276e+00 2.3244567825e+01
     vertex 1.8748403214e+02 1.6255885036e+01 1.7302197874e+01
     vertex 1.5302890831e+02 1.7342824209e+01 2.0142418020e+01
   endloop
 endfacet
 facet normal  6.7238289519e-02 8.7403474502e-01 4.8118840064e-01
   outer loop
     vertex 1.5302890831e+02 1.7342824209e+01 2.0142418020e+01
     vertex 1.8748403214e+02 1.6255885036e+01 1.7302197874e+01
     vertex 1.5298406790e+02 2.2370094835e+01 1.1017106184e+01
   endloop
 endfacet
 facet normal  7.1326412692e-02 8.8176392272e-01 4.6626701303e-01
   outer loop
     vertex 1.8748403214e+02 1.6255885036e+01 1.7302197874e+01
     vertex 1.8734951091e+02 2.0489314159e+01 9.3168803427e+00
     vertex 1.5298406790e+02 2.2370094835e+01 1.1017106184e+01
   endloop
 endfacet
 facet normal  6.1784510376e-02 9.8537791180e-01 1.5878616188e-01
   outer loop
     vertex 1.5298406790e+02 2.2370094835e+01 1.1017106184e+01
     vertex 1.8734951091e+02 2.0489314159e+01 9.3168803427e+00
     vertex 1.5296725915e+02 2.4146471701e+01 0.0000000000e+00
   endloop
 endfacet
 facet normal  6.6360978141e-02 9.8753256596e-01 1.4274330723e-01
   outer loop
     vertex 1.8734951091e+02 2.0489314159e+01 9.3168803427e+00
     vertex 1.8729908467e+02 2.1839415102e+01 0.0000000000e+00
     vertex 1.5296725915e+02 2.4146471701e+01 0.0000000000e+00
   endloop
 endfacet
 facet normal  8.8970041028e-02 9.8794777631e-01 -1.2666302964e-01
   outer loop
     vertex 1.8729908467e+02 2.1839415102e+01 -8.5265128291e-17
     vertex 2.2483478062e+02 1.8459122652e+01 -1.2789769244e-16
     vertex 2.2491041998e+02 1.7558479619e+01 -6.9717157969e+00
   endloop
 endfacet
 facet normal  8.5835028504e-02 9.8607652953e-01 -1.4242691384e-01
   outer loop
     vertex 1.8729908467e+02 2.1839415102e+01 -8.5265128291e-17
     vertex 2.2491041998e+02 1.7558479619e+01 -6.9717157969e+00
     vertex 1.8734951091e+02 2.0489314159e+01 -9.3168803427e+00
   endloop
 endfacet
 facet normal  9.7587012029e-02 8.8247450804e-01 -4.6012554563e-01
   outer loop
     vertex 1.8734951091e+02 2.0489314159e+01 -9.3168803427e+00
     vertex 2.2491041998e+02 1.7558479619e+01 -6.9717157969e+00
     vertex 2.2511220183e+02 1.4274183235e+01 -1.3227870396e+01
   endloop
 endfacet
 facet normal  9.6690378144e-02 8.8005090941e-01 -4.6493157305e-01
   outer loop
     vertex 1.8734951091e+02 2.0489314159e+01 -9.3168803427e+00
     vertex 2.2511220183e+02 1.4274183235e+01 -1.3227870396e+01
     vertex 1.8748403214e+02 1.6255885036e+01 -1.7302197874e+01
   endloop
 endfacet
 facet normal  1.1624404399e-01 6.3209930458e-01 -7.6611865360e-01
   outer loop
     vertex 1.8748403214e+02 1.6255885036e+01 -1.7302197874e+01
     vertex 2.2511220183e+02 1.4274183235e+01 -1.3227870396e+01
     vertex 2.2537294244e+02 8.1001292328e+00 -1.8282316832e+01
   endloop
 endfacet
 facet normal  1.1732009036e-01 6.3662681500e-01 -7.6219570638e-01
   outer loop
     vertex 1.8748403214e+02 1.6255885036e+01 -1.7302197874e+01
     vertex 2.2537294244e+02 8.1001292328e+00 -1.8282316832e+01
     vertex 1.8765785922e+02 9.1094027276e+00 -2.3244567825e+01
   endloop
 endfacet
 facet normal  1.3284269550e-01 2.5467224545e-01 -9.5785952292e-01
   outer loop
     vertex 1.8765785922e+02 9.1094027276e+00 -2.3244567825e+01
     vertex 2.2537294244e+02 8.1001292328e+00 -1.8282316832e+01
     vertex 2.2550754056e+02 -1.2789769244e-15 -2.0417283050e+01
   endloop
 endfacet
 facet normal  1.3193106744e-01 2.5050444373e-01 -9.5908379046e-01
   outer loop
     vertex 1.8765785922e+02 9.1094027276e+00 -2.3244567825e+01
     vertex 2.2550754056e+02 -1.2789769244e-15 -2.0417283050e+01
     vertex 1.8774759130e+02 -8.5265128291e-16 -2.5611522033e+01
   endloop
 endfacet
 facet normal  1.3193106744e-01 -2.5050444373e-01 -9.5908379046e-01
   outer loop
     vertex 1.8774759130e+02 -8.5265128291e-16 -2.5611522033e+01
     vertex 2.2550754056e+02 -1.2789769244e-15 -2.0417283050e+01
     vertex 1.8765785922e+02 -9.1094027276e+00 -2.3244567825e+01
   endloop
 endfacet
 facet normal  1.3284269550e-01 -2.5467224545e-01 -9.5785952292e-01
   outer loop
     vertex 2.2550754056e+02 -1.2789769244e-15 -2.0417283050e+01
     vertex 2.2537294244e+02 -8.1001292328e+00 -1.8282316832e+01
     vertex 1.8765785922e+02 -9.1094027276e+00 -2.3244567825e+01
   endloop
 endfacet
 facet normal  1.1732009036e-01 -6.3662681500e-01 -7.6219570638e-01
   outer loop
     vertex 1.8765785922e+02 -9.1094027276e+00 -2.3244567825e+01
     vertex 2.2537294244e+02 -8.1001292328e+00 -1.8282316832e+01
     vertex 1.8748403214e+02 -1.6255885036e+01 -1.7302197874e+01
   endloop
 endfacet
 facet normal  1.1624404399e-01 -6.3209930458e-01 -7.6611865360e-01
   outer loop
     vertex 2.2537294244e+02 -8.1001292328e+00 -1.8282316832e+01
     vertex 2.2511220183e+02 -1.4274183235e+01 -1.3227870396e+01
     vertex 1.8748403214e+02 -1.6255885036e+01 -1.7302197874e+01
   endloop
 endfacet
 facet normal  9.6690378144e-02 -8.8005090941e-01 -4.6493157305e-01
   outer loop
     vertex 1.8748403214e+02 -1.6255885036e+01 -1.7302197874e+01
     vertex 2.2511220183e+02 -1.4274183235e+01 -1.3227870396e+01
     vertex 1.8734951091e+02 -2.0489314159e+01 -9.3168803427e+00
   endloop
 endfacet
 facet normal  9.7587012029e-02 -8.8247450804e-01 -4.6012554563e-01
   outer loop
     vertex 2.2511220183e+02 -1.4274183235e+01 -1.3227870396e+01
     vertex 2.2491041998e+02 -1.7558479619e+01 -6.9717157969e+00
     vertex 1.8734951091e+02 -2.0489314159e+01 -9.3168803427e+00
   endloop
 endfacet
 facet normal  8.5835028504e-02 -9.8607652953e-01 -1.4242691384e-01
   outer loop
     vertex 1.8734951091e+02 -2.0489314159e+01 -9.3168803427e+00
     vertex 2.2491041998e+02 -1.7558479619e+01 -6.9717157969e+00
     vertex 1.8729908467e+02 -2.1839415102e+01 1.0913936421e-15
   endloop
 endfacet
 facet normal  8.8970041028e-02 -9.8794777631e-01 -1.2666302964e-01
   outer loop
     vertex 2.2491041998e+02 -1.7558479619e+01 -6.9717157969e+00
     vertex 2.2483478062e+02 -1.8459122652e+01 1.6370904632e-15
     vertex 1.8729908467e+02 -2.1839415102e+01 1.0913936421e-15
   endloop
 endfacet
 facet normal  8.8970041028e-02 -9.8794777631e-01 1.2666302964e-01
   outer loop
     vertex 1.8729908467e+02 -2.1839415102e+01 1.0913936421e-15
     vertex 2.2483478062e+02 -1.8459122652e+01 1.6370904632e-15
     vertex 2.2491041998e+02 -1.7558479619e+01 6.9717157969e+00
   endloop
 endfacet
 facet normal  8.5835028504e-02 -9.8607652953e-01 1.4242691384e-01
   outer loop
     vertex 1.8729908467e+02 -2.1839415102e+01 1.0913936421e-15
     vertex 2.2491041998e+02 -1.7558479619e+01 6.9717157969e+00
     vertex 1.8734951091e+02 -2.0489314159e+01 9.3168803427e+00
   endloop
 endfacet
 facet normal  9.7587012029e-02 -8.8247450804e-01 4.6012554563e-01
   outer loop
     vertex 1.8734951091e+02 -2.0489314159e+01 9.3168803427e+00
     vertex 2.2491041998e+02 -1.7558479619e+01 6.9717157969e+00
     vertex 2.2511220183e+02 -1.4274183235e+01 1.3227870396e+01
   endloop
 endfacet
 facet normal  9.6690378144e-02 -8.8005090941e-01 4.6493157305e-01
   outer loop
     vertex 1.8734951091e+02 -2.0489314159e+01 9.3168803427e+00
     vertex 2.2511220183e+02 -1.4274183235e+01 1.3227870396e+01
     vertex 1.8748403214e+02 -1.6255885036e+01 1.7302197874e+01
   endloop
 endfacet
 facet normal  1.1624404399e-01 -6.3209930458e-01 7.6611865360e-01
   outer loop
     vertex 1.8748403214e+02 -1.6255885036e+01 1.7302197874e+01
     vertex 2.2511220183e+02 -1.4274183235e+01 1.3227870396e+01
     vertex 2.2537294244e+02 -8.1001292328e+00 1.8282316832e+01
   endloop
 endfacet
 facet normal  1.1732009036e-01 -6.3662681500e-01 7.6219570638e-01
   outer loop
     vertex 1.8748403214e+02 -1.6255885036e+01 1.7302197874e+01
     vertex 2.2537294244e+02 -8.1001292328e+00 1.8282316832e+01
     vertex 1.8765785922e+02 -9.1094027276e+00 2.3244567825e+01
   endloop
 endfacet
 facet normal  1.3284269550e-01 -2.5467224545e-01 9.5785952292e-01
   outer loop
     vertex 1.8765785922e+02 -9.1094027276e+00 2.3244567825e+01
     vertex 2.2537294244e+02 -8.1001292328e+00 1.8282316832e+01
     vertex 2.2550754056e+02 -5.4830781064e-16 2.0417283050e+01
   endloop
 endfacet
 facet normal  1.3193106744e-01 -2.5050444373e-01 9.5908379046e-01
   outer loop
     vertex 1.8765785922e+02 -9.1094027276e+00 2.3244567825e+01
     vertex 2.2550754056e+02 -5.4830781064e-16 2.0417283050e+01
     vertex 1.8774759130e+02 -3.6553854043e-16 2.5611522033e+01
   endloop
 endfacet
 facet normal  1.3193106744e-01 2.5050444373e-01 9.5908379046e-01
   outer loop
     vertex 1.8774759130e+02 -3.6553854043e-16 2.5611522033e+01
     vertex 2.2550754056e+02 -5.4830781064e-16 2.0417283050e+01
     vertex 1.8765785922e+02 9.1094027276e+00 2.3244567825e+01
   endloop
 endfacet
 facet normal  1.3284269550e-01 2.5467224545e-01 9.5785952292e-01
   outer loop
     vertex 2.2550754056e+02 -5.4830781064e-16 2.0417283050e+01
     vertex 2.2537294244e+02 8.1001292328e+00 1.8282316832e+01
     vertex 1.8765785922e+02 9.1094027276e+00 2.3244567825e+01
   endloop
 endfacet
 facet normal  1.1732009036e-01 6.3662681500e-01 7.6219570638e-01
   outer loop
     vertex 1.8765785922e+02 9.1094027276e+00 2.3244567825e+01
     vertex 2.2537294244e+02 8.1001292328e+00 1.8282316832e+01
     vertex 1.8748403214e+02 1.6255885036e+01 1.7302197874e+01
   endloop
 endfacet
 facet normal  1.1624404399e-01 6.3209930458e-01 7.6611865360e-01
   outer loop
     vertex 2.2537294244e+02 8.1001292328e+00 1.8282316832e+01
     vertex 2.2511220183e+02 1.4274183235e+01 1.3227870396e+01
     vertex 1.8748403214e+02 1.6255885036e+01 1.7302197874e+01
   endloop
 endfacet
 facet normal  9.6690378144e-02 8.8005090941e-01 4.6493157305e-01
   outer loop
     vertex 1.8748403214e+02 1.6255885036e+01 1.7302197874e+01
     vertex 2.2511220183e+02 1.4274183235e+01 1.3227870396e+01
     vertex 1.8734951091e+02 2.0489314159e+01 9.3168803427e+00
   endloop
 endfacet
 facet normal  9.7587012029e-02 8.8247450804e-01 4.6012554563e-01
   outer loop
     vertex 2.2511220183e+02 1.4274183235e+01 1.3227870396e+01
     vertex 2.2491041998e+02 1.7558479619e+01 6.9717157969e+00
     vertex 1.8734951091e+02 2.0489314159e+01 9.3168803427e+00
   endloop
 endfacet
 facet normal  8.5835028504e-02 9.8607652953e-01 1.4242691384e-01
   outer loop
     vertex 1.8734951091e+02 2.0489314159e+01 9.3168803427e+00
     vertex 2.2491041998e+02 1.7558479619e+01 6.9717157969e+00
     vertex 1.8729908467e+02 2.1839415102e+01 0.0000000000e+00
   endloop
 endfacet
 facet normal  8.8970041028e-02 9.8794777631e-01 1.2666302964e-01
   outer loop
     vertex 2.2491041998e+02 1.7558479619e+01 6.9717157969e+00
     vertex 2.2483478062e+02 1.8459122652e+01 0.0000000000e+00
     vertex 1.8729908467e+02 2.1839415102e+01 0.0000000000e+00
   endloop
 endfacet
 facet normal  1.0451265764e-01 9.8425877621e-01 -1.4251935251e-01
   outer loop
     vertex 2.2483478062e+02 1.8459122652e+01 -1.2789769244e-16
     vertex 2.6319490104e+02 1.4385886802e+01 -1.1368683772e-16
     vertex 2.6326213603e+02 1.3744336604e+01 -4.3813313372e+00
   endloop
 endfacet
 facet normal  1.0661195089e-01 9.8625258687e-01 -1.2625263091e-01
   outer loop
     vertex 2.2483478062e+02 1.8459122652e+01 -1.2789769244e-16
     vertex 2.6326213603e+02 1.3744336604e+01 -4.3813313372e+00
     vertex 2.2491041998e+02 1.7558479619e+01 -6.9717157969e+00
   endloop
 endfacet
 facet normal  1.1919063982e-01 8.5007901197e-01 -5.1299051140e-01
   outer loop
     vertex 2.2491041998e+02 1.7558479619e+01 -6.9717157969e+00
     vertex 2.6326213603e+02 1.3744336604e+01 -4.3813313372e+00
     vertex 2.6344149767e+02 1.1258516204e+01 -8.4589223927e+00
   endloop
 endfacet
 facet normal  1.2620879064e-01 8.7999815215e-01 -4.5790238411e-01
   outer loop
     vertex 2.2491041998e+02 1.7558479619e+01 -6.9717157969e+00
     vertex 2.6344149767e+02 1.1258516204e+01 -8.4589223927e+00
     vertex 2.2511220183e+02 1.4274183235e+01 -1.3227870396e+01
   endloop
 endfacet
 facet normal  1.4532613494e-01 5.8307820929e-01 -7.9931227712e-01
   outer loop
     vertex 2.2511220183e+02 1.4274183235e+01 -1.3227870396e+01
     vertex 2.6344149767e+02 1.1258516204e+01 -8.4589223927e+00
     vertex 2.6367326711e+02 6.4132901461e+00 -1.1951254060e+01
   endloop
 endfacet
 facet normal  1.5359925644e-01 6.2981767432e-01 -7.6140460041e-01
   outer loop
     vertex 2.2511220183e+02 1.4274183235e+01 -1.3227870396e+01
     vertex 2.6367326711e+02 6.4132901461e+00 -1.1951254060e+01
     vertex 2.2537294244e+02 8.1001292328e+00 -1.8282316832e+01
   endloop
 endfacet
 facet normal  1.6857452268e-01 2.3181778388e-01 -9.5804130672e-01
   outer loop
     vertex 2.2537294244e+02 8.1001292328e+00 -1.8282316832e+01
     vertex 2.6367326711e+02 6.4132901461e+00 -1.1951254060e+01
     vertex 2.6379290988e+02 -1.1368683772e-15 -1.3482029378e+01
   endloop
 endfacet
 facet normal  1.7241243816e-01 2.5372882535e-01 -9.5178549808e-01
   outer loop
     vertex 2.2537294244e+02 8.1001292328e+00 -1.8282316832e+01
     vertex 2.6379290988e+02 -1.1368683772e-15 -1.3482029378e+01
     vertex 2.2550754056e+02 -1.2789769244e-15 -2.0417283050e+01
   endloop
 endfacet
 facet normal  1.7241243816e-01 -2.5372882535e-01 -9.5178549808e-01
   outer loop
     vertex 2.2550754056e+02 -1.2789769244e-15 -2.0417283050e+01
     vertex 2.6379290988e+02 -1.1368683772e-15 -1.3482029378e+01
     vertex 2.2537294244e+02 -8.1001292328e+00 -1.8282316832e+01
   endloop
 endfacet
 facet normal  1.6857452268e-01 -2.3181778388e-01 -9.5804130672e-01
   outer loop
     vertex 2.6379290988e+02 -1.1368683772e-15 -1.3482029378e+01
     vertex 2.6367326711e+02 -6.4132901461e+00 -1.1951254060e+01
     vertex 2.2537294244e+02 -8.1001292328e+00 -1.8282316832e+01
   endloop
 endfacet
 facet normal  1.5359925644e-01 -6.2981767432e-01 -7.6140460041e-01
   outer loop
     vertex 2.2537294244e+02 -8.1001292328e+00 -1.8282316832e+01
     vertex 2.6367326711e+02 -6.4132901461e+00 -1.1951254060e+01
     vertex 2.2511220183e+02 -1.4274183235e+01 -1.3227870396e+01
   endloop
 endfacet
 facet normal  1.4532613494e-01 -5.8307820929e-01 -7.9931227712e-01
   outer loop
     vertex 2.6367326711e+02 -6.4132901461e+00 -1.1951254060e+01
     vertex 2.6344149767e+02 -1.1258516204e+01 -8.4589223927e+00
     vertex 2.2511220183e+02 -1.4274183235e+01 -1.3227870396e+01
   endloop
 endfacet
 facet normal  1.2620879064e-01 -8.7999815215e-01 -4.5790238411e-01
   outer loop
     vertex 2.2511220183e+02 -1.4274183235e+01 -1.3227870396e+01
     vertex 2.6344149767e+02 -1.1258516204e+01 -8.4589223927e+00
     vertex 2.2491041998e+02 -1.7558479619e+01 -6.9717157969e+00
   endloop
 endfacet
 facet normal  1.1919063982e-01 -8.5007901197e-01 -5.1299051140e-01
   outer loop
     vertex 2.6344149767e+02 -1.1258516204e+01 -8.4589223927e+00
     vertex 2.6326213603e+02 -1.3744336604e+01 -4.3813313372e+00
     vertex 2.2491041998e+02 -1.7558479619e+01 -6.9717157969e+00
   endloop
 endfacet
 facet normal  1.0661195089e-01 -9.8625258687e-01 -1.2625263091e-01
   outer loop
     vertex 2.2491041998e+02 -1.7558479619e+01 -6.9717157969e+00
     vertex 2.6326213603e+02 -1.3744336604e+01 -4.3813313372e+00
     vertex 2.2483478062e+02 -1.8459122652e+01 1.6370904632e-15
   endloop
 endfacet
 facet normal  1.0451265764e-01 -9.8425877621e-01 -1.4251935251e-01
   outer loop
     vertex 2.6326213603e+02 -1.3744336604e+01 -4.3813313372e+00
     vertex 2.6319490104e+02 -1.4385886802e+01 1.4551915228e-15
     vertex 2.2483478062e+02 -1.8459122652e+01 1.6370904632e-15
   endloop
 endfacet
 facet normal  1.0451265764e-01 -9.8425877621e-01 1.4251935251e-01
   outer loop
     vertex 2.2483478062e+02 -1.8459122652e+01 1.6370904632e-15
     vertex 2.6319490104e+02 -1.4385886802e+01 1.4551915228e-15
     vertex 2.6326213603e+02 -1.3744336604e+01 4.3813313372e+00
   endloop
 endfacet
 facet normal  1.0661195089e-01 -9.8625258687e-01 1.2625263091e-01
   outer loop
     vertex 2.2483478062e+02 -1.8459122652e+01 1.6370904632e-15
     vertex 2.6326213603e+02 -1.3744336604e+01 4.3813313372e+00
     vertex 2.2491041998e+02 -1.7558479619e+01 6.9717157969e+00
   endloop
 endfacet
 facet normal  1.1919063982e-01 -8.5007901197e-01 5.1299051140e-01
   outer loop
     vertex 2.2491041998e+02 -1.7558479619e+01 6.9717157969e+00
     vertex 2.6326213603e+02 -1.3744336604e+01 4.3813313372e+00
     vertex 2.6344149767e+02 -1.1258516204e+01 8.4589223927e+00
   endloop
 endfacet
 facet normal  1.2620879064e-01 -8.7999815215e-01 4.5790238411e-01
   outer loop
     vertex 2.2491041998e+02 -1.7558479619e+01 6.9717157969e+00
     vertex 2.6344149767e+02 -1.1258516204e+01 8.4589223927e+00
     vertex 2.2511220183e+02 -1.4274183235e+01 1.3227870396e+01
   endloop
 endfacet
 facet normal  1.4532613494e-01 -5.8307820929e-01 7.9931227712e-01
   outer loop
     vertex 2.2511220183e+02 -1.4274183235e+01 1.3227870396e+01
     vertex 2.6344149767e+02 -1.1258516204e+01 8.4589223927e+00
     vertex 2.6367326711e+02 -6.4132901461e+00 1.1951254060e+01
   endloop
 endfacet
 facet normal  1.5359925644e-01 -6.2981767432e-01 7.6140460041e-01
   outer loop
     vertex 2.2511220183e+02 -1.4274183235e+01 1.3227870396e+01
     vertex 2.6367326711e+02 -6.4132901461e+00 1.1951254060e+01
     vertex 2.2537294244e+02 -8.1001292328e+00 1.8282316832e+01
   endloop
 endfacet
 facet normal  1.6857452268e-01 -2.3181778388e-01 9.5804130672e-01
   outer loop
     vertex 2.2537294244e+02 -8.1001292328e+00 1.8282316832e+01
     vertex 2.6367326711e+02 -6.4132901461e+00 1.1951254060e+01
     vertex 2.6379290988e+02 -4.8738472057e-16 1.3482029378e+01
   endloop
 endfacet
 facet normal  1.7241243816e-01 -2.5372882535e-01 9.5178549808e-01
   outer loop
     vertex 2.2537294244e+02 -8.1001292328e+00 1.8282316832e+01
     vertex 2.6379290988e+02 -4.8738472057e-16 1.3482029378e+01
     vertex 2.2550754056e+02 -5.4830781064e-16 2.0417283050e+01
   endloop
 endfacet
 facet normal  1.7241243816e-01 2.5372882535e-01 9.5178549808e-01
   outer loop
     vertex 2.2550754056e+02 -5.4830781064e-16 2.0417283050e+01
     vertex 2.6379290988e+02 -4.8738472057e-16 1.3482029378e+01
     vertex 2.2537294244e+02 8.1001292328e+00 1.8282316832e+01
   endloop
 endfacet
 facet normal  1.6857452268e-01 2.3181778388e-01 9.5804130672e-01
   outer loop
     vertex 2.6379290988e+02 -4.8738472057e-16 1.3482029378e+01
     vertex 2.6367326711e+02 6.4132901461e+00 1.1951254060e+01
     vertex 2.2537294244e+02 8.1001292328e+00 1.8282316832e+01
   endloop
 endfacet
 facet normal  1.5359925644e-01 6.2981767432e-01 7.6140460041e-01
   outer loop
     vertex 2.2537294244e+02 8.1001292328e+00 1.8282316832e+01
     vertex 2.6367326711e+02 6.4132901461e+00 1.1951254060e+01
     vertex 2.2511220183e+02 1.4274183235e+01 1.3227870396e+01
   endloop
 endfacet
 facet normal  1.4532613494e-01 5.8307820929e-01 7.9931227712e-01
   outer loop
     vertex 2.6367326711e+02 6.4132901461e+00 1.1951254060e+01
     vertex 2.6344149767e+02 1.1258516204e+01 8.4589223927e+00
     vertex 2.2511220183e+02 1.4274183235e+01 1.3227870396e+01
   endloop
 endfacet
 facet normal  1.2620879064e-01 8.7999815215e-01 4.5790238411e-01
   outer loop
     vertex 2.2511220183e+02 1.4274183235e+01 1.3227870396e+01
     vertex 2.6344149767e+02 1.1258516204e+01 8.4589223927e+00
     vertex 2.2491041998e+02 1.7558479619e+01 6.9717157969e+00
   endloop
 endfacet
 facet normal  1.1919063982e-01 8.5007901197e-01 5.1299051140e-01
   outer loop
     vertex 2.6344149767e+02 1.1258516204e+01 8.4589223927e+00
     vertex 2.6326213603e+02 1.3744336604e+01 4.3813313372e+00
     vertex 2.2491041998e+02 1.7558479619e+01 6.9717157969e+00
   endloop
 endfacet
 facet normal  1.0661195089e-01 9.8625258687e-01 1.2625263091e-01
   outer loop
     vertex 2.2491041998e+02 1.7558479619e+01 6.9717157969e+00
     vertex 2.6326213603e+02 1.3744336604e+01 4.3813313372e+00
     vertex 2.2483478062e+02 1.8459122652e+01 0.0000000000e+00
   endloop
 endfacet
 facet normal  1.0451265764e-01 9.8425877621e-01 1.4251935251e-01
   outer loop
     vertex 2.6326213603e+02 1.3744336604e+01 4.3813313372e+00
     vertex 2.6319490104e+02 1.4385886802e+01 0.0000000000e+00
     vertex 2.2483478062e+02 1.8459122652e+01 0.0000000000e+00
   endloop
 endfacet
 facet normal  1.0981281708e-01 9.2151753604e-01 -3.7248701452e-01
   outer loop
     vertex 2.6319490104e+02 1.4385886802e+01 -1.1368683772e-16
     vertex 3.0000000000e+02 1.0000000000e+01 0.0000000000e+00
     vertex 3.0000000000e+02 9.2136305032e+00 -1.9454457548e+00
   endloop
 endfacet
 facet normal  1.3041150010e-01 9.8128376934e-01 -1.4168628961e-01
   outer loop
     vertex 2.6319490104e+02 1.4385886802e+01 -1.1368683772e-16
     vertex 3.0000000000e+02 9.2136305032e+00 -1.9454457548e+00
     vertex 2.6326213603e+02 1.3744336604e+01 -4.3813313372e+00
   endloop
 endfacet
 facet normal  1.2570400832e-01 5.9081432903e-01 -7.9695478598e-01
   outer loop
     vertex 2.6326213603e+02 1.3744336604e+01 -4.3813313372e+00
     vertex 3.0000000000e+02 9.2136305032e+00 -1.9454457548e+00
     vertex 3.0000000000e+02 7.0696813419e+00 -3.5348406709e+00
   endloop
 endfacet
 facet normal  1.6528592109e-01 8.4531480328e-01 -5.0805850810e-01
   outer loop
     vertex 2.6326213603e+02 1.3744336604e+01 -4.3813313372e+00
     vertex 3.0000000000e+02 7.0696813419e+00 -3.5348406709e+00
     vertex 2.6344149767e+02 1.1258516204e+01 -8.4589223927e+00
   endloop
 endfacet
 facet normal  1.6207061920e-01 3.1532194652e-01 -9.3504287840e-01
   outer loop
     vertex 2.6344149767e+02 1.1258516204e+01 -8.4589223927e+00
     vertex 3.0000000000e+02 7.0696813419e+00 -3.5348406709e+00
     vertex 3.0000000000e+02 3.8908915096e+00 -4.6068152516e+00
   endloop
 endfacet
 facet normal  1.9999377391e-01 5.7918507424e-01 -7.9028294944e-01
   outer loop
     vertex 2.6344149767e+02 1.1258516204e+01 -8.4589223927e+00
     vertex 3.0000000000e+02 3.8908915096e+00 -4.6068152516e+00
     vertex 2.6367326711e+02 6.4132901461e+00 -1.1951254060e+01
   endloop
 endfacet
 facet normal  2.0376720195e-01 9.8431169305e-02 -9.7405863906e-01
   outer loop
     vertex 2.6367326711e+02 6.4132901461e+00 -1.1951254060e+01
     vertex 3.0000000000e+02 3.8908915096e+00 -4.6068152516e+00
     vertex 3.0000000000e+02 0.0000000000e+00 -5.0000000000e+00
   endloop
 endfacet
 facet normal  2.2195856856e-01 2.3029059837e-01 -9.4747065081e-01
   outer loop
     vertex 2.6367326711e+02 6.4132901461e+00 -1.1951254060e+01
     vertex 3.0000000000e+02 0.0000000000e+00 -5.0000000000e+00
     vertex 2.6379290988e+02 -1.1368683772e-15 -1.3482029378e+01
   endloop
 endfacet
 facet normal  2.2195856856e-01 -2.3029059837e-01 -9.4747065081e-01
   outer loop
     vertex 2.6379290988e+02 -1.1368683772e-15 -1.3482029378e+01
     vertex 3.0000000000e+02 0.0000000000e+00 -5.0000000000e+00
     vertex 2.6367326711e+02 -6.4132901461e+00 -1.1951254060e+01
   endloop
 endfacet
 facet normal  2.0376720195e-01 -9.8431169305e-02 -9.7405863906e-01
   outer loop
     vertex 3.0000000000e+02 0.0000000000e+00 -5.0000000000e+00
     vertex 3.0000000000e+02 -3.8908915096e+00 -4.6068152516e+00
     vertex 2.6367326711e+02 -6.4132901461e+00 -1.1951254060e+01
   endloop
 endfacet
 facet normal  1.9999377391e-01 -5.7918507424e-01 -7.9028294944e-01
   outer loop
     vertex 2.6367326711e+02 -6.4132901461e+00 -1.1951254060e+01
     vertex 3.0000000000e+02 -3.8908915096e+00 -4.6068152516e+00
     vertex 2.6344149767e+02 -1.1258516204e+01 -8.4589223927e+00
   endloop
 endfacet
 facet normal  1.6207061920e-01 -3.1532194652e-01 -9.3504287840e-01
   outer loop
     vertex 3.0000000000e+02 -3.8908915096e+00 -4.6068152516e+00
     vertex 3.0000000000e+02 -7.0696813419e+00 -3.5348406709e+00
     vertex 2.6344149767e+02 -1.1258516204e+01 -8.4589223927e+00
   endloop
 endfacet
 facet normal  1.6528592109e-01 -8.4531480328e-01 -5.0805850810e-01
   outer loop
     vertex 2.6344149767e+02 -1.1258516204e+01 -8.4589223927e+00
     vertex 3.0000000000e+02 -7.0696813419e+00 -3.5348406709e+00
     vertex 2.6326213603e+02 -1.3744336604e+01 -4.3813313372e+00
   endloop
 endfacet
 facet normal  1.2570400832e-01 -5.9081432903e-01 -7.9695478598e-01
   outer loop
     vertex 3.0000000000e+02 -7.0696813419e+00 -3.5348406709e+00
     vertex 3.0000000000e+02 -9.2136305032e+00 -1.9454457548e+00
     vertex 2.6326213603e+02 -1.3744336604e+01 -4.3813313372e+00
   endloop
 endfacet
 facet normal  1.3041150010e-01 -9.8128376934e-01 -1.4168628961e-01
   outer loop
     vertex 2.6326213603e+02 -1.3744336604e+01 -4.3813313372e+00
     vertex 3.0000000000e+02 -9.2136305032e+00 -1.9454457548e+00
     vertex 2.6319490104e+02 -1.4385886802e+01 1.4551915228e-15
   endloop
 endfacet
 facet normal  1.0981281708e-01 -9.2151753604e-01 -3.7248701452e-01
   outer loop
     vertex 3.0000000000e+02 -9.2136305032e+00 -1.9454457548e+00
     vertex 3.0000000000e+02 -1.0000000000e+01 0.0000000000e+00
     vertex 2.6319490104e+02 -1.4385886802e+01 1.4551915228e-15
   endloop
 endfacet
 facet normal  1.0981281708e-01 -9.2151753604e-01 3.7248701452e-01
   outer loop
     vertex 2.6319490104e+02 -1.4385886802e+01 1.4551915228e-15
     vertex 3.0000000000e+02 -1.0000000000e+01 0.0000000000e+00
     vertex 3.0000000000e+02 -9.2136305032e+00 1.9454457548e+00
   endloop
 endfacet
 facet normal  1.3041150010e-01 -9.8128376934e-01 1.4168628961e-01
   outer loop
     vertex 2.6319490104e+02 -1.4385886802e+01 1.4551915228e-15
     vertex 3.0000000000e+02 -9.2136305032e+00 1.9454457548e+00
     vertex 2.6326213603e+02 -1.3744336604e+01 4.3813313372e+00
   endloop
 endfacet
 facet normal  1.2570400832e-01 -5.9081432903e-01 7.9695478598e-01
   outer loop
     vertex 2.6326213603e+02 -1.3744336604e+01 4.3813313372e+00
     vertex 3.0000000000e+02 -9.2136305032e+00 1.9454457548e+00
     vertex 3.0000000000e+02 -7.0696813419e+00 3.5348406709e+00
   endloop
 endfacet
 facet normal  1.6528592109e-01 -8.4531480328e-01 5.0805850810e-01
   outer loop
     vertex 2.6326213603e+02 -1.3744336604e+01 4.3813313372e+00
     vertex 3.0000000000e+02 -7.0696813419e+00 3.5348406709e+00
     vertex 2.6344149767e+02 -1.1258516204e+01 8.4589223927e+00
   endloop
 endfacet
 facet normal  1.6207061920e-01 -3.1532194652e-01 9.3504287840e-01
   outer loop
     vertex 2.6344149767e+02 -1.1258516204e+01 8.4589223927e+00
     vertex 3.0000000000e+02 -7.0696813419e+00 3.5348406709e+00
     vertex 3.0000000000e+02 -3.8908915096e+00 4.6068152516e+00
   endloop
 endfacet
 facet normal  1.9999377391e-01 -5.7918507424e-01 7.9028294944e-01
   outer loop
     vertex 2.6344149767e+02 -1.1258516204e+01 8.4589223927e+00
     vertex 3.0000000000e+02 -3.8908915096e+00 4.6068152516e+00
     vertex 2.6367326711e+02 -6.4132901461e+00 1.1951254060e+01
   endloop
 endfacet
 facet normal  2.0376720195e-01 -9.8431169305e-02 9.7405863906e-01
   outer loop
     vertex 2.6367326711e+02 -6.4132901461e+00 1.1951254060e+01
     vertex 3.0000000000e+02 -3.8908915096e+00 4.6068152516e+00
     vertex 3.0000000000e+02 0.0000000000e+00 5.0000000000e+00
   endloop
 endfacet
 facet normal  2.2195856856e-01 -2.3029059837e-01 9.4747065081e-01
   outer loop
     vertex 2.6367326711e+02 -6.4132901461e+00 1.1951254060e+01
     vertex 3.0000000000e+02 0.0000000000e+00 5.0000000000e+00
     vertex 2.6379290988e+02 -4.8738472057e-16 1.3482029378e+01
   endloop
 endfacet
 facet normal  2.2195856856e-01 2.3029059837e-01 9.4747065081e-01
   outer loop
     vertex 2.6379290988e+02 -4.8738472057e-16 1.3482029378e+01
     vertex 3.0000000000e+02 0.0000000000e+00 5.0000000000e+00
     vertex 2.6367326711e+02 6.4132901461e+00 1.1951254060e+01
   endloop
 endfacet
 facet normal  2.0376720195e-01 9.8431169305e-02 9.7405863906e-01
   outer loop
     vertex 3.0000000000e+02 0.0000000000e+00 5.0000000000e+00
     vertex 3.0000000000e+02 3.8908915096e+00 4.6068152516e+00
     vertex 2.6367326711e+02 6.4132901461e+00 1.1951254060e+01
   endloop
 endfacet
 facet normal  1.9999377391e-01 5.7918507424e-01 7.9028294944e-01
   outer loop
     vertex 2.6367326711e+02 6.4132901461e+00 1.1951254060e+01
     vertex 3.0000000000e+02 3.8908915096e+00 4.6068152516e+00
     vertex 2.6344149767e+02 1.1258516204e+01 8.4589223927e+00
   endloop
 endfacet
 facet normal  1.6207061920e-01 3.1532194652e-01 9.3504287840e-01
   outer loop
     vertex 3.0000000000e+02 3.8908915096e+00 4.6068152516e+00
     vertex 3.0000000000e+02 7.0696813419e+00 3.5348406709e+00
     vertex 2.6344149767e+02 1.1258516204e+01 8.4589223927e+00
   endloop
 endfacet
 facet normal  1.6528592109e-01 8.4531480328e-01 5.0805850810e-01
   outer loop
     vertex 2.6344149767e+02 1.1258516204e+01 8.4589223927e+00
     vertex 3.0000000000e+02 7.0696813419e+00 3.5348406709e+00
     vertex 2.6326213603e+02 1.3744336604e+01 4.3813313372e+00
   endloop
 endfacet
 facet normal  1.2570400832e-01 5.9081432903e-01 7.9695478598e-01
   outer loop
     vertex 3.0000000000e+02 7.0696813419e+00 3.5348406709e+00
     vertex 3.0000000000e+02 9.2136305032e+00 1.9454457548e+00
     vertex 2.6326213603e+02 1.3744336604e+01 4.3813313372e+00
   endloop
 endfacet
 facet normal  1.3041150010e-01 9.8128376934e-01 1.4168628961e-01
   outer loop
     vertex 2.6326213603e+02 1.3744336604e+01 4.3813313372e+00
     vertex 3.0000000000e+02 9.2136305032e+00 1.9454457548e+00
     vertex 2.6319490104e+02 1.4385886802e+01 0.0000000000e+00
   endloop
 endfacet
 facet normal  1.0981281708e-01 9.2151753604e-01 3.7248701452e-01
   outer loop
     vertex 3.0000000000e+02 9.2136305032e+00 1.9454457548e+00
     vertex 3.0000000000e+02 1.0000000000e+01 0.0000000000e+00
     vertex 2.6319490104e+02 1.4385886802e+01 0.0000000000e+00
   endloop
 endfacet
endsolid
