  0
SECTION
  2
HEADER
  9
$ANGBASE
 50
0.0
  9
$INSBASE
 10
0.0
 20
0.0
 30
0.0
  9
$EXTMAX
 10
100.0
 20
100.0
 30
0.0
  9
$EXTMIN
 10
0.0
 20
0.0
 30
0.0
  9
$AUNITS
 70
0
  9
$ACADVER
  1
AC1009
  9
$ANGDIR
 70
0
  9
$UNITMODE
 70
0
  0
ENDSEC
  0
SECTION
  2
TABLES
  0
TABLE
  2
LTYPE
 70
19
  0
LTYPE
  2
CENTER2
 70
0
  3
Center (.5x) ____ _ ____ _ ____ _ ____ _ ____
 72
65
 73
4
 40
1.0
 49
0.625
 49
-0.125
 49
0.125
 49
-0.125
  0
LTYPE
  2
CENTER
 70
0
  3
Center ____ _ ____ _ ____ _ ____ _ ____ _ ____
 72
65
 73
4
 40
2.0
 49
1.25
 49
-0.25
 49
0.25
 49
-0.25
  0
LTYPE
  2
DOT
 70
0
  3
Dot .  .  .  .  .  .  .  .  .  .  .  .  .  .  .  .
 72
65
 73
2
 40
0.2
 49
0.0
 49
-0.2
  0
LTYPE
  2
CENTERX2
 70
0
  3
Center (2x) ________  __  ________  __  ________
 72
65
 73
4
 40
3.5
 49
2.5
 49
-0.25
 49
0.5
 49
-0.25
  0
LTYPE
  2
DASHDOT
 70
0
  3
Dash dot __ . __ . __ . __ . __ . __ . __ . __
 72
65
 73
4
 40
1.4
 49
1.0
 49
-0.2
 49
0.0
 49
-0.2
  0
LTYPE
  2
PHANTOM2
 70
0
  3
Phantom (.5x) ___ _ _ ___ _ _ ___ _ _ ___ _ _ ___
 72
65
 73
6
 40
1.25
 49
0.625
 49
-0.125
 49
0.125
 49
-0.125
 49
0.125
 49
-0.125
  0
LTYPE
  2
DOT2
 70
0
  3
Dot (.5) . . . . . . . . . . . . . . . . . . . 
 72
65
 73
2
 40
0.1
 49
0.0
 49
-0.1
  0
LTYPE
  2
DASHED2
 70
0
  3
Dashed (.5x) _ _ _ _ _ _ _ _ _ _ _ _ _ _
 72
65
 73
2
 40
0.3
 49
0.25
 49
-0.05
  0
LTYPE
  2
DIVIDE2
 70
0
  3
Divide(.5x) _ . _ . _ . _ . _ . _ . _ . _
 72
65
 73
6
 40
0.8
 49
0.5
 49
-0.1
 49
0.0
 49
-0.1
 49
0.0
 49
-0.1
  0
LTYPE
  2
DASHED
 70
0
  3
Dashed __ __ __ __ __ __ __ __ __ __ __ __ __ _
 72
65
 73
2
 40
0.6
 49
0.5
 49
-0.1
  0
LTYPE
  2
PHANTOMX2
 70
0
  3
Phantom (2x)____________    ____    ____    ____________
 72
65
 73
6
 40
4.25
 49
2.5
 49
-0.25
 49
0.5
 49
-0.25
 49
0.5
 49
-0.25
  0
LTYPE
  2
PHANTOM
 70
0
  3
Phantom ______  __  __  ______  __  __  ______
 72
65
 73
6
 40
2.5
 49
1.25
 49
-0.25
 49
0.25
 49
-0.25
 49
0.25
 49
-0.25
  0
LTYPE
  2
CONTINUOUS
 70
0
  3
Solid
 72
65
 73
0
 40
0.0
  0
LTYPE
  2
DIVIDEX2
 70
0
  3
Divide (2x) ____  . .  ____  . .  ____  . .  ____
 72
65
 73
6
 40
2.6
 49
2.0
 49
-0.2
 49
0.0
 49
-0.2
 49
0.0
 49
-0.2
  0
LTYPE
  2
DOTX2
 70
0
  3
Dot (2x) .    .    .    .    .    .    .    . 
 72
65
 73
2
 40
0.4
 49
0.0
 49
-0.4
  0
LTYPE
  2
DASHEDX2
 70
0
  3
Dashed (2x) ____  ____  ____  ____  ____  ____
 72
65
 73
2
 40
1.2
 49
1.0
 49
-0.2
  0
LTYPE
  2
DASHDOT2
 70
0
  3
Dash dot (.5x) _ . _ . _ . _ . _ . _ . _ . _
 72
65
 73
4
 40
0.7
 49
0.5
 49
-0.1
 49
0.0
 49
-0.1
  0
LTYPE
  2
DIVIDE
 70
0
  3
Divide __ . . __ . . __ . . __ . . __ . . __
 72
65
 73
6
 40
1.6
 49
1.0
 49
-0.2
 49
0.0
 49
-0.2
 49
0.0
 49
-0.2
  0
LTYPE
  2
DASHDOTX2
 70
0
  3
Dash dot (2x) ____  .  ____  .  ____  .  ____
 72
65
 73
4
 40
2.4
 49
2.0
 49
-0.2
 49
0.0
 49
-0.2
  0
ENDTAB
  0
TABLE
  2
LAYER
 70
8
  0
LAYER
  2
~slices_z
 70
0
 62
1
  6
CONTINUOUS
  0
LAYER
  2
~slices_y
 70
0
 62
1
  6
CONTINUOUS
  0
LAYER
  2
DIMENSIONS
 70
0
 62
1
  6
CONTINUOUS
  0
LAYER
  2
~slices_x
 70
0
 62
1
  6
CONTINUOUS
  0
LAYER
  2
TABLECONTENT
 70
0
 62
1
  6
CONTINUOUS
  0
LAYER
  2
VIEWPORTS
 70
0
 62
7
  6
CONTINUOUS
  0
LAYER
  2
TABLEGRID
 70
0
 62
1
  6
CONTINUOUS
  0
LAYER
  2
TABLEBACKGROUND
 70
0
 62
1
  6
CONTINUOUS
  0
ENDTAB
  0
TABLE
  2
STYLE
 70
12
  0
STYLE
  2
STANDARD
 70
0
 40
0.0
 41
1.0
 42
1.0
 50
0.0
 71
0
  3
arial.ttf
  4

  0
STYLE
  2
ARIAL_ITALIC
 70
0
 40
0.0
 41
1.0
 42
1.0
 50
0.0
 71
0
  3
ariali.ttf
  4

  0
STYLE
  2
ARIAL_BLACK
 70
0
 40
0.0
 41
1.0
 42
1.0
 50
0.0
 71
0
  3
ariblk.ttf
  4

  0
STYLE
  2
TIMES_BOLD_ITALIC
 70
0
 40
0.0
 41
1.0
 42
1.0
 50
0.0
 71
0
  3
timesbi.ttf
  4

  0
STYLE
  2
TIMES_ITALIC
 70
0
 40
0.0
 41
1.0
 42
1.0
 50
0.0
 71
0
  3
timesi.ttf
  4

  0
STYLE
  2
TIMES
 70
0
 40
0.0
 41
1.0
 42
1.0
 50
0.0
 71
0
  3
times.ttf
  4

  0
STYLE
  2
ISOCPEUR_ITALIC
 70
0
 40
0.0
 41
1.0
 42
1.0
 50
0.0
 71
0
  3
isocpeui.ttf
  4

  0
STYLE
  2
ARIAL_BOLD_ITALIC
 70
0
 40
0.0
 41
1.0
 42
1.0
 50
0.0
 71
0
  3
arialbi.ttf
  4

  0
STYLE
  2
ISOCPEUR
 70
0
 40
0.0
 41
1.0
 42
1.0
 50
0.0
 71
0
  3
isocpeur.ttf
  4

  0
STYLE
  2
ARIAL_BOLD
 70
0
 40
0.0
 41
1.0
 42
1.0
 50
0.0
 71
0
  3
arialbd.ttf
  4

  0
STYLE
  2
ARIAL
 70
0
 40
0.0
 41
1.0
 42
1.0
 50
0.0
 71
0
  3
arial.ttf
  4

  0
STYLE
  2
TIMES_BOLD
 70
0
 40
0.0
 41
1.0
 42
1.0
 50
0.0
 71
0
  3
timesbd.ttf
  4

  0
ENDTAB
  0
TABLE
  2
VIEW
 70
0
  0
ENDTAB
  0
TABLE
  2
APPID
 70
1
  0
APPID
  2
DXFWRITE
 70
0
  0
ENDTAB
  0
TABLE
  2
VPORT
 70
0
  0
ENDTAB
  0
TABLE
  2
UCS
 70
0
  0
ENDTAB
  0
ENDSEC
  0
SECTION
  2
BLOCKS
  0
ENDSEC
  0
SECTION
  2
ENTITIES
  0
VIEWPORT
  8
VIEWPORTS
 67
1
 10
0.0
 20
0.0
 30
0.0
 40
1.0
 41
1.0
 68
1
 69
1
1001
ACAD
1000
MVIEW
1002
{
1070
16
1010
0.0
1020
0.0
1030
0.0
1010
0.0
1020
0.0
1030
0.0
1040
0.0
1040
1.0
1040
0.0
1040
0.0
1040
50.0
1040
0.0
1040
0.0
1070
0
1070
100
1070
1
1070
3
1070
0
1070
0
1070
0
1070
0
1040
0.0
1040
0.0
1040
0.0
1040
0.1
1040
0.1
1040
0.1
1040
0.1
1070
0
1002
{
1002
}
1002
}
  0
BLOCK
  8
0
  2
slices_x_0
  3
slices_x_0
 70
0
 10
0.0
 20
0.0
 30
0.0
  0
LINE
 39
0.0
 62
0
  8
0
 10
0.5768022301083912
 20
10.442692886305716
 30
0.0
 11
1.0
 21
10.579396011139766
 31
0.0
  0
LINE
 39
0.0
 62
0
  8
0
 10
0.5768022301083908
 20
10.442692886305718
 30
0.0
 11
-3.0972877426054444
 21
9.700140675205278
 31
0.0
  0
LINE
 39
0.0
 62
0
  8
0
 10
-3.385298636030738
 20
9.407855882034513
 30
0.0
 11
-3.0972877426054444
 21
9.700140675205278
 31
0.0
  0
LINE
 39
0.0
 62
0
  8
0
 10
-3.385298636030738
 20
9.407855882034513
 30
0.0
 11
-6.396398077806789
 21
7.377004935905103
 31
0.0
  0
LINE
 39
0.0
 62
0
  8
0
 10
-6.52160264822342
 20
7.053595851874346
 30
0.0
 11
-6.396398077806789
 21
7.377004935905103
 31
0.0
  0
LINE
 39
0.0
 62
0
  8
0
 10
-6.5216026482234195
 20
7.053595851874346
 30
0.0
 11
-8.557088805746542
 21
4.0356238808923885
 31
0.0
  0
LINE
 39
0.0
 62
0
  8
0
 10
-8.58309718783591
 20
3.6971254019561357
 30
0.0
 11
-8.557088805746542
 21
4.035623880892389
 31
0.0
  0
LINE
 39
0.0
 62
0
  8
0
 10
-8.58309718783591
 20
3.697125401956136
 30
0.0
 11
-9.33030497597571
 21
0.0
 31
0.0
  0
LINE
 39
0.0
 62
0
  8
0
 10
-9.33030497597571
 20
0.0
 30
0.0
 11
-8.58309718783591
 21
-3.6971254019561357
 31
0.0
  0
LINE
 39
0.0
 62
0
  8
0
 10
-8.58309718783591
 20
-3.697125401956136
 30
0.0
 11
-8.557088805746542
 21
-4.0356238808923885
 31
0.0
  0
LINE
 39
0.0
 62
0
  8
0
 10
-8.557088805746542
 20
-4.035623880892389
 30
0.0
 11
-6.52160264822342
 21
-7.053595851874346
 31
0.0
  0
LINE
 39
0.0
 62
0
  8
0
 10
-6.5216026482234195
 20
-7.053595851874346
 30
0.0
 11
-6.396398077806789
 21
-7.377004935905103
 31
0.0
  0
LINE
 39
0.0
 62
0
  8
0
 10
-6.396398077806789
 20
-7.377004935905103
 30
0.0
 11
-3.385298636030738
 21
-9.407855882034513
 31
0.0
  0
LINE
 39
0.0
 62
0
  8
0
 10
-3.385298636030738
 20
-9.407855882034513
 30
0.0
 11
-3.0972877426054444
 21
-9.700140675205278
 31
0.0
  0
LINE
 39
0.0
 62
0
  8
0
 10
-3.0972877426054444
 20
-9.700140675205278
 30
0.0
 11
0.5768022301083912
 21
-10.442692886305716
 31
0.0
  0
LINE
 39
0.0
 62
0
  8
0
 10
0.5768022301083908
 20
-10.442692886305718
 30
0.0
 11
1.0
 21
-10.579396011139766
 31
0.0
  0
LINE
 39
0.0
 62
0
  8
0
 10
1.4231977698916087
 20
-10.442692886305716
 30
0.0
 11
1.0
 21
-10.579396011139766
 31
0.0
  0
LINE
 39
0.0
 62
0
  8
0
 10
1.4231977698916092
 20
-10.442692886305718
 30
0.0
 11
5.097287742605444
 21
-9.700140675205278
 31
0.0
  0
LINE
 39
0.0
 62
0
  8
0
 10
5.385298636030738
 20
-9.407855882034513
 30
0.0
 11
5.097287742605444
 21
-9.700140675205278
 31
0.0
  0
LINE
 39
0.0
 62
0
  8
0
 10
5.385298636030738
 20
-9.407855882034513
 30
0.0
 11
8.39639807780679
 21
-7.377004935905103
 31
0.0
  0
LINE
 39
0.0
 62
0
  8
0
 10
8.521602648223421
 20
-7.053595851874346
 30
0.0
 11
8.39639807780679
 21
-7.377004935905103
 31
0.0
  0
LINE
 39
0.0
 62
0
  8
0
 10
8.52160264822342
 20
-7.053595851874346
 30
0.0
 11
10.557088805746542
 21
-4.0356238808923885
 31
0.0
  0
LINE
 39
0.0
 62
0
  8
0
 10
10.58309718783591
 20
-3.6971254019561357
 30
0.0
 11
10.557088805746542
 21
-4.035623880892389
 31
0.0
  0
LINE
 39
0.0
 62
0
  8
0
 10
10.58309718783591
 20
-3.697125401956136
 30
0.0
 11
11.33030497597571
 21
0.0
 31
0.0
  0
LINE
 39
0.0
 62
0
  8
0
 10
11.33030497597571
 20
0.0
 30
0.0
 11
10.58309718783591
 21
3.6971254019561357
 31
0.0
  0
LINE
 39
0.0
 62
0
  8
0
 10
10.58309718783591
 20
3.697125401956136
 30
0.0
 11
10.557088805746542
 21
4.0356238808923885
 31
0.0
  0
LINE
 39
0.0
 62
0
  8
0
 10
10.557088805746542
 20
4.035623880892389
 30
0.0
 11
8.521602648223421
 21
7.053595851874346
 31
0.0
  0
LINE
 39
0.0
 62
0
  8
0
 10
8.52160264822342
 20
7.053595851874346
 30
0.0
 11
8.39639807780679
 21
7.377004935905103
 31
0.0
  0
LINE
 39
0.0
 62
0
  8
0
 10
8.39639807780679
 20
7.377004935905103
 30
0.0
 11
5.385298636030738
 21
9.407855882034513
 31
0.0
  0
LINE
 39
0.0
 62
0
  8
0
 10
5.385298636030738
 20
9.407855882034513
 30
0.0
 11
5.097287742605444
 21
9.700140675205278
 31
0.0
  0
LINE
 39
0.0
 62
0
  8
0
 10
5.097287742605444
 20
9.700140675205278
 30
0.0
 11
1.4231977698916087
 21
10.442692886305716
 31
0.0
  0
LINE
 39
0.0
 62
0
  8
0
 10
1.4231977698916092
 20
10.442692886305718
 30
0.0
 11
1.0
 21
10.579396011139766
 31
0.0
  0
ENDBLK
  0
BLOCK
  8
0
  2
slices_y_0
  3
slices_y_0
 70
0
 10
0.0
 20
0.0
 30
0.0
  0
ENDBLK
  0
BLOCK
  8
0
  2
slices_z_0
  3
slices_z_0
 70
0
 10
0.0
 20
0.0
 30
0.0
  0
ENDBLK
  0
INSERT
  8
~slices_x
  2
slices_x_0
 10
0.0
 20
0.0
 30
0.0
  0
INSERT
  8
~slices_x
  2
slices_x_0
 10
0.0
 20
0.0
 30
0.0
  0
INSERT
  8
~slices_x
  2
slices_x_0
 10
0.0
 20
0.0
 30
0.0
  0
INSERT
  8
~slices_x
  2
slices_x_0
 10
0.0
 20
0.0
 30
0.0
  0
INSERT
  8
~slices_x
  2
slices_x_0
 10
0.0
 20
0.0
 30
0.0
  0
INSERT
  8
~slices_x
  2
slices_x_0
 10
0.0
 20
0.0
 30
0.0
  0
INSERT
  8
~slices_x
  2
slices_x_0
 10
0.0
 20
0.0
 30
0.0
  0
INSERT
  8
~slices_x
  2
slices_x_0
 10
0.0
 20
0.0
 30
0.0
  0
INSERT
  8
~slices_x
  2
slices_x_0
 10
0.0
 20
0.0
 30
0.0
  0
INSERT
  8
~slices_x
  2
slices_x_0
 10
0.0
 20
0.0
 30
0.0
  0
INSERT
  8
~slices_x
  2
slices_x_0
 10
0.0
 20
0.0
 30
0.0
  0
INSERT
  8
~slices_x
  2
slices_x_0
 10
0.0
 20
0.0
 30
0.0
  0
INSERT
  8
~slices_x
  2
slices_x_0
 10
0.0
 20
0.0
 30
0.0
  0
INSERT
  8
~slices_x
  2
slices_x_0
 10
0.0
 20
0.0
 30
0.0
  0
INSERT
  8
~slices_x
  2
slices_x_0
 10
0.0
 20
0.0
 30
0.0
  0
INSERT
  8
~slices_x
  2
slices_x_0
 10
0.0
 20
0.0
 30
0.0
  0
INSERT
  8
~slices_x
  2
slices_x_0
 10
0.0
 20
0.0
 30
0.0
  0
INSERT
  8
~slices_x
  2
slices_x_0
 10
0.0
 20
0.0
 30
0.0
  0
INSERT
  8
~slices_x
  2
slices_x_0
 10
0.0
 20
0.0
 30
0.0
  0
INSERT
  8
~slices_x
  2
slices_x_0
 10
0.0
 20
0.0
 30
0.0
  0
INSERT
  8
~slices_x
  2
slices_x_0
 10
0.0
 20
0.0
 30
0.0
  0
INSERT
  8
~slices_x
  2
slices_x_0
 10
0.0
 20
0.0
 30
0.0
  0
INSERT
  8
~slices_x
  2
slices_x_0
 10
0.0
 20
0.0
 30
0.0
  0
INSERT
  8
~slices_x
  2
slices_x_0
 10
0.0
 20
0.0
 30
0.0
  0
INSERT
  8
~slices_x
  2
slices_x_0
 10
0.0
 20
0.0
 30
0.0
  0
INSERT
  8
~slices_x
  2
slices_x_0
 10
0.0
 20
0.0
 30
0.0
  0
INSERT
  8
~slices_x
  2
slices_x_0
 10
0.0
 20
0.0
 30
0.0
  0
INSERT
  8
~slices_x
  2
slices_x_0
 10
0.0
 20
0.0
 30
0.0
  0
INSERT
  8
~slices_x
  2
slices_x_0
 10
0.0
 20
0.0
 30
0.0
  0
INSERT
  8
~slices_x
  2
slices_x_0
 10
0.0
 20
0.0
 30
0.0
  0
INSERT
  8
~slices_x
  2
slices_x_0
 10
0.0
 20
0.0
 30
0.0
  0
INSERT
  8
~slices_x
  2
slices_x_0
 10
0.0
 20
0.0
 30
0.0
  0
BLOCK
  8
0
  2
slices_x_1
  3
slices_x_1
 70
0
 10
0.0
 20
0.0
 30
0.0
  0
LINE
 39
0.0
 62
1
  8
0
 10
27.35310498150759
 20
21.59319762806617
 30
0.0
 11
34.111111111111114
 21
23.452706045992386
 31
0.0
  0
LINE
 39
0.0
 62
1
  8
0
 10
27.35310498150759
 20
21.59319762806617
 30
0.0
 11
24.96517806049387
 21
20.881417369685437
 31
0.0
  0
LINE
 39
0.0
 62
1
  8
0
 10
20.20773829867106
 20
16.763212420977904
 30
0.0
 11
24.96517806049387
 21
20.88141736968544
 31
0.0
  0
LINE
 39
0.0
 62
1
  8
0
 10
20.20773829867106
 20
16.763212420977904
 30
0.0
 11
18.26234189405515
 21
14.927867586774322
 31
0.0
  0
LINE
 39
0.0
 62
1
  8
0
 10
16.033123703521444
 20
10.211135159286867
 30
0.0
 11
18.26234189405515
 21
14.927867586774322
 31
0.0
  0
LINE
 39
0.0
 62
1
  8
0
 10
16.033123703521444
 20
10.211135159286867
 30
0.0
 11
15.027578673697562
 21
7.780382952376654
 31
0.0
  0
LINE
 39
0.0
 62
1
  8
0
 10
14.49740539618126
 20
2.7931597290141936
 30
0.0
 11
15.027578673697562
 21
7.780382952376654
 31
0.0
  0
LINE
 39
0.0
 62
1
  8
0
 10
14.49740539618126
 20
2.793159729014193
 30
0.0
 11
14.266481809984999
 21
0.0
 31
0.0
  0
LINE
 39
0.0
 62
1
  8
0
 10
14.266481809984999
 20
0.0
 30
0.0
 11
14.49740539618126
 21
-2.7931597290141936
 31
0.0
  0
LINE
 39
0.0
 62
1
  8
0
 10
14.49740539618126
 20
-2.793159729014193
 30
0.0
 11
15.027578673697562
 21
-7.780382952376654
 31
0.0
  0
LINE
 39
0.0
 62
1
  8
0
 10
15.027578673697562
 20
-7.780382952376654
 30
0.0
 11
16.033123703521444
 21
-10.211135159286867
 31
0.0
  0
LINE
 39
0.0
 62
1
  8
0
 10
16.033123703521444
 20
-10.211135159286867
 30
0.0
 11
18.26234189405515
 21
-14.927867586774322
 31
0.0
  0
LINE
 39
0.0
 62
1
  8
0
 10
18.26234189405515
 20
-14.927867586774322
 30
0.0
 11
20.20773829867106
 21
-16.763212420977904
 31
0.0
  0
LINE
 39
0.0
 62
1
  8
0
 10
20.20773829867106
 20
-16.763212420977904
 30
0.0
 11
24.96517806049387
 21
-20.881417369685437
 31
0.0
  0
LINE
 39
0.0
 62
1
  8
0
 10
24.96517806049387
 20
-20.88141736968544
 30
0.0
 11
27.35310498150759
 21
-21.59319762806617
 31
0.0
  0
LINE
 39
0.0
 62
1
  8
0
 10
27.35310498150759
 20
-21.59319762806617
 30
0.0
 11
34.111111111111114
 21
-23.452706045992386
 31
0.0
  0
LINE
 39
0.0
 62
1
  8
0
 10
40.86911724071464
 20
-21.59319762806617
 30
0.0
 11
34.111111111111114
 21
-23.452706045992386
 31
0.0
  0
LINE
 39
0.0
 62
1
  8
0
 10
40.86911724071464
 20
-21.59319762806617
 30
0.0
 11
43.25704416172836
 21
-20.881417369685437
 31
0.0
  0
LINE
 39
0.0
 62
1
  8
0
 10
48.01448392355117
 20
-16.763212420977904
 30
0.0
 11
43.25704416172836
 21
-20.88141736968544
 31
0.0
  0
LINE
 39
0.0
 62
1
  8
0
 10
48.01448392355117
 20
-16.763212420977904
 30
0.0
 11
49.959880328167074
 21
-14.927867586774322
 31
0.0
  0
LINE
 39
0.0
 62
1
  8
0
 10
52.18909851870079
 20
-10.211135159286867
 30
0.0
 11
49.959880328167074
 21
-14.927867586774322
 31
0.0
  0
LINE
 39
0.0
 62
1
  8
0
 10
52.18909851870079
 20
-10.211135159286867
 30
0.0
 11
53.19464354852467
 21
-7.780382952376654
 31
0.0
  0
LINE
 39
0.0
 62
1
  8
0
 10
53.724816826040964
 20
-2.7931597290141936
 30
0.0
 11
53.19464354852467
 21
-7.780382952376654
 31
0.0
  0
LINE
 39
0.0
 62
1
  8
0
 10
53.724816826040964
 20
-2.793159729014193
 30
0.0
 11
53.95574041223723
 21
0.0
 31
0.0
  0
LINE
 39
0.0
 62
1
  8
0
 10
53.95574041223723
 20
0.0
 30
0.0
 11
53.724816826040964
 21
2.7931597290141936
 31
0.0
  0
LINE
 39
0.0
 62
1
  8
0
 10
53.724816826040964
 20
2.793159729014193
 30
0.0
 11
53.19464354852467
 21
7.780382952376654
 31
0.0
  0
LINE
 39
0.0
 62
1
  8
0
 10
53.19464354852467
 20
7.780382952376654
 30
0.0
 11
52.18909851870079
 21
10.211135159286867
 31
0.0
  0
LINE
 39
0.0
 62
1
  8
0
 10
52.18909851870079
 20
10.211135159286867
 30
0.0
 11
49.959880328167074
 21
14.927867586774322
 31
0.0
  0
LINE
 39
0.0
 62
1
  8
0
 10
49.959880328167074
 20
14.927867586774322
 30
0.0
 11
48.01448392355117
 21
16.763212420977904
 31
0.0
  0
LINE
 39
0.0
 62
1
  8
0
 10
48.01448392355117
 20
16.763212420977904
 30
0.0
 11
43.25704416172836
 21
20.881417369685437
 31
0.0
  0
LINE
 39
0.0
 62
1
  8
0
 10
43.25704416172836
 20
20.88141736968544
 30
0.0
 11
40.86911724071464
 21
21.59319762806617
 31
0.0
  0
LINE
 39
0.0
 62
1
  8
0
 10
40.86911724071464
 20
21.59319762806617
 30
0.0
 11
34.111111111111114
 21
23.452706045992386
 31
0.0
  0
ENDBLK
  0
BLOCK
  8
0
  2
slices_y_1
  3
slices_y_1
 70
0
 10
0.0
 20
0.0
 30
0.0
  0
ENDBLK
  0
BLOCK
  8
0
  2
slices_z_1
  3
slices_z_1
 70
0
 10
0.0
 20
0.0
 30
0.0
  0
ENDBLK
  0
INSERT
  8
~slices_x
  2
slices_x_1
 10
0.0
 20
0.0
 30
0.0
  0
INSERT
  8
~slices_x
  2
slices_x_1
 10
0.0
 20
0.0
 30
0.0
  0
INSERT
  8
~slices_x
  2
slices_x_1
 10
0.0
 20
0.0
 30
0.0
  0
INSERT
  8
~slices_x
  2
slices_x_1
 10
0.0
 20
0.0
 30
0.0
  0
INSERT
  8
~slices_x
  2
slices_x_1
 10
0.0
 20
0.0
 30
0.0
  0
INSERT
  8
~slices_x
  2
slices_x_1
 10
0.0
 20
0.0
 30
0.0
  0
INSERT
  8
~slices_x
  2
slices_x_1
 10
0.0
 20
0.0
 30
0.0
  0
INSERT
  8
~slices_x
  2
slices_x_1
 10
0.0
 20
0.0
 30
0.0
  0
INSERT
  8
~slices_x
  2
slices_x_1
 10
0.0
 20
0.0
 30
0.0
  0
INSERT
  8
~slices_x
  2
slices_x_1
 10
0.0
 20
0.0
 30
0.0
  0
INSERT
  8
~slices_x
  2
slices_x_1
 10
0.0
 20
0.0
 30
0.0
  0
INSERT
  8
~slices_x
  2
slices_x_1
 10
0.0
 20
0.0
 30
0.0
  0
INSERT
  8
~slices_x
  2
slices_x_1
 10
0.0
 20
0.0
 30
0.0
  0
INSERT
  8
~slices_x
  2
slices_x_1
 10
0.0
 20
0.0
 30
0.0
  0
INSERT
  8
~slices_x
  2
slices_x_1
 10
0.0
 20
0.0
 30
0.0
  0
INSERT
  8
~slices_x
  2
slices_x_1
 10
0.0
 20
0.0
 30
0.0
  0
INSERT
  8
~slices_x
  2
slices_x_1
 10
0.0
 20
0.0
 30
0.0
  0
INSERT
  8
~slices_x
  2
slices_x_1
 10
0.0
 20
0.0
 30
0.0
  0
INSERT
  8
~slices_x
  2
slices_x_1
 10
0.0
 20
0.0
 30
0.0
  0
INSERT
  8
~slices_x
  2
slices_x_1
 10
0.0
 20
0.0
 30
0.0
  0
INSERT
  8
~slices_x
  2
slices_x_1
 10
0.0
 20
0.0
 30
0.0
  0
INSERT
  8
~slices_x
  2
slices_x_1
 10
0.0
 20
0.0
 30
0.0
  0
INSERT
  8
~slices_x
  2
slices_x_1
 10
0.0
 20
0.0
 30
0.0
  0
INSERT
  8
~slices_x
  2
slices_x_1
 10
0.0
 20
0.0
 30
0.0
  0
INSERT
  8
~slices_x
  2
slices_x_1
 10
0.0
 20
0.0
 30
0.0
  0
INSERT
  8
~slices_x
  2
slices_x_1
 10
0.0
 20
0.0
 30
0.0
  0
INSERT
  8
~slices_x
  2
slices_x_1
 10
0.0
 20
0.0
 30
0.0
  0
INSERT
  8
~slices_x
  2
slices_x_1
 10
0.0
 20
0.0
 30
0.0
  0
INSERT
  8
~slices_x
  2
slices_x_1
 10
0.0
 20
0.0
 30
0.0
  0
INSERT
  8
~slices_x
  2
slices_x_1
 10
0.0
 20
0.0
 30
0.0
  0
INSERT
  8
~slices_x
  2
slices_x_1
 10
0.0
 20
0.0
 30
0.0
  0
INSERT
  8
~slices_x
  2
slices_x_1
 10
0.0
 20
0.0
 30
0.0
  0
BLOCK
  8
0
  2
slices_x_2
  3
slices_x_2
 70
0
 10
0.0
 20
0.0
 30
0.0
  0
LINE
 39
0.0
 62
2
  8
0
 10
56.89115278939822
 20
23.726720400064732
 30
0.0
 11
67.22222222222223
 21
26.055550558777405
 31
0.0
  0
LINE
 39
0.0
 62
2
  8
0
 10
56.89115278939822
 20
23.726720400064732
 30
0.0
 11
56.20424098073328
 21
23.543309166558526
 31
0.0
  0
LINE
 39
0.0
 62
2
  8
0
 10
48.39893803198038
 20
17.94524009614706
 30
0.0
 11
56.20424098073328
 21
23.543309166558526
 31
0.0
  0
LINE
 39
0.0
 62
2
  8
0
 10
48.39893803198038
 20
17.94524009614706
 30
0.0
 11
47.69002432660844
 21
17.34648460264314
 31
0.0
  0
LINE
 39
0.0
 62
2
  8
0
 10
43.30762034823117
 20
10.173910205938679
 30
0.0
 11
47.69002432660844
 21
17.34648460264314
 31
0.0
  0
LINE
 39
0.0
 62
2
  8
0
 10
43.30762034823117
 20
10.17391020593868
 30
0.0
 11
42.863701875884686
 21
9.253680599474041
 31
0.0
  0
LINE
 39
0.0
 62
2
  8
0
 10
41.532317627452755
 20
1.1180170687618132
 30
0.0
 11
42.863701875884686
 21
9.253680599474041
 31
0.0
  0
LINE
 39
0.0
 62
2
  8
0
 10
41.532317627452755
 20
1.118017068761813
 30
0.0
 11
41.41050378450503
 21
0.0
 31
0.0
  0
LINE
 39
0.0
 62
2
  8
0
 10
41.41050378450503
 20
0.0
 30
0.0
 11
41.532317627452755
 21
-1.1180170687618132
 31
0.0
  0
LINE
 39
0.0
 62
2
  8
0
 10
41.532317627452755
 20
-1.118017068761813
 30
0.0
 11
42.863701875884686
 21
-9.253680599474041
 31
0.0
  0
LINE
 39
0.0
 62
2
  8
0
 10
42.863701875884686
 20
-9.253680599474041
 30
0.0
 11
43.30762034823117
 21
-10.173910205938679
 31
0.0
  0
LINE
 39
0.0
 62
2
  8
0
 10
43.30762034823117
 20
-10.17391020593868
 30
0.0
 11
47.69002432660844
 21
-17.34648460264314
 31
0.0
  0
LINE
 39
0.0
 62
2
  8
0
 10
47.69002432660844
 20
-17.34648460264314
 30
0.0
 11
48.39893803198038
 21
-17.94524009614706
 31
0.0
  0
LINE
 39
0.0
 62
2
  8
0
 10
48.39893803198038
 20
-17.94524009614706
 30
0.0
 11
56.20424098073328
 21
-23.543309166558526
 31
0.0
  0
LINE
 39
0.0
 62
2
  8
0
 10
56.20424098073328
 20
-23.543309166558526
 30
0.0
 11
56.89115278939822
 21
-23.726720400064732
 31
0.0
  0
LINE
 39
0.0
 62
2
  8
0
 10
56.89115278939822
 20
-23.726720400064732
 30
0.0
 11
67.22222222222223
 21
-26.055550558777405
 31
0.0
  0
LINE
 39
0.0
 62
2
  8
0
 10
77.55329165504624
 20
-23.726720400064732
 30
0.0
 11
67.22222222222223
 21
-26.055550558777405
 31
0.0
  0
LINE
 39
0.0
 62
2
  8
0
 10
77.55329165504624
 20
-23.726720400064732
 30
0.0
 11
78.24020346371117
 21
-23.543309166558526
 31
0.0
  0
LINE
 39
0.0
 62
2
  8
0
 10
86.04550641246408
 20
-17.94524009614706
 30
0.0
 11
78.24020346371117
 21
-23.543309166558526
 31
0.0
  0
LINE
 39
0.0
 62
2
  8
0
 10
86.04550641246408
 20
-17.94524009614706
 30
0.0
 11
86.75442011783602
 21
-17.34648460264314
 31
0.0
  0
LINE
 39
0.0
 62
2
  8
0
 10
91.13682409621329
 20
-10.173910205938679
 30
0.0
 11
86.75442011783602
 21
-17.34648460264314
 31
0.0
  0
LINE
 39
0.0
 62
2
  8
0
 10
91.13682409621329
 20
-10.17391020593868
 30
0.0
 11
91.58074256855977
 21
-9.253680599474041
 31
0.0
  0
LINE
 39
0.0
 62
2
  8
0
 10
92.9121268169917
 20
-1.1180170687618132
 30
0.0
 11
91.58074256855977
 21
-9.253680599474041
 31
0.0
  0
LINE
 39
0.0
 62
2
  8
0
 10
92.9121268169917
 20
-1.118017068761813
 30
0.0
 11
93.03394065993942
 21
0.0
 31
0.0
  0
LINE
 39
0.0
 62
2
  8
0
 10
93.03394065993942
 20
0.0
 30
0.0
 11
92.9121268169917
 21
1.1180170687618132
 31
0.0
  0
LINE
 39
0.0
 62
2
  8
0
 10
92.9121268169917
 20
1.118017068761813
 30
0.0
 11
91.58074256855977
 21
9.253680599474041
 31
0.0
  0
LINE
 39
0.0
 62
2
  8
0
 10
91.58074256855977
 20
9.253680599474041
 30
0.0
 11
91.13682409621329
 21
10.173910205938679
 31
0.0
  0
LINE
 39
0.0
 62
2
  8
0
 10
91.13682409621329
 20
10.17391020593868
 30
0.0
 11
86.75442011783602
 21
17.34648460264314
 31
0.0
  0
LINE
 39
0.0
 62
2
  8
0
 10
86.75442011783602
 20
17.34648460264314
 30
0.0
 11
86.04550641246408
 21
17.94524009614706
 31
0.0
  0
LINE
 39
0.0
 62
2
  8
0
 10
86.04550641246408
 20
17.94524009614706
 30
0.0
 11
78.24020346371117
 21
23.543309166558526
 31
0.0
  0
LINE
 39
0.0
 62
2
  8
0
 10
78.24020346371117
 20
23.543309166558526
 30
0.0
 11
77.55329165504624
 21
23.726720400064732
 31
0.0
  0
LINE
 39
0.0
 62
2
  8
0
 10
77.55329165504624
 20
23.726720400064732
 30
0.0
 11
67.22222222222223
 21
26.055550558777405
 31
0.0
  0
ENDBLK
  0
BLOCK
  8
0
  2
slices_y_2
  3
slices_y_2
 70
0
 10
0.0
 20
0.0
 30
0.0
  0
ENDBLK
  0
BLOCK
  8
0
  2
slices_z_2
  3
slices_z_2
 70
0
 10
0.0
 20
0.0
 30
0.0
  0
ENDBLK
  0
INSERT
  8
~slices_x
  2
slices_x_2
 10
0.0
 20
0.0
 30
0.0
  0
INSERT
  8
~slices_x
  2
slices_x_2
 10
0.0
 20
0.0
 30
0.0
  0
INSERT
  8
~slices_x
  2
slices_x_2
 10
0.0
 20
0.0
 30
0.0
  0
INSERT
  8
~slices_x
  2
slices_x_2
 10
0.0
 20
0.0
 30
0.0
  0
INSERT
  8
~slices_x
  2
slices_x_2
 10
0.0
 20
0.0
 30
0.0
  0
INSERT
  8
~slices_x
  2
slices_x_2
 10
0.0
 20
0.0
 30
0.0
  0
INSERT
  8
~slices_x
  2
slices_x_2
 10
0.0
 20
0.0
 30
0.0
  0
INSERT
  8
~slices_x
  2
slices_x_2
 10
0.0
 20
0.0
 30
0.0
  0
INSERT
  8
~slices_x
  2
slices_x_2
 10
0.0
 20
0.0
 30
0.0
  0
INSERT
  8
~slices_x
  2
slices_x_2
 10
0.0
 20
0.0
 30
0.0
  0
INSERT
  8
~slices_x
  2
slices_x_2
 10
0.0
 20
0.0
 30
0.0
  0
INSERT
  8
~slices_x
  2
slices_x_2
 10
0.0
 20
0.0
 30
0.0
  0
INSERT
  8
~slices_x
  2
slices_x_2
 10
0.0
 20
0.0
 30
0.0
  0
INSERT
  8
~slices_x
  2
slices_x_2
 10
0.0
 20
0.0
 30
0.0
  0
INSERT
  8
~slices_x
  2
slices_x_2
 10
0.0
 20
0.0
 30
0.0
  0
INSERT
  8
~slices_x
  2
slices_x_2
 10
0.0
 20
0.0
 30
0.0
  0
INSERT
  8
~slices_x
  2
slices_x_2
 10
0.0
 20
0.0
 30
0.0
  0
INSERT
  8
~slices_x
  2
slices_x_2
 10
0.0
 20
0.0
 30
0.0
  0
INSERT
  8
~slices_x
  2
slices_x_2
 10
0.0
 20
0.0
 30
0.0
  0
INSERT
  8
~slices_x
  2
slices_x_2
 10
0.0
 20
0.0
 30
0.0
  0
INSERT
  8
~slices_x
  2
slices_x_2
 10
0.0
 20
0.0
 30
0.0
  0
INSERT
  8
~slices_x
  2
slices_x_2
 10
0.0
 20
0.0
 30
0.0
  0
INSERT
  8
~slices_x
  2
slices_x_2
 10
0.0
 20
0.0
 30
0.0
  0
INSERT
  8
~slices_x
  2
slices_x_2
 10
0.0
 20
0.0
 30
0.0
  0
INSERT
  8
~slices_x
  2
slices_x_2
 10
0.0
 20
0.0
 30
0.0
  0
INSERT
  8
~slices_x
  2
slices_x_2
 10
0.0
 20
0.0
 30
0.0
  0
INSERT
  8
~slices_x
  2
slices_x_2
 10
0.0
 20
0.0
 30
0.0
  0
INSERT
  8
~slices_x
  2
slices_x_2
 10
0.0
 20
0.0
 30
0.0
  0
INSERT
  8
~slices_x
  2
slices_x_2
 10
0.0
 20
0.0
 30
0.0
  0
INSERT
  8
~slices_x
  2
slices_x_2
 10
0.0
 20
0.0
 30
0.0
  0
INSERT
  8
~slices_x
  2
slices_x_2
 10
0.0
 20
0.0
 30
0.0
  0
INSERT
  8
~slices_x
  2
slices_x_2
 10
0.0
 20
0.0
 30
0.0
  0
BLOCK
  8
0
  2
slices_x_3
  3
slices_x_3
 70
0
 10
0.0
 20
0.0
 30
0.0
  0
LINE
 39
0.0
 62
3
  8
0
 10
99.02972766006863
 20
25.291416841187218
 30
0.0
 11
100.33333333333334
 21
25.510971364512514
 31
0.0
  0
LINE
 39
0.0
 62
3
  8
0
 10
99.02972766006863
 20
25.291416841187218
 30
0.0
 11
88.73706239892076
 21
23.3787539200344
 31
0.0
  0
LINE
 39
0.0
 62
3
  8
0
 10
87.71266583960671
 20
22.802996534408603
 30
0.0
 11
88.73706239892076
 21
23.3787539200344
 31
0.0
  0
LINE
 39
0.0
 62
3
  8
0
 10
87.71266583960671
 20
22.802996534408607
 30
0.0
 11
79.38539780890189
 21
17.744353029837185
 31
0.0
  0
LINE
 39
0.0
 62
3
  8
0
 10
78.74915542560372
 20
16.958233346347946
 30
0.0
 11
79.38539780890189
 21
17.744353029837185
 31
0.0
  0
LINE
 39
0.0
 62
3
  8
0
 10
78.74915542560372
 20
16.958233346347946
 30
0.0
 11
73.32651401117614
 21
9.687718464587862
 31
0.0
  0
LINE
 39
0.0
 62
3
  8
0
 10
73.10951572953758
 20
8.792976902054527
 30
0.0
 11
73.32651401117614
 21
9.687718464587862
 31
0.0
  0
LINE
 39
0.0
 62
3
  8
0
 10
73.10951572953758
 20
8.792976902054527
 30
0.0
 11
71.1911026639731
 21
0.0
 31
0.0
  0
LINE
 39
0.0
 62
3
  8
0
 10
71.1911026639731
 20
0.0
 30
0.0
 11
73.10951572953758
 21
-8.792976902054527
 31
0.0
  0
LINE
 39
0.0
 62
3
  8
0
 10
73.10951572953758
 20
-8.792976902054527
 30
0.0
 11
73.32651401117614
 21
-9.687718464587862
 31
0.0
  0
LINE
 39
0.0
 62
3
  8
0
 10
73.32651401117614
 20
-9.687718464587862
 30
0.0
 11
78.74915542560372
 21
-16.958233346347946
 31
0.0
  0
LINE
 39
0.0
 62
3
  8
0
 10
78.74915542560372
 20
-16.958233346347946
 30
0.0
 11
79.38539780890189
 21
-17.744353029837185
 31
0.0
  0
LINE
 39
0.0
 62
3
  8
0
 10
79.38539780890189
 20
-17.744353029837185
 30
0.0
 11
87.71266583960671
 21
-22.802996534408603
 31
0.0
  0
LINE
 39
0.0
 62
3
  8
0
 10
87.71266583960671
 20
-22.802996534408607
 30
0.0
 11
88.73706239892076
 21
-23.3787539200344
 31
0.0
  0
LINE
 39
0.0
 62
3
  8
0
 10
88.73706239892076
 20
-23.3787539200344
 30
0.0
 11
99.02972766006863
 21
-25.291416841187218
 31
0.0
  0
LINE
 39
0.0
 62
3
  8
0
 10
99.02972766006863
 20
-25.291416841187218
 30
0.0
 11
100.33333333333334
 21
-25.510971364512514
 31
0.0
  0
LINE
 39
0.0
 62
3
  8
0
 10
101.63693900659806
 20
-25.291416841187218
 30
0.0
 11
100.33333333333334
 21
-25.510971364512514
 31
0.0
  0
LINE
 39
0.0
 62
3
  8
0
 10
101.63693900659806
 20
-25.291416841187218
 30
0.0
 11
111.92960426774593
 21
-23.3787539200344
 31
0.0
  0
LINE
 39
0.0
 62
3
  8
0
 10
112.95400082705997
 20
-22.802996534408603
 30
0.0
 11
111.92960426774593
 21
-23.3787539200344
 31
0.0
  0
LINE
 39
0.0
 62
3
  8
0
 10
112.95400082705997
 20
-22.802996534408607
 30
0.0
 11
121.2812688577648
 21
-17.744353029837185
 31
0.0
  0
LINE
 39
0.0
 62
3
  8
0
 10
121.91751124106297
 20
-16.958233346347946
 30
0.0
 11
121.2812688577648
 21
-17.744353029837185
 31
0.0
  0
LINE
 39
0.0
 62
3
  8
0
 10
121.91751124106297
 20
-16.958233346347946
 30
0.0
 11
127.34015265549054
 21
-9.687718464587862
 31
0.0
  0
LINE
 39
0.0
 62
3
  8
0
 10
127.55715093712911
 20
-8.792976902054527
 30
0.0
 11
127.34015265549054
 21
-9.687718464587862
 31
0.0
  0
LINE
 39
0.0
 62
3
  8
0
 10
127.55715093712911
 20
-8.792976902054527
 30
0.0
 11
129.4755640026936
 21
0.0
 31
0.0
  0
LINE
 39
0.0
 62
3
  8
0
 10
129.4755640026936
 20
0.0
 30
0.0
 11
127.55715093712911
 21
8.792976902054527
 31
0.0
  0
LINE
 39
0.0
 62
3
  8
0
 10
127.55715093712911
 20
8.792976902054527
 30
0.0
 11
127.34015265549054
 21
9.687718464587862
 31
0.0
  0
LINE
 39
0.0
 62
3
  8
0
 10
127.34015265549054
 20
9.687718464587862
 30
0.0
 11
121.91751124106297
 21
16.958233346347946
 31
0.0
  0
LINE
 39
0.0
 62
3
  8
0
 10
121.91751124106297
 20
16.958233346347946
 30
0.0
 11
121.2812688577648
 21
17.744353029837185
 31
0.0
  0
LINE
 39
0.0
 62
3
  8
0
 10
121.2812688577648
 20
17.744353029837185
 30
0.0
 11
112.95400082705997
 21
22.802996534408603
 31
0.0
  0
LINE
 39
0.0
 62
3
  8
0
 10
112.95400082705997
 20
22.802996534408607
 30
0.0
 11
111.92960426774593
 21
23.3787539200344
 31
0.0
  0
LINE
 39
0.0
 62
3
  8
0
 10
111.92960426774593
 20
23.3787539200344
 30
0.0
 11
101.63693900659806
 21
25.291416841187218
 31
0.0
  0
LINE
 39
0.0
 62
3
  8
0
 10
101.63693900659806
 20
25.291416841187218
 30
0.0
 11
100.33333333333334
 21
25.510971364512514
 31
0.0
  0
ENDBLK
  0
BLOCK
  8
0
  2
slices_y_3
  3
slices_y_3
 70
0
 10
0.0
 20
0.0
 30
0.0
  0
ENDBLK
  0
BLOCK
  8
0
  2
slices_z_3
  3
slices_z_3
 70
0
 10
0.0
 20
0.0
 30
0.0
  0
ENDBLK
  0
INSERT
  8
~slices_x
  2
slices_x_3
 10
0.0
 20
0.0
 30
0.0
  0
INSERT
  8
~slices_x
  2
slices_x_3
 10
0.0
 20
0.0
 30
0.0
  0
INSERT
  8
~slices_x
  2
slices_x_3
 10
0.0
 20
0.0
 30
0.0
  0
INSERT
  8
~slices_x
  2
slices_x_3
 10
0.0
 20
0.0
 30
0.0
  0
INSERT
  8
~slices_x
  2
slices_x_3
 10
0.0
 20
0.0
 30
0.0
  0
INSERT
  8
~slices_x
  2
slices_x_3
 10
0.0
 20
0.0
 30
0.0
  0
INSERT
  8
~slices_x
  2
slices_x_3
 10
0.0
 20
0.0
 30
0.0
  0
INSERT
  8
~slices_x
  2
slices_x_3
 10
0.0
 20
0.0
 30
0.0
  0
INSERT
  8
~slices_x
  2
slices_x_3
 10
0.0
 20
0.0
 30
0.0
  0
INSERT
  8
~slices_x
  2
slices_x_3
 10
0.0
 20
0.0
 30
0.0
  0
INSERT
  8
~slices_x
  2
slices_x_3
 10
0.0
 20
0.0
 30
0.0
  0
INSERT
  8
~slices_x
  2
slices_x_3
 10
0.0
 20
0.0
 30
0.0
  0
INSERT
  8
~slices_x
  2
slices_x_3
 10
0.0
 20
0.0
 30
0.0
  0
INSERT
  8
~slices_x
  2
slices_x_3
 10
0.0
 20
0.0
 30
0.0
  0
INSERT
  8
~slices_x
  2
slices_x_3
 10
0.0
 20
0.0
 30
0.0
  0
INSERT
  8
~slices_x
  2
slices_x_3
 10
0.0
 20
0.0
 30
0.0
  0
INSERT
  8
~slices_x
  2
slices_x_3
 10
0.0
 20
0.0
 30
0.0
  0
INSERT
  8
~slices_x
  2
slices_x_3
 10
0.0
 20
0.0
 30
0.0
  0
INSERT
  8
~slices_x
  2
slices_x_3
 10
0.0
 20
0.0
 30
0.0
  0
INSERT
  8
~slices_x
  2
slices_x_3
 10
0.0
 20
0.0
 30
0.0
  0
INSERT
  8
~slices_x
  2
slices_x_3
 10
0.0
 20
0.0
 30
0.0
  0
INSERT
  8
~slices_x
  2
slices_x_3
 10
0.0
 20
0.0
 30
0.0
  0
INSERT
  8
~slices_x
  2
slices_x_3
 10
0.0
 20
0.0
 30
0.0
  0
INSERT
  8
~slices_x
  2
slices_x_3
 10
0.0
 20
0.0
 30
0.0
  0
INSERT
  8
~slices_x
  2
slices_x_3
 10
0.0
 20
0.0
 30
0.0
  0
INSERT
  8
~slices_x
  2
slices_x_3
 10
0.0
 20
0.0
 30
0.0
  0
INSERT
  8
~slices_x
  2
slices_x_3
 10
0.0
 20
0.0
 30
0.0
  0
INSERT
  8
~slices_x
  2
slices_x_3
 10
0.0
 20
0.0
 30
0.0
  0
INSERT
  8
~slices_x
  2
slices_x_3
 10
0.0
 20
0.0
 30
0.0
  0
INSERT
  8
~slices_x
  2
slices_x_3
 10
0.0
 20
0.0
 30
0.0
  0
INSERT
  8
~slices_x
  2
slices_x_3
 10
0.0
 20
0.0
 30
0.0
  0
INSERT
  8
~slices_x
  2
slices_x_3
 10
0.0
 20
0.0
 30
0.0
  0
BLOCK
  8
0
  2
slices_x_4
  3
slices_x_4
 70
0
 10
0.0
 20
0.0
 30
0.0
  0
LINE
 39
0.0
 62
4
  8
0
 10
129.91100717977798
 20
24.156529140867853
 30
0.0
 11
133.44444444444446
 21
24.72609366109743
 31
0.0
  0
LINE
 39
0.0
 62
4
  8
0
 10
129.91100717977798
 20
24.156529140867853
 30
0.0
 11
121.98202605973243
 21
22.821122502212194
 31
0.0
  0
LINE
 39
0.0
 62
4
  8
0
 10
119.05955862036546
 20
21.211603856984908
 30
0.0
 11
121.98202605973243
 21
22.821122502212194
 31
0.0
  0
LINE
 39
0.0
 62
4
  8
0
 10
119.05955862036546
 20
21.211603856984908
 30
0.0
 11
112.57695925059846
 21
17.568088627203434
 31
0.0
  0
LINE
 39
0.0
 62
4
  8
0
 10
110.55008192017122
 20
15.093556564224984
 30
0.0
 11
112.57695925059846
 21
17.568088627203434
 31
0.0
  0
LINE
 39
0.0
 62
4
  8
0
 10
110.55008192017122
 20
15.093556564224984
 30
0.0
 11
106.1737297163831
 21
9.686283016296118
 31
0.0
  0
LINE
 39
0.0
 62
4
  8
0
 10
105.4109973342483
 20
6.621809542219377
 30
0.0
 11
106.1737297163831
 21
9.686283016296118
 31
0.0
  0
LINE
 39
0.0
 62
4
  8
0
 10
105.4109973342483
 20
6.621809542219377
 30
0.0
 11
103.8050349511764
 21
0.0
 31
0.0
  0
LINE
 39
0.0
 62
4
  8
0
 10
103.8050349511764
 20
0.0
 30
0.0
 11
105.4109973342483
 21
-6.621809542219377
 31
0.0
  0
LINE
 39
0.0
 62
4
  8
0
 10
105.4109973342483
 20
-6.621809542219377
 30
0.0
 11
106.1737297163831
 21
-9.686283016296118
 31
0.0
  0
LINE
 39
0.0
 62
4
  8
0
 10
106.1737297163831
 20
-9.686283016296118
 30
0.0
 11
110.55008192017122
 21
-15.093556564224984
 31
0.0
  0
LINE
 39
0.0
 62
4
  8
0
 10
110.55008192017122
 20
-15.093556564224984
 30
0.0
 11
112.57695925059846
 21
-17.568088627203434
 31
0.0
  0
LINE
 39
0.0
 62
4
  8
0
 10
112.57695925059846
 20
-17.568088627203434
 30
0.0
 11
119.05955862036546
 21
-21.211603856984908
 31
0.0
  0
LINE
 39
0.0
 62
4
  8
0
 10
119.05955862036546
 20
-21.211603856984908
 30
0.0
 11
121.98202605973243
 21
-22.821122502212194
 31
0.0
  0
LINE
 39
0.0
 62
4
  8
0
 10
121.98202605973243
 20
-22.821122502212194
 30
0.0
 11
129.91100717977798
 21
-24.156529140867853
 31
0.0
  0
LINE
 39
0.0
 62
4
  8
0
 10
129.91100717977798
 20
-24.156529140867853
 30
0.0
 11
133.44444444444446
 21
-24.72609366109743
 31
0.0
  0
LINE
 39
0.0
 62
4
  8
0
 10
136.97788170911093
 20
-24.156529140867853
 30
0.0
 11
133.44444444444446
 21
-24.72609366109743
 31
0.0
  0
LINE
 39
0.0
 62
4
  8
0
 10
136.97788170911093
 20
-24.156529140867853
 30
0.0
 11
144.90686282915647
 21
-22.821122502212194
 31
0.0
  0
LINE
 39
0.0
 62
4
  8
0
 10
147.82933026852345
 20
-21.211603856984908
 30
0.0
 11
144.90686282915647
 21
-22.821122502212194
 31
0.0
  0
LINE
 39
0.0
 62
4
  8
0
 10
147.82933026852345
 20
-21.211603856984908
 30
0.0
 11
154.31192963829045
 21
-17.568088627203434
 31
0.0
  0
LINE
 39
0.0
 62
4
  8
0
 10
156.3388069687177
 20
-15.093556564224984
 30
0.0
 11
154.31192963829045
 21
-17.568088627203434
 31
0.0
  0
LINE
 39
0.0
 62
4
  8
0
 10
156.3388069687177
 20
-15.093556564224984
 30
0.0
 11
160.71515917250582
 21
-9.686283016296118
 31
0.0
  0
LINE
 39
0.0
 62
4
  8
0
 10
161.47789155464062
 20
-6.621809542219377
 30
0.0
 11
160.71515917250582
 21
-9.686283016296118
 31
0.0
  0
LINE
 39
0.0
 62
4
  8
0
 10
161.47789155464062
 20
-6.621809542219377
 30
0.0
 11
163.08385393771252
 21
0.0
 31
0.0
  0
LINE
 39
0.0
 62
4
  8
0
 10
163.08385393771252
 20
0.0
 30
0.0
 11
161.47789155464062
 21
6.621809542219377
 31
0.0
  0
LINE
 39
0.0
 62
4
  8
0
 10
161.47789155464062
 20
6.621809542219377
 30
0.0
 11
160.71515917250582
 21
9.686283016296118
 31
0.0
  0
LINE
 39
0.0
 62
4
  8
0
 10
160.71515917250582
 20
9.686283016296118
 30
0.0
 11
156.3388069687177
 21
15.093556564224984
 31
0.0
  0
LINE
 39
0.0
 62
4
  8
0
 10
156.3388069687177
 20
15.093556564224984
 30
0.0
 11
154.31192963829045
 21
17.568088627203434
 31
0.0
  0
LINE
 39
0.0
 62
4
  8
0
 10
154.31192963829045
 20
17.568088627203434
 30
0.0
 11
147.82933026852345
 21
21.211603856984908
 31
0.0
  0
LINE
 39
0.0
 62
4
  8
0
 10
147.82933026852345
 20
21.211603856984908
 30
0.0
 11
144.90686282915647
 21
22.821122502212194
 31
0.0
  0
LINE
 39
0.0
 62
4
  8
0
 10
144.90686282915647
 20
22.821122502212194
 30
0.0
 11
136.97788170911093
 21
24.156529140867853
 31
0.0
  0
LINE
 39
0.0
 62
4
  8
0
 10
136.97788170911093
 20
24.156529140867853
 30
0.0
 11
133.44444444444446
 21
24.72609366109743
 31
0.0
  0
ENDBLK
  0
BLOCK
  8
0
  2
slices_y_4
  3
slices_y_4
 70
0
 10
0.0
 20
0.0
 30
0.0
  0
ENDBLK
  0
BLOCK
  8
0
  2
slices_z_4
  3
slices_z_4
 70
0
 10
0.0
 20
0.0
 30
0.0
  0
ENDBLK
  0
INSERT
  8
~slices_x
  2
slices_x_4
 10
0.0
 20
0.0
 30
0.0
  0
INSERT
  8
~slices_x
  2
slices_x_4
 10
0.0
 20
0.0
 30
0.0
  0
INSERT
  8
~slices_x
  2
slices_x_4
 10
0.0
 20
0.0
 30
0.0
  0
INSERT
  8
~slices_x
  2
slices_x_4
 10
0.0
 20
0.0
 30
0.0
  0
INSERT
  8
~slices_x
  2
slices_x_4
 10
0.0
 20
0.0
 30
0.0
  0
INSERT
  8
~slices_x
  2
slices_x_4
 10
0.0
 20
0.0
 30
0.0
  0
INSERT
  8
~slices_x
  2
slices_x_4
 10
0.0
 20
0.0
 30
0.0
  0
INSERT
  8
~slices_x
  2
slices_x_4
 10
0.0
 20
0.0
 30
0.0
  0
INSERT
  8
~slices_x
  2
slices_x_4
 10
0.0
 20
0.0
 30
0.0
  0
INSERT
  8
~slices_x
  2
slices_x_4
 10
0.0
 20
0.0
 30
0.0
  0
INSERT
  8
~slices_x
  2
slices_x_4
 10
0.0
 20
0.0
 30
0.0
  0
INSERT
  8
~slices_x
  2
slices_x_4
 10
0.0
 20
0.0
 30
0.0
  0
INSERT
  8
~slices_x
  2
slices_x_4
 10
0.0
 20
0.0
 30
0.0
  0
INSERT
  8
~slices_x
  2
slices_x_4
 10
0.0
 20
0.0
 30
0.0
  0
INSERT
  8
~slices_x
  2
slices_x_4
 10
0.0
 20
0.0
 30
0.0
  0
INSERT
  8
~slices_x
  2
slices_x_4
 10
0.0
 20
0.0
 30
0.0
  0
INSERT
  8
~slices_x
  2
slices_x_4
 10
0.0
 20
0.0
 30
0.0
  0
INSERT
  8
~slices_x
  2
slices_x_4
 10
0.0
 20
0.0
 30
0.0
  0
INSERT
  8
~slices_x
  2
slices_x_4
 10
0.0
 20
0.0
 30
0.0
  0
INSERT
  8
~slices_x
  2
slices_x_4
 10
0.0
 20
0.0
 30
0.0
  0
INSERT
  8
~slices_x
  2
slices_x_4
 10
0.0
 20
0.0
 30
0.0
  0
INSERT
  8
~slices_x
  2
slices_x_4
 10
0.0
 20
0.0
 30
0.0
  0
INSERT
  8
~slices_x
  2
slices_x_4
 10
0.0
 20
0.0
 30
0.0
  0
INSERT
  8
~slices_x
  2
slices_x_4
 10
0.0
 20
0.0
 30
0.0
  0
INSERT
  8
~slices_x
  2
slices_x_4
 10
0.0
 20
0.0
 30
0.0
  0
INSERT
  8
~slices_x
  2
slices_x_4
 10
0.0
 20
0.0
 30
0.0
  0
INSERT
  8
~slices_x
  2
slices_x_4
 10
0.0
 20
0.0
 30
0.0
  0
INSERT
  8
~slices_x
  2
slices_x_4
 10
0.0
 20
0.0
 30
0.0
  0
INSERT
  8
~slices_x
  2
slices_x_4
 10
0.0
 20
0.0
 30
0.0
  0
INSERT
  8
~slices_x
  2
slices_x_4
 10
0.0
 20
0.0
 30
0.0
  0
INSERT
  8
~slices_x
  2
slices_x_4
 10
0.0
 20
0.0
 30
0.0
  0
INSERT
  8
~slices_x
  2
slices_x_4
 10
0.0
 20
0.0
 30
0.0
  0
BLOCK
  8
0
  2
slices_x_5
  3
slices_x_5
 70
0
 10
0.0
 20
0.0
 30
0.0
  0
LINE
 39
0.0
 62
5
  8
0
 10
162.87340799941464
 20
22.7011171875836
 30
0.0
 11
166.55555555555557
 21
23.233354292060234
 31
0.0
  0
LINE
 39
0.0
 62
5
  8
0
 10
162.87340799941464
 20
22.7011171875836
 30
0.0
 11
156.20989701057434
 21
21.62734316981463
 31
0.0
  0
LINE
 39
0.0
 62
5
  8
0
 10
153.06604051387387
 20
19.96490596349384
 30
0.0
 11
156.20989701057434
 21
21.62734316981463
 31
0.0
  0
LINE
 39
0.0
 62
5
  8
0
 10
153.06604051387387
 20
19.96490596349384
 30
0.0
 11
147.5281715643927
 21
16.91610587943912
 31
0.0
  0
LINE
 39
0.0
 62
5
  8
0
 10
145.20138600801553
 20
14.126712997018117
 30
0.0
 11
147.5281715643927
 21
16.91610587943912
 31
0.0
  0
LINE
 39
0.0
 62
5
  8
0
 10
145.20138600801553
 20
14.126712997018117
 30
0.0
 11
141.33449566436087
 21
9.408319348163307
 31
0.0
  0
LINE
 39
0.0
 62
5
  8
0
 10
140.41146226196122
 20
5.8690200403342185
 30
0.0
 11
141.33449566436087
 21
9.408319348163307
 31
0.0
  0
LINE
 39
0.0
 62
5
  8
0
 10
140.41146226196122
 20
5.8690200403342185
 30
0.0
 11
138.94972513903537
 21
0.0
 31
0.0
  0
LINE
 39
0.0
 62
5
  8
0
 10
138.94972513903537
 20
0.0
 30
0.0
 11
140.41146226196122
 21
-5.8690200403342185
 31
0.0
  0
LINE
 39
0.0
 62
5
  8
0
 10
140.41146226196122
 20
-5.8690200403342185
 30
0.0
 11
141.33449566436087
 21
-9.408319348163307
 31
0.0
  0
LINE
 39
0.0
 62
5
  8
0
 10
141.33449566436087
 20
-9.408319348163307
 30
0.0
 11
145.20138600801553
 21
-14.126712997018117
 31
0.0
  0
LINE
 39
0.0
 62
5
  8
0
 10
145.20138600801553
 20
-14.126712997018117
 30
0.0
 11
147.5281715643927
 21
-16.91610587943912
 31
0.0
  0
LINE
 39
0.0
 62
5
  8
0
 10
147.5281715643927
 20
-16.91610587943912
 30
0.0
 11
153.06604051387387
 21
-19.96490596349384
 31
0.0
  0
LINE
 39
0.0
 62
5
  8
0
 10
153.06604051387387
 20
-19.96490596349384
 30
0.0
 11
156.20989701057434
 21
-21.62734316981463
 31
0.0
  0
LINE
 39
0.0
 62
5
  8
0
 10
156.20989701057434
 20
-21.62734316981463
 30
0.0
 11
162.87340799941464
 21
-22.7011171875836
 31
0.0
  0
LINE
 39
0.0
 62
5
  8
0
 10
162.87340799941464
 20
-22.7011171875836
 30
0.0
 11
166.55555555555557
 21
-23.233354292060234
 31
0.0
  0
LINE
 39
0.0
 62
5
  8
0
 10
170.2377031116965
 20
-22.7011171875836
 30
0.0
 11
166.55555555555557
 21
-23.233354292060234
 31
0.0
  0
LINE
 39
0.0
 62
5
  8
0
 10
170.2377031116965
 20
-22.7011171875836
 30
0.0
 11
176.9012141005368
 21
-21.62734316981463
 31
0.0
  0
LINE
 39
0.0
 62
5
  8
0
 10
180.04507059723727
 20
-19.96490596349384
 30
0.0
 11
176.9012141005368
 21
-21.62734316981463
 31
0.0
  0
LINE
 39
0.0
 62
5
  8
0
 10
180.04507059723727
 20
-19.96490596349384
 30
0.0
 11
185.58293954671845
 21
-16.91610587943912
 31
0.0
  0
LINE
 39
0.0
 62
5
  8
0
 10
187.9097251030956
 20
-14.126712997018117
 30
0.0
 11
185.58293954671845
 21
-16.91610587943912
 31
0.0
  0
LINE
 39
0.0
 62
5
  8
0
 10
187.9097251030956
 20
-14.126712997018117
 30
0.0
 11
191.77661544675027
 21
-9.408319348163307
 31
0.0
  0
LINE
 39
0.0
 62
5
  8
0
 10
192.69964884914992
 20
-5.8690200403342185
 30
0.0
 11
191.77661544675027
 21
-9.408319348163307
 31
0.0
  0
LINE
 39
0.0
 62
5
  8
0
 10
192.69964884914992
 20
-5.8690200403342185
 30
0.0
 11
194.16138597207578
 21
0.0
 31
0.0
  0
LINE
 39
0.0
 62
5
  8
0
 10
194.16138597207578
 20
0.0
 30
0.0
 11
192.69964884914992
 21
5.8690200403342185
 31
0.0
  0
LINE
 39
0.0
 62
5
  8
0
 10
192.69964884914992
 20
5.8690200403342185
 30
0.0
 11
191.77661544675027
 21
9.408319348163307
 31
0.0
  0
LINE
 39
0.0
 62
5
  8
0
 10
191.77661544675027
 20
9.408319348163307
 30
0.0
 11
187.9097251030956
 21
14.126712997018117
 31
0.0
  0
LINE
 39
0.0
 62
5
  8
0
 10
187.9097251030956
 20
14.126712997018117
 30
0.0
 11
185.58293954671845
 21
16.91610587943912
 31
0.0
  0
LINE
 39
0.0
 62
5
  8
0
 10
185.58293954671845
 20
16.91610587943912
 30
0.0
 11
180.04507059723727
 21
19.96490596349384
 31
0.0
  0
LINE
 39
0.0
 62
5
  8
0
 10
180.04507059723727
 20
19.96490596349384
 30
0.0
 11
176.9012141005368
 21
21.62734316981463
 31
0.0
  0
LINE
 39
0.0
 62
5
  8
0
 10
176.9012141005368
 20
21.62734316981463
 30
0.0
 11
170.2377031116965
 21
22.7011171875836
 31
0.0
  0
LINE
 39
0.0
 62
5
  8
0
 10
170.2377031116965
 20
22.7011171875836
 30
0.0
 11
166.55555555555557
 21
23.233354292060234
 31
0.0
  0
ENDBLK
  0
BLOCK
  8
0
  2
slices_y_5
  3
slices_y_5
 70
0
 10
0.0
 20
0.0
 30
0.0
  0
ENDBLK
  0
BLOCK
  8
0
  2
slices_z_5
  3
slices_z_5
 70
0
 10
0.0
 20
0.0
 30
0.0
  0
ENDBLK
  0
INSERT
  8
~slices_x
  2
slices_x_5
 10
0.0
 20
0.0
 30
0.0
  0
INSERT
  8
~slices_x
  2
slices_x_5
 10
0.0
 20
0.0
 30
0.0
  0
INSERT
  8
~slices_x
  2
slices_x_5
 10
0.0
 20
0.0
 30
0.0
  0
INSERT
  8
~slices_x
  2
slices_x_5
 10
0.0
 20
0.0
 30
0.0
  0
INSERT
  8
~slices_x
  2
slices_x_5
 10
0.0
 20
0.0
 30
0.0
  0
INSERT
  8
~slices_x
  2
slices_x_5
 10
0.0
 20
0.0
 30
0.0
  0
INSERT
  8
~slices_x
  2
slices_x_5
 10
0.0
 20
0.0
 30
0.0
  0
INSERT
  8
~slices_x
  2
slices_x_5
 10
0.0
 20
0.0
 30
0.0
  0
INSERT
  8
~slices_x
  2
slices_x_5
 10
0.0
 20
0.0
 30
0.0
  0
INSERT
  8
~slices_x
  2
slices_x_5
 10
0.0
 20
0.0
 30
0.0
  0
INSERT
  8
~slices_x
  2
slices_x_5
 10
0.0
 20
0.0
 30
0.0
  0
INSERT
  8
~slices_x
  2
slices_x_5
 10
0.0
 20
0.0
 30
0.0
  0
INSERT
  8
~slices_x
  2
slices_x_5
 10
0.0
 20
0.0
 30
0.0
  0
INSERT
  8
~slices_x
  2
slices_x_5
 10
0.0
 20
0.0
 30
0.0
  0
INSERT
  8
~slices_x
  2
slices_x_5
 10
0.0
 20
0.0
 30
0.0
  0
INSERT
  8
~slices_x
  2
slices_x_5
 10
0.0
 20
0.0
 30
0.0
  0
INSERT
  8
~slices_x
  2
slices_x_5
 10
0.0
 20
0.0
 30
0.0
  0
INSERT
  8
~slices_x
  2
slices_x_5
 10
0.0
 20
0.0
 30
0.0
  0
INSERT
  8
~slices_x
  2
slices_x_5
 10
0.0
 20
0.0
 30
0.0
  0
INSERT
  8
~slices_x
  2
slices_x_5
 10
0.0
 20
0.0
 30
0.0
  0
INSERT
  8
~slices_x
  2
slices_x_5
 10
0.0
 20
0.0
 30
0.0
  0
INSERT
  8
~slices_x
  2
slices_x_5
 10
0.0
 20
0.0
 30
0.0
  0
INSERT
  8
~slices_x
  2
slices_x_5
 10
0.0
 20
0.0
 30
0.0
  0
INSERT
  8
~slices_x
  2
slices_x_5
 10
0.0
 20
0.0
 30
0.0
  0
INSERT
  8
~slices_x
  2
slices_x_5
 10
0.0
 20
0.0
 30
0.0
  0
INSERT
  8
~slices_x
  2
slices_x_5
 10
0.0
 20
0.0
 30
0.0
  0
INSERT
  8
~slices_x
  2
slices_x_5
 10
0.0
 20
0.0
 30
0.0
  0
INSERT
  8
~slices_x
  2
slices_x_5
 10
0.0
 20
0.0
 30
0.0
  0
INSERT
  8
~slices_x
  2
slices_x_5
 10
0.0
 20
0.0
 30
0.0
  0
INSERT
  8
~slices_x
  2
slices_x_5
 10
0.0
 20
0.0
 30
0.0
  0
INSERT
  8
~slices_x
  2
slices_x_5
 10
0.0
 20
0.0
 30
0.0
  0
INSERT
  8
~slices_x
  2
slices_x_5
 10
0.0
 20
0.0
 30
0.0
  0
BLOCK
  8
0
  2
slices_x_6
  3
slices_x_6
 70
0
 10
0.0
 20
0.0
 30
0.0
  0
LINE
 39
0.0
 62
6
  8
0
 10
197.37418589939202
 20
20.43173237983393
 30
0.0
 11
199.66666666666669
 21
20.725647287354175
 31
0.0
  0
LINE
 39
0.0
 62
6
  8
0
 10
197.37418589939202
 20
20.43173237983393
 30
0.0
 11
191.1188240213038
 21
19.528221292133413
 31
0.0
  0
LINE
 39
0.0
 62
6
  8
0
 10
189.07412918515726
 20
18.462109705594056
 30
0.0
 11
191.1188240213038
 21
19.528221292133413
 31
0.0
  0
LINE
 39
0.0
 62
6
  8
0
 10
189.07412918515726
 20
18.462109705594056
 30
0.0
 11
183.68358770769856
 21
15.614281379216425
 31
0.0
  0
LINE
 39
0.0
 62
6
  8
0
 10
182.04932591118273
 20
13.633519036034558
 30
0.0
 11
183.68358770769856
 21
15.614281379216425
 31
0.0
  0
LINE
 39
0.0
 62
6
  8
0
 10
182.04932591118273
 20
13.633519036034556
 30
0.0
 11
178.00212320743657
 21
8.788041310113837
 31
0.0
  0
LINE
 39
0.0
 62
6
  8
0
 10
177.3191299811051
 20
6.219203795943789
 30
0.0
 11
178.00212320743657
 21
8.788041310113837
 31
0.0
  0
LINE
 39
0.0
 62
6
  8
0
 10
177.3191299811051
 20
6.2192037959437885
 30
0.0
 11
175.69472643989513
 21
0.0
 31
0.0
  0
LINE
 39
0.0
 62
6
  8
0
 10
175.69472643989513
 20
0.0
 30
0.0
 11
177.3191299811051
 21
-6.219203795943789
 31
0.0
  0
LINE
 39
0.0
 62
6
  8
0
 10
177.3191299811051
 20
-6.2192037959437885
 30
0.0
 11
178.00212320743657
 21
-8.788041310113837
 31
0.0
  0
LINE
 39
0.0
 62
6
  8
0
 10
178.00212320743657
 20
-8.788041310113837
 30
0.0
 11
182.04932591118273
 21
-13.633519036034558
 31
0.0
  0
LINE
 39
0.0
 62
6
  8
0
 10
182.04932591118273
 20
-13.633519036034556
 30
0.0
 11
183.68358770769856
 21
-15.614281379216425
 31
0.0
  0
LINE
 39
0.0
 62
6
  8
0
 10
183.68358770769856
 20
-15.614281379216425
 30
0.0
 11
189.07412918515726
 21
-18.462109705594056
 31
0.0
  0
LINE
 39
0.0
 62
6
  8
0
 10
189.07412918515726
 20
-18.462109705594056
 30
0.0
 11
191.1188240213038
 21
-19.528221292133413
 31
0.0
  0
LINE
 39
0.0
 62
6
  8
0
 10
191.1188240213038
 20
-19.528221292133413
 30
0.0
 11
197.37418589939202
 21
-20.43173237983393
 31
0.0
  0
LINE
 39
0.0
 62
6
  8
0
 10
197.37418589939202
 20
-20.43173237983393
 30
0.0
 11
199.66666666666669
 21
-20.725647287354175
 31
0.0
  0
LINE
 39
0.0
 62
6
  8
0
 10
201.95914743394135
 20
-20.43173237983393
 30
0.0
 11
199.66666666666669
 21
-20.725647287354175
 31
0.0
  0
LINE
 39
0.0
 62
6
  8
0
 10
201.95914743394135
 20
-20.43173237983393
 30
0.0
 11
208.21450931202958
 21
-19.528221292133413
 31
0.0
  0
LINE
 39
0.0
 62
6
  8
0
 10
210.2592041481761
 20
-18.462109705594056
 30
0.0
 11
208.21450931202958
 21
-19.528221292133413
 31
0.0
  0
LINE
 39
0.0
 62
6
  8
0
 10
210.2592041481761
 20
-18.462109705594056
 30
0.0
 11
215.6497456256348
 21
-15.614281379216425
 31
0.0
  0
LINE
 39
0.0
 62
6
  8
0
 10
217.28400742215064
 20
-13.633519036034558
 30
0.0
 11
215.6497456256348
 21
-15.614281379216425
 31
0.0
  0
LINE
 39
0.0
 62
6
  8
0
 10
217.28400742215064
 20
-13.633519036034556
 30
0.0
 11
221.3312101258968
 21
-8.788041310113837
 31
0.0
  0
LINE
 39
0.0
 62
6
  8
0
 10
222.01420335222826
 20
-6.219203795943789
 30
0.0
 11
221.3312101258968
 21
-8.788041310113837
 31
0.0
  0
LINE
 39
0.0
 62
6
  8
0
 10
222.01420335222826
 20
-6.2192037959437885
 30
0.0
 11
223.63860689343824
 21
0.0
 31
0.0
  0
LINE
 39
0.0
 62
6
  8
0
 10
223.63860689343824
 20
0.0
 30
0.0
 11
222.01420335222826
 21
6.219203795943789
 31
0.0
  0
LINE
 39
0.0
 62
6
  8
0
 10
222.01420335222826
 20
6.2192037959437885
 30
0.0
 11
221.3312101258968
 21
8.788041310113837
 31
0.0
  0
LINE
 39
0.0
 62
6
  8
0
 10
221.3312101258968
 20
8.788041310113837
 30
0.0
 11
217.28400742215064
 21
13.633519036034558
 31
0.0
  0
LINE
 39
0.0
 62
6
  8
0
 10
217.28400742215064
 20
13.633519036034556
 30
0.0
 11
215.6497456256348
 21
15.614281379216425
 31
0.0
  0
LINE
 39
0.0
 62
6
  8
0
 10
215.6497456256348
 20
15.614281379216425
 30
0.0
 11
210.2592041481761
 21
18.462109705594056
 31
0.0
  0
LINE
 39
0.0
 62
6
  8
0
 10
210.2592041481761
 20
18.462109705594056
 30
0.0
 11
208.21450931202958
 21
19.528221292133413
 31
0.0
  0
LINE
 39
0.0
 62
6
  8
0
 10
208.21450931202958
 20
19.528221292133413
 30
0.0
 11
201.95914743394135
 21
20.43173237983393
 31
0.0
  0
LINE
 39
0.0
 62
6
  8
0
 10
201.95914743394135
 20
20.43173237983393
 30
0.0
 11
199.66666666666669
 21
20.725647287354175
 31
0.0
  0
ENDBLK
  0
BLOCK
  8
0
  2
slices_y_6
  3
slices_y_6
 70
0
 10
0.0
 20
0.0
 30
0.0
  0
ENDBLK
  0
BLOCK
  8
0
  2
slices_z_6
  3
slices_z_6
 70
0
 10
0.0
 20
0.0
 30
0.0
  0
ENDBLK
  0
INSERT
  8
~slices_x
  2
slices_x_6
 10
0.0
 20
0.0
 30
0.0
  0
INSERT
  8
~slices_x
  2
slices_x_6
 10
0.0
 20
0.0
 30
0.0
  0
INSERT
  8
~slices_x
  2
slices_x_6
 10
0.0
 20
0.0
 30
0.0
  0
INSERT
  8
~slices_x
  2
slices_x_6
 10
0.0
 20
0.0
 30
0.0
  0
INSERT
  8
~slices_x
  2
slices_x_6
 10
0.0
 20
0.0
 30
0.0
  0
INSERT
  8
~slices_x
  2
slices_x_6
 10
0.0
 20
0.0
 30
0.0
  0
INSERT
  8
~slices_x
  2
slices_x_6
 10
0.0
 20
0.0
 30
0.0
  0
INSERT
  8
~slices_x
  2
slices_x_6
 10
0.0
 20
0.0
 30
0.0
  0
INSERT
  8
~slices_x
  2
slices_x_6
 10
0.0
 20
0.0
 30
0.0
  0
INSERT
  8
~slices_x
  2
slices_x_6
 10
0.0
 20
0.0
 30
0.0
  0
INSERT
  8
~slices_x
  2
slices_x_6
 10
0.0
 20
0.0
 30
0.0
  0
INSERT
  8
~slices_x
  2
slices_x_6
 10
0.0
 20
0.0
 30
0.0
  0
INSERT
  8
~slices_x
  2
slices_x_6
 10
0.0
 20
0.0
 30
0.0
  0
INSERT
  8
~slices_x
  2
slices_x_6
 10
0.0
 20
0.0
 30
0.0
  0
INSERT
  8
~slices_x
  2
slices_x_6
 10
0.0
 20
0.0
 30
0.0
  0
INSERT
  8
~slices_x
  2
slices_x_6
 10
0.0
 20
0.0
 30
0.0
  0
INSERT
  8
~slices_x
  2
slices_x_6
 10
0.0
 20
0.0
 30
0.0
  0
INSERT
  8
~slices_x
  2
slices_x_6
 10
0.0
 20
0.0
 30
0.0
  0
INSERT
  8
~slices_x
  2
slices_x_6
 10
0.0
 20
0.0
 30
0.0
  0
INSERT
  8
~slices_x
  2
slices_x_6
 10
0.0
 20
0.0
 30
0.0
  0
INSERT
  8
~slices_x
  2
slices_x_6
 10
0.0
 20
0.0
 30
0.0
  0
INSERT
  8
~slices_x
  2
slices_x_6
 10
0.0
 20
0.0
 30
0.0
  0
INSERT
  8
~slices_x
  2
slices_x_6
 10
0.0
 20
0.0
 30
0.0
  0
INSERT
  8
~slices_x
  2
slices_x_6
 10
0.0
 20
0.0
 30
0.0
  0
INSERT
  8
~slices_x
  2
slices_x_6
 10
0.0
 20
0.0
 30
0.0
  0
INSERT
  8
~slices_x
  2
slices_x_6
 10
0.0
 20
0.0
 30
0.0
  0
INSERT
  8
~slices_x
  2
slices_x_6
 10
0.0
 20
0.0
 30
0.0
  0
INSERT
  8
~slices_x
  2
slices_x_6
 10
0.0
 20
0.0
 30
0.0
  0
INSERT
  8
~slices_x
  2
slices_x_6
 10
0.0
 20
0.0
 30
0.0
  0
INSERT
  8
~slices_x
  2
slices_x_6
 10
0.0
 20
0.0
 30
0.0
  0
INSERT
  8
~slices_x
  2
slices_x_6
 10
0.0
 20
0.0
 30
0.0
  0
INSERT
  8
~slices_x
  2
slices_x_6
 10
0.0
 20
0.0
 30
0.0
  0
BLOCK
  8
0
  2
slices_x_7
  3
slices_x_7
 70
0
 10
0.0
 20
0.0
 30
0.0
  0
LINE
 39
0.0
 62
7
  8
0
 10
231.87214949849073
 20
17.48456802715778
 30
0.0
 11
232.7777777777778
 21
17.615702075393973
 31
0.0
  0
LINE
 39
0.0
 62
7
  8
0
 10
231.87214949849073
 20
17.484568027157785
 30
0.0
 11
226.33744578415062
 21
16.776056854944777
 31
0.0
  0
LINE
 39
0.0
 62
7
  8
0
 10
225.50240075834208
 20
16.272138582473847
 30
0.0
 11
226.33744578415062
 21
16.776056854944777
 31
0.0
  0
LINE
 39
0.0
 62
7
  8
0
 10
225.50240075834208
 20
16.27213858247385
 30
0.0
 11
220.50366251240834
 21
13.67107164728258
 31
0.0
  0
LINE
 39
0.0
 62
7
  8
0
 10
219.80368701683977
 20
12.711511496675831
 30
0.0
 11
220.5036625124083
 21
13.67107164728258
 31
0.0
  0
LINE
 39
0.0
 62
7
  8
0
 10
219.80368701683977
 20
12.711511496675831
 30
0.0
 11
215.71948454872648
 21
7.774002143727817
 31
0.0
  0
LINE
 39
0.0
 62
7
  8
0
 10
215.42064075038328
 20
6.538957964561515
 30
0.0
 11
215.71948454872648
 21
7.774002143727817
 31
0.0
  0
LINE
 39
0.0
 62
7
  8
0
 10
215.42064075038328
 20
6.538957964561514
 30
0.0
 11
213.67747279091762
 21
0.0
 31
0.0
  0
LINE
 39
0.0
 62
7
  8
0
 10
213.67747279091762
 20
0.0
 30
0.0
 11
215.42064075038328
 21
-6.538957964561515
 31
0.0
  0
LINE
 39
0.0
 62
7
  8
0
 10
215.42064075038328
 20
-6.538957964561514
 30
0.0
 11
215.71948454872648
 21
-7.774002143727817
 31
0.0
  0
LINE
 39
0.0
 62
7
  8
0
 10
215.71948454872648
 20
-7.774002143727817
 30
0.0
 11
219.80368701683977
 21
-12.711511496675831
 31
0.0
  0
LINE
 39
0.0
 62
7
  8
0
 10
219.80368701683977
 20
-12.711511496675831
 30
0.0
 11
220.50366251240834
 21
-13.67107164728258
 31
0.0
  0
LINE
 39
0.0
 62
7
  8
0
 10
220.5036625124083
 20
-13.67107164728258
 30
0.0
 11
225.50240075834208
 21
-16.272138582473847
 31
0.0
  0
LINE
 39
0.0
 62
7
  8
0
 10
225.50240075834208
 20
-16.27213858247385
 30
0.0
 11
226.33744578415062
 21
-16.776056854944777
 31
0.0
  0
LINE
 39
0.0
 62
7
  8
0
 10
226.33744578415062
 20
-16.776056854944777
 30
0.0
 11
231.87214949849073
 21
-17.48456802715778
 31
0.0
  0
LINE
 39
0.0
 62
7
  8
0
 10
231.87214949849073
 20
-17.484568027157785
 30
0.0
 11
232.7777777777778
 21
-17.615702075393973
 31
0.0
  0
LINE
 39
0.0
 62
7
  8
0
 10
233.68340605706487
 20
-17.48456802715778
 30
0.0
 11
232.7777777777778
 21
-17.615702075393973
 31
0.0
  0
LINE
 39
0.0
 62
7
  8
0
 10
233.68340605706487
 20
-17.484568027157785
 30
0.0
 11
239.21810977140498
 21
-16.776056854944777
 31
0.0
  0
LINE
 39
0.0
 62
7
  8
0
 10
240.05315479721352
 20
-16.272138582473847
 30
0.0
 11
239.21810977140498
 21
-16.776056854944777
 31
0.0
  0
LINE
 39
0.0
 62
7
  8
0
 10
240.05315479721352
 20
-16.27213858247385
 30
0.0
 11
245.05189304314726
 21
-13.67107164728258
 31
0.0
  0
LINE
 39
0.0
 62
7
  8
0
 10
245.75186853871583
 20
-12.711511496675831
 30
0.0
 11
245.0518930431473
 21
-13.67107164728258
 31
0.0
  0
LINE
 39
0.0
 62
7
  8
0
 10
245.75186853871583
 20
-12.711511496675831
 30
0.0
 11
249.83607100682912
 21
-7.774002143727817
 31
0.0
  0
LINE
 39
0.0
 62
7
  8
0
 10
250.13491480517231
 20
-6.538957964561515
 30
0.0
 11
249.83607100682912
 21
-7.774002143727817
 31
0.0
  0
LINE
 39
0.0
 62
7
  8
0
 10
250.13491480517231
 20
-6.538957964561514
 30
0.0
 11
251.87808276463798
 21
0.0
 31
0.0
  0
LINE
 39
0.0
 62
7
  8
0
 10
251.87808276463798
 20
0.0
 30
0.0
 11
250.13491480517231
 21
6.538957964561515
 31
0.0
  0
LINE
 39
0.0
 62
7
  8
0
 10
250.13491480517231
 20
6.538957964561514
 30
0.0
 11
249.83607100682912
 21
7.774002143727817
 31
0.0
  0
LINE
 39
0.0
 62
7
  8
0
 10
249.83607100682912
 20
7.774002143727817
 30
0.0
 11
245.75186853871583
 21
12.711511496675831
 31
0.0
  0
LINE
 39
0.0
 62
7
  8
0
 10
245.75186853871583
 20
12.711511496675831
 30
0.0
 11
245.05189304314726
 21
13.67107164728258
 31
0.0
  0
LINE
 39
0.0
 62
7
  8
0
 10
245.0518930431473
 20
13.67107164728258
 30
0.0
 11
240.05315479721352
 21
16.272138582473847
 31
0.0
  0
LINE
 39
0.0
 62
7
  8
0
 10
240.05315479721352
 20
16.27213858247385
 30
0.0
 11
239.21810977140498
 21
16.776056854944777
 31
0.0
  0
LINE
 39
0.0
 62
7
  8
0
 10
239.21810977140498
 20
16.776056854944777
 30
0.0
 11
233.68340605706487
 21
17.48456802715778
 31
0.0
  0
LINE
 39
0.0
 62
7
  8
0
 10
233.68340605706487
 20
17.484568027157785
 30
0.0
 11
232.7777777777778
 21
17.615702075393973
 31
0.0
  0
ENDBLK
  0
BLOCK
  8
0
  2
slices_y_7
  3
slices_y_7
 70
0
 10
0.0
 20
0.0
 30
0.0
  0
ENDBLK
  0
BLOCK
  8
0
  2
slices_z_7
  3
slices_z_7
 70
0
 10
0.0
 20
0.0
 30
0.0
  0
ENDBLK
  0
INSERT
  8
~slices_x
  2
slices_x_7
 10
0.0
 20
0.0
 30
0.0
  0
INSERT
  8
~slices_x
  2
slices_x_7
 10
0.0
 20
0.0
 30
0.0
  0
INSERT
  8
~slices_x
  2
slices_x_7
 10
0.0
 20
0.0
 30
0.0
  0
INSERT
  8
~slices_x
  2
slices_x_7
 10
0.0
 20
0.0
 30
0.0
  0
INSERT
  8
~slices_x
  2
slices_x_7
 10
0.0
 20
0.0
 30
0.0
  0
INSERT
  8
~slices_x
  2
slices_x_7
 10
0.0
 20
0.0
 30
0.0
  0
INSERT
  8
~slices_x
  2
slices_x_7
 10
0.0
 20
0.0
 30
0.0
  0
INSERT
  8
~slices_x
  2
slices_x_7
 10
0.0
 20
0.0
 30
0.0
  0
INSERT
  8
~slices_x
  2
slices_x_7
 10
0.0
 20
0.0
 30
0.0
  0
INSERT
  8
~slices_x
  2
slices_x_7
 10
0.0
 20
0.0
 30
0.0
  0
INSERT
  8
~slices_x
  2
slices_x_7
 10
0.0
 20
0.0
 30
0.0
  0
INSERT
  8
~slices_x
  2
slices_x_7
 10
0.0
 20
0.0
 30
0.0
  0
INSERT
  8
~slices_x
  2
slices_x_7
 10
0.0
 20
0.0
 30
0.0
  0
INSERT
  8
~slices_x
  2
slices_x_7
 10
0.0
 20
0.0
 30
0.0
  0
INSERT
  8
~slices_x
  2
slices_x_7
 10
0.0
 20
0.0
 30
0.0
  0
INSERT
  8
~slices_x
  2
slices_x_7
 10
0.0
 20
0.0
 30
0.0
  0
INSERT
  8
~slices_x
  2
slices_x_7
 10
0.0
 20
0.0
 30
0.0
  0
INSERT
  8
~slices_x
  2
slices_x_7
 10
0.0
 20
0.0
 30
0.0
  0
INSERT
  8
~slices_x
  2
slices_x_7
 10
0.0
 20
0.0
 30
0.0
  0
INSERT
  8
~slices_x
  2
slices_x_7
 10
0.0
 20
0.0
 30
0.0
  0
INSERT
  8
~slices_x
  2
slices_x_7
 10
0.0
 20
0.0
 30
0.0
  0
INSERT
  8
~slices_x
  2
slices_x_7
 10
0.0
 20
0.0
 30
0.0
  0
INSERT
  8
~slices_x
  2
slices_x_7
 10
0.0
 20
0.0
 30
0.0
  0
INSERT
  8
~slices_x
  2
slices_x_7
 10
0.0
 20
0.0
 30
0.0
  0
INSERT
  8
~slices_x
  2
slices_x_7
 10
0.0
 20
0.0
 30
0.0
  0
INSERT
  8
~slices_x
  2
slices_x_7
 10
0.0
 20
0.0
 30
0.0
  0
INSERT
  8
~slices_x
  2
slices_x_7
 10
0.0
 20
0.0
 30
0.0
  0
INSERT
  8
~slices_x
  2
slices_x_7
 10
0.0
 20
0.0
 30
0.0
  0
INSERT
  8
~slices_x
  2
slices_x_7
 10
0.0
 20
0.0
 30
0.0
  0
INSERT
  8
~slices_x
  2
slices_x_7
 10
0.0
 20
0.0
 30
0.0
  0
INSERT
  8
~slices_x
  2
slices_x_7
 10
0.0
 20
0.0
 30
0.0
  0
INSERT
  8
~slices_x
  2
slices_x_7
 10
0.0
 20
0.0
 30
0.0
  0
BLOCK
  8
0
  2
slices_x_8
  3
slices_x_8
 70
0
 10
0.0
 20
0.0
 30
0.0
  0
LINE
 39
0.0
 62
8
  8
0
 10
265.7464906598617
 20
14.007300241757767
 30
0.0
 11
265.8888888888889
 21
14.064859049846962
 31
0.0
  0
LINE
 39
0.0
 62
8
  8
0
 10
265.7464906598617
 20
14.007300241757765
 30
0.0
 11
261.68172275986643
 21
13.420392278616504
 31
0.0
  0
LINE
 39
0.0
 62
8
  8
0
 10
261.56808160886493
 20
13.267100651494424
 30
0.0
 11
261.68172275986643
 21
13.420392278616504
 31
0.0
  0
LINE
 39
0.0
 62
8
  8
0
 10
261.56808160886493
 20
13.267100651494424
 30
0.0
 11
257.7596070633017
 21
10.97809650649726
 31
0.0
  0
LINE
 39
0.0
 62
8
  8
0
 10
257.6878442924769
 20
10.765294044396919
 30
0.0
 11
257.7596070633017
 21
10.97809650649726
 31
0.0
  0
LINE
 39
0.0
 62
8
  8
0
 10
257.6878442924769
 20
10.76529404439692
 30
0.0
 11
254.3855809525246
 21
6.259445948055051
 31
0.0
  0
LINE
 39
0.0
 62
8
  8
0
 10
254.36160013206566
 20
6.022135820565183
 30
0.0
 11
254.3855809525246
 21
6.259445948055051
 31
0.0
  0
LINE
 39
0.0
 62
8
  8
0
 10
254.36160013206566
 20
6.022135820565183
 30
0.0
 11
252.89787338102468
 21
0.0
 31
0.0
  0
LINE
 39
0.0
 62
8
  8
0
 10
252.89787338102468
 20
0.0
 30
0.0
 11
254.36160013206566
 21
-6.022135820565183
 31
0.0
  0
LINE
 39
0.0
 62
8
  8
0
 10
254.36160013206566
 20
-6.022135820565183
 30
0.0
 11
254.3855809525246
 21
-6.259445948055051
 31
0.0
  0
LINE
 39
0.0
 62
8
  8
0
 10
254.3855809525246
 20
-6.259445948055051
 30
0.0
 11
257.6878442924769
 21
-10.765294044396919
 31
0.0
  0
LINE
 39
0.0
 62
8
  8
0
 10
257.6878442924769
 20
-10.76529404439692
 30
0.0
 11
257.7596070633017
 21
-10.97809650649726
 31
0.0
  0
LINE
 39
0.0
 62
8
  8
0
 10
257.7596070633017
 20
-10.97809650649726
 30
0.0
 11
261.56808160886493
 21
-13.267100651494424
 31
0.0
  0
LINE
 39
0.0
 62
8
  8
0
 10
261.56808160886493
 20
-13.267100651494424
 30
0.0
 11
261.68172275986643
 21
-13.420392278616504
 31
0.0
  0
LINE
 39
0.0
 62
8
  8
0
 10
261.68172275986643
 20
-13.420392278616504
 30
0.0
 11
265.7464906598617
 21
-14.007300241757767
 31
0.0
  0
LINE
 39
0.0
 62
8
  8
0
 10
265.7464906598617
 20
-14.007300241757765
 30
0.0
 11
265.8888888888889
 21
-14.06485904984696
 31
0.0
  0
LINE
 39
0.0
 62
8
  8
0
 10
266.0312871179161
 20
-14.007300241757767
 30
0.0
 11
265.8888888888889
 21
-14.064859049846962
 31
0.0
  0
LINE
 39
0.0
 62
8
  8
0
 10
266.0312871179161
 20
-14.007300241757765
 30
0.0
 11
270.0960550179114
 21
-13.420392278616504
 31
0.0
  0
LINE
 39
0.0
 62
8
  8
0
 10
270.2096961689129
 20
-13.267100651494424
 30
0.0
 11
270.0960550179114
 21
-13.420392278616504
 31
0.0
  0
LINE
 39
0.0
 62
8
  8
0
 10
270.2096961689129
 20
-13.267100651494424
 30
0.0
 11
274.0181707144761
 21
-10.97809650649726
 31
0.0
  0
LINE
 39
0.0
 62
8
  8
0
 10
274.08993348530095
 20
-10.765294044396919
 30
0.0
 11
274.0181707144761
 21
-10.97809650649726
 31
0.0
  0
LINE
 39
0.0
 62
8
  8
0
 10
274.08993348530095
 20
-10.76529404439692
 30
0.0
 11
277.3921968252532
 21
-6.259445948055051
 31
0.0
  0
LINE
 39
0.0
 62
8
  8
0
 10
277.4161776457122
 20
-6.022135820565183
 30
0.0
 11
277.3921968252532
 21
-6.259445948055051
 31
0.0
  0
LINE
 39
0.0
 62
8
  8
0
 10
277.4161776457122
 20
-6.022135820565183
 30
0.0
 11
278.87990439675315
 21
0.0
 31
0.0
  0
LINE
 39
0.0
 62
8
  8
0
 10
278.87990439675315
 20
0.0
 30
0.0
 11
277.4161776457122
 21
6.022135820565183
 31
0.0
  0
LINE
 39
0.0
 62
8
  8
0
 10
277.4161776457122
 20
6.022135820565183
 30
0.0
 11
277.3921968252532
 21
6.259445948055051
 31
0.0
  0
LINE
 39
0.0
 62
8
  8
0
 10
277.3921968252532
 20
6.259445948055051
 30
0.0
 11
274.08993348530095
 21
10.765294044396919
 31
0.0
  0
LINE
 39
0.0
 62
8
  8
0
 10
274.08993348530095
 20
10.76529404439692
 30
0.0
 11
274.0181707144761
 21
10.97809650649726
 31
0.0
  0
LINE
 39
0.0
 62
8
  8
0
 10
274.0181707144761
 20
10.97809650649726
 30
0.0
 11
270.2096961689129
 21
13.267100651494424
 31
0.0
  0
LINE
 39
0.0
 62
8
  8
0
 10
270.2096961689129
 20
13.267100651494424
 30
0.0
 11
270.0960550179114
 21
13.420392278616504
 31
0.0
  0
LINE
 39
0.0
 62
8
  8
0
 10
270.0960550179114
 20
13.420392278616504
 30
0.0
 11
266.0312871179161
 21
14.007300241757767
 31
0.0
  0
LINE
 39
0.0
 62
8
  8
0
 10
266.0312871179161
 20
14.007300241757765
 30
0.0
 11
265.8888888888889
 21
14.06485904984696
 31
0.0
  0
ENDBLK
  0
BLOCK
  8
0
  2
slices_y_8
  3
slices_y_8
 70
0
 10
0.0
 20
0.0
 30
0.0
  0
ENDBLK
  0
BLOCK
  8
0
  2
slices_z_8
  3
slices_z_8
 70
0
 10
0.0
 20
0.0
 30
0.0
  0
ENDBLK
  0
INSERT
  8
~slices_x
  2
slices_x_8
 10
0.0
 20
0.0
 30
0.0
  0
INSERT
  8
~slices_x
  2
slices_x_8
 10
0.0
 20
0.0
 30
0.0
  0
INSERT
  8
~slices_x
  2
slices_x_8
 10
0.0
 20
0.0
 30
0.0
  0
INSERT
  8
~slices_x
  2
slices_x_8
 10
0.0
 20
0.0
 30
0.0
  0
INSERT
  8
~slices_x
  2
slices_x_8
 10
0.0
 20
0.0
 30
0.0
  0
INSERT
  8
~slices_x
  2
slices_x_8
 10
0.0
 20
0.0
 30
0.0
  0
INSERT
  8
~slices_x
  2
slices_x_8
 10
0.0
 20
0.0
 30
0.0
  0
INSERT
  8
~slices_x
  2
slices_x_8
 10
0.0
 20
0.0
 30
0.0
  0
INSERT
  8
~slices_x
  2
slices_x_8
 10
0.0
 20
0.0
 30
0.0
  0
INSERT
  8
~slices_x
  2
slices_x_8
 10
0.0
 20
0.0
 30
0.0
  0
INSERT
  8
~slices_x
  2
slices_x_8
 10
0.0
 20
0.0
 30
0.0
  0
INSERT
  8
~slices_x
  2
slices_x_8
 10
0.0
 20
0.0
 30
0.0
  0
INSERT
  8
~slices_x
  2
slices_x_8
 10
0.0
 20
0.0
 30
0.0
  0
INSERT
  8
~slices_x
  2
slices_x_8
 10
0.0
 20
0.0
 30
0.0
  0
INSERT
  8
~slices_x
  2
slices_x_8
 10
0.0
 20
0.0
 30
0.0
  0
INSERT
  8
~slices_x
  2
slices_x_8
 10
0.0
 20
0.0
 30
0.0
  0
INSERT
  8
~slices_x
  2
slices_x_8
 10
0.0
 20
0.0
 30
0.0
  0
INSERT
  8
~slices_x
  2
slices_x_8
 10
0.0
 20
0.0
 30
0.0
  0
INSERT
  8
~slices_x
  2
slices_x_8
 10
0.0
 20
0.0
 30
0.0
  0
INSERT
  8
~slices_x
  2
slices_x_8
 10
0.0
 20
0.0
 30
0.0
  0
INSERT
  8
~slices_x
  2
slices_x_8
 10
0.0
 20
0.0
 30
0.0
  0
INSERT
  8
~slices_x
  2
slices_x_8
 10
0.0
 20
0.0
 30
0.0
  0
INSERT
  8
~slices_x
  2
slices_x_8
 10
0.0
 20
0.0
 30
0.0
  0
INSERT
  8
~slices_x
  2
slices_x_8
 10
0.0
 20
0.0
 30
0.0
  0
INSERT
  8
~slices_x
  2
slices_x_8
 10
0.0
 20
0.0
 30
0.0
  0
INSERT
  8
~slices_x
  2
slices_x_8
 10
0.0
 20
0.0
 30
0.0
  0
INSERT
  8
~slices_x
  2
slices_x_8
 10
0.0
 20
0.0
 30
0.0
  0
INSERT
  8
~slices_x
  2
slices_x_8
 10
0.0
 20
0.0
 30
0.0
  0
INSERT
  8
~slices_x
  2
slices_x_8
 10
0.0
 20
0.0
 30
0.0
  0
INSERT
  8
~slices_x
  2
slices_x_8
 10
0.0
 20
0.0
 30
0.0
  0
INSERT
  8
~slices_x
  2
slices_x_8
 10
0.0
 20
0.0
 30
0.0
  0
INSERT
  8
~slices_x
  2
slices_x_8
 10
0.0
 20
0.0
 30
0.0
  0
BLOCK
  8
0
  2
slices_x_9
  3
slices_x_9
 70
0
 10
0.0
 20
0.0
 30
0.0
  0
LINE
 39
0.0
 62
9
  8
0
 10
297.1074120779764
 20
9.354162020116677
 30
0.0
 11
299.0
 21
10.119165249018314
 31
0.0
  0
LINE
 39
0.0
 62
9
  8
0
 10
297.1074120779764
 20
9.354162020116677
 30
0.0
 11
296.98824950110355
 21
9.336956249210257
 31
0.0
  0
LINE
 39
0.0
 62
9
  8
0
 10
295.4421176432566
 20
7.2513643122587945
 30
0.0
 11
296.98824950110355
 21
9.336956249210255
 31
0.0
  0
LINE
 39
0.0
 62
9
  8
0
 10
295.4421176432566
 20
7.2513643122587945
 30
0.0
 11
295.33046855234437
 21
7.184259956216533
 31
0.0
  0
LINE
 39
0.0
 62
9
  8
0
 10
294.2878167056426
 20
4.092421701627272
 30
0.0
 11
295.33046855234437
 21
7.184259956216533
 31
0.0
  0
LINE
 39
0.0
 62
9
  8
0
 10
294.2878167056426
 20
4.092421701627272
 30
0.0
 11
294.1910076826473
 21
3.9603284349592687
 31
0.0
  0
LINE
 39
0.0
 62
9
  8
0
 10
293.8086462579433
 20
0.17654469832275765
 30
0.0
 11
294.1910076826473
 21
3.9603284349592687
 31
0.0
  0
LINE
 39
0.0
 62
9
  8
0
 10
293.8086462579433
 20
0.17654469832275796
 30
0.0
 11
293.7657357017238
 21
0.0
 31
0.0
  0
LINE
 39
0.0
 62
9
  8
0
 10
293.7657357017238
 20
0.0
 30
0.0
 11
293.8086462579433
 21
-0.17654469832275765
 31
0.0
  0
LINE
 39
0.0
 62
9
  8
0
 10
293.8086462579433
 20
-0.17654469832275796
 30
0.0
 11
294.1910076826473
 21
-3.9603284349592687
 31
0.0
  0
LINE
 39
0.0
 62
9
  8
0
 10
294.1910076826473
 20
-3.9603284349592687
 30
0.0
 11
294.2878167056426
 21
-4.092421701627272
 31
0.0
  0
LINE
 39
0.0
 62
9
  8
0
 10
294.2878167056426
 20
-4.092421701627272
 30
0.0
 11
295.33046855234437
 21
-7.184259956216533
 31
0.0
  0
LINE
 39
0.0
 62
9
  8
0
 10
295.33046855234437
 20
-7.184259956216533
 30
0.0
 11
295.4421176432566
 21
-7.2513643122587945
 31
0.0
  0
LINE
 39
0.0
 62
9
  8
0
 10
295.4421176432566
 20
-7.2513643122587945
 30
0.0
 11
296.98824950110355
 21
-9.336956249210257
 31
0.0
  0
LINE
 39
0.0
 62
9
  8
0
 10
296.98824950110355
 20
-9.336956249210255
 30
0.0
 11
297.1074120779764
 21
-9.354162020116677
 31
0.0
  0
LINE
 39
0.0
 62
9
  8
0
 10
297.1074120779764
 20
-9.354162020116677
 30
0.0
 11
299.0
 21
-10.119165249018316
 31
0.0
  0
LINE
 39
0.0
 62
9
  8
0
 10
300.8925879220236
 20
-9.354162020116677
 30
0.0
 11
299.0
 21
-10.119165249018314
 31
0.0
  0
LINE
 39
0.0
 62
9
  8
0
 10
300.8925879220236
 20
-9.354162020116677
 30
0.0
 11
301.01175049889645
 21
-9.336956249210257
 31
0.0
  0
LINE
 39
0.0
 62
9
  8
0
 10
302.5578823567434
 20
-7.2513643122587945
 30
0.0
 11
301.01175049889645
 21
-9.336956249210255
 31
0.0
  0
LINE
 39
0.0
 62
9
  8
0
 10
302.5578823567434
 20
-7.2513643122587945
 30
0.0
 11
302.66953144765563
 21
-7.184259956216533
 31
0.0
  0
LINE
 39
0.0
 62
9
  8
0
 10
303.7121832943574
 20
-4.092421701627272
 30
0.0
 11
302.66953144765563
 21
-7.184259956216533
 31
0.0
  0
LINE
 39
0.0
 62
9
  8
0
 10
303.7121832943574
 20
-4.092421701627272
 30
0.0
 11
303.8089923173527
 21
-3.9603284349592687
 31
0.0
  0
LINE
 39
0.0
 62
9
  8
0
 10
304.1913537420567
 20
-0.17654469832275765
 30
0.0
 11
303.8089923173527
 21
-3.9603284349592687
 31
0.0
  0
LINE
 39
0.0
 62
9
  8
0
 10
304.1913537420567
 20
-0.17654469832275796
 30
0.0
 11
304.2342642982762
 21
0.0
 31
0.0
  0
LINE
 39
0.0
 62
9
  8
0
 10
304.2342642982762
 20
0.0
 30
0.0
 11
304.1913537420567
 21
0.17654469832275765
 31
0.0
  0
LINE
 39
0.0
 62
9
  8
0
 10
304.1913537420567
 20
0.17654469832275796
 30
0.0
 11
303.8089923173527
 21
3.9603284349592687
 31
0.0
  0
LINE
 39
0.0
 62
9
  8
0
 10
303.8089923173527
 20
3.9603284349592687
 30
0.0
 11
303.7121832943574
 21
4.092421701627272
 31
0.0
  0
LINE
 39
0.0
 62
9
  8
0
 10
303.7121832943574
 20
4.092421701627272
 30
0.0
 11
302.66953144765563
 21
7.184259956216533
 31
0.0
  0
LINE
 39
0.0
 62
9
  8
0
 10
302.66953144765563
 20
7.184259956216533
 30
0.0
 11
302.5578823567434
 21
7.2513643122587945
 31
0.0
  0
LINE
 39
0.0
 62
9
  8
0
 10
302.5578823567434
 20
7.2513643122587945
 30
0.0
 11
301.01175049889645
 21
9.336956249210257
 31
0.0
  0
LINE
 39
0.0
 62
9
  8
0
 10
301.01175049889645
 20
9.336956249210255
 30
0.0
 11
300.8925879220236
 21
9.354162020116677
 31
0.0
  0
LINE
 39
0.0
 62
9
  8
0
 10
300.8925879220236
 20
9.354162020116677
 30
0.0
 11
299.0
 21
10.119165249018316
 31
0.0
  0
ENDBLK
  0
BLOCK
  8
0
  2
slices_y_9
  3
slices_y_9
 70
0
 10
0.0
 20
0.0
 30
0.0
  0
ENDBLK
  0
BLOCK
  8
0
  2
slices_z_9
  3
slices_z_9
 70
0
 10
0.0
 20
0.0
 30
0.0
  0
ENDBLK
  0
INSERT
  8
~slices_x
  2
slices_x_9
 10
0.0
 20
0.0
 30
0.0
  0
INSERT
  8
~slices_x
  2
slices_x_9
 10
0.0
 20
0.0
 30
0.0
  0
INSERT
  8
~slices_x
  2
slices_x_9
 10
0.0
 20
0.0
 30
0.0
  0
INSERT
  8
~slices_x
  2
slices_x_9
 10
0.0
 20
0.0
 30
0.0
  0
INSERT
  8
~slices_x
  2
slices_x_9
 10
0.0
 20
0.0
 30
0.0
  0
INSERT
  8
~slices_x
  2
slices_x_9
 10
0.0
 20
0.0
 30
0.0
  0
INSERT
  8
~slices_x
  2
slices_x_9
 10
0.0
 20
0.0
 30
0.0
  0
INSERT
  8
~slices_x
  2
slices_x_9
 10
0.0
 20
0.0
 30
0.0
  0
INSERT
  8
~slices_x
  2
slices_x_9
 10
0.0
 20
0.0
 30
0.0
  0
INSERT
  8
~slices_x
  2
slices_x_9
 10
0.0
 20
0.0
 30
0.0
  0
INSERT
  8
~slices_x
  2
slices_x_9
 10
0.0
 20
0.0
 30
0.0
  0
INSERT
  8
~slices_x
  2
slices_x_9
 10
0.0
 20
0.0
 30
0.0
  0
INSERT
  8
~slices_x
  2
slices_x_9
 10
0.0
 20
0.0
 30
0.0
  0
INSERT
  8
~slices_x
  2
slices_x_9
 10
0.0
 20
0.0
 30
0.0
  0
INSERT
  8
~slices_x
  2
slices_x_9
 10
0.0
 20
0.0
 30
0.0
  0
INSERT
  8
~slices_x
  2
slices_x_9
 10
0.0
 20
0.0
 30
0.0
  0
INSERT
  8
~slices_x
  2
slices_x_9
 10
0.0
 20
0.0
 30
0.0
  0
INSERT
  8
~slices_x
  2
slices_x_9
 10
0.0
 20
0.0
 30
0.0
  0
INSERT
  8
~slices_x
  2
slices_x_9
 10
0.0
 20
0.0
 30
0.0
  0
INSERT
  8
~slices_x
  2
slices_x_9
 10
0.0
 20
0.0
 30
0.0
  0
INSERT
  8
~slices_x
  2
slices_x_9
 10
0.0
 20
0.0
 30
0.0
  0
INSERT
  8
~slices_x
  2
slices_x_9
 10
0.0
 20
0.0
 30
0.0
  0
INSERT
  8
~slices_x
  2
slices_x_9
 10
0.0
 20
0.0
 30
0.0
  0
INSERT
  8
~slices_x
  2
slices_x_9
 10
0.0
 20
0.0
 30
0.0
  0
INSERT
  8
~slices_x
  2
slices_x_9
 10
0.0
 20
0.0
 30
0.0
  0
INSERT
  8
~slices_x
  2
slices_x_9
 10
0.0
 20
0.0
 30
0.0
  0
INSERT
  8
~slices_x
  2
slices_x_9
 10
0.0
 20
0.0
 30
0.0
  0
INSERT
  8
~slices_x
  2
slices_x_9
 10
0.0
 20
0.0
 30
0.0
  0
INSERT
  8
~slices_x
  2
slices_x_9
 10
0.0
 20
0.0
 30
0.0
  0
INSERT
  8
~slices_x
  2
slices_x_9
 10
0.0
 20
0.0
 30
0.0
  0
INSERT
  8
~slices_x
  2
slices_x_9
 10
0.0
 20
0.0
 30
0.0
  0
INSERT
  8
~slices_x
  2
slices_x_9
 10
0.0
 20
0.0
 30
0.0
  0
BLOCK
  8
0
  2
slices_x_0
  3
slices_x_0
 70
0
 10
0.0
 20
0.0
 30
0.0
  0
ENDBLK
  0
BLOCK
  8
0
  2
slices_y_0
  3
slices_y_0
 70
0
 10
0.0
 20
0.0
 30
0.0
  0
LINE
 39
0.0
 62
0
  8
0
 10
20.080303
 20
-16.632624
 30
0.0
 11
20.080303
 21
-16.632624
 31
0.0
  0
LINE
 39
0.0
 62
0
  8
0
 10
-0.0
 20
-10.0
 30
0.0
 11
20.080303
 21
-16.632624
 31
0.0
  0
LINE
 39
0.0
 62
0
  8
0
 10
20.080303
 20
-16.632624
 30
0.0
 11
-0.0
 21
-10.0
 31
0.0
  0
LINE
 39
0.0
 62
0
  8
0
 10
20.080303
 20
-16.632624
 30
0.0
 11
20.080303
 21
-16.632624
 31
0.0
  0
LINE
 39
0.0
 62
0
  8
0
 10
20.080303
 20
16.632624
 30
0.0
 11
20.080303
 21
16.632624
 31
0.0
  0
LINE
 39
0.0
 62
0
  8
0
 10
0.0
 20
10.0
 30
0.0
 11
20.080303
 21
16.632624
 31
0.0
  0
LINE
 39
0.0
 62
0
  8
0
 10
20.080303
 20
16.632624
 30
0.0
 11
0.0
 21
10.0
 31
0.0
  0
LINE
 39
0.0
 62
0
  8
0
 10
20.080303
 20
16.632624
 30
0.0
 11
20.080303
 21
16.632624
 31
0.0
  0
LINE
 39
0.0
 62
0
  8
0
 10
44.232635
 20
-22.161701
 30
0.0
 11
44.232635
 21
-22.161701
 31
0.0
  0
LINE
 39
0.0
 62
0
  8
0
 10
20.080303
 20
-16.632624
 30
0.0
 11
44.232635
 21
-22.161701
 31
0.0
  0
LINE
 39
0.0
 62
0
  8
0
 10
44.232635
 20
-22.161701
 30
0.0
 11
20.080303
 21
-16.632624
 31
0.0
  0
LINE
 39
0.0
 62
0
  8
0
 10
44.232635
 20
-22.161701
 30
0.0
 11
44.232635
 21
-22.161701
 31
0.0
  0
LINE
 39
0.0
 62
0
  8
0
 10
44.232635
 20
22.161701
 30
0.0
 11
44.232635
 21
22.161701
 31
0.0
  0
LINE
 39
0.0
 62
0
  8
0
 10
20.080303
 20
16.632624
 30
0.0
 11
44.232635
 21
22.161701
 31
0.0
  0
LINE
 39
0.0
 62
0
  8
0
 10
44.232635
 20
22.161701
 30
0.0
 11
20.080303
 21
16.632624
 31
0.0
  0
LINE
 39
0.0
 62
0
  8
0
 10
44.232635
 20
22.161701
 30
0.0
 11
44.232635
 21
22.161701
 31
0.0
  0
LINE
 39
0.0
 62
0
  8
0
 10
70.766693
 20
-26.374468
 30
0.0
 11
70.766693
 21
-26.374468
 31
0.0
  0
LINE
 39
0.0
 62
0
  8
0
 10
44.232635
 20
-22.161701
 30
0.0
 11
70.766693
 21
-26.374468
 31
0.0
  0
LINE
 39
0.0
 62
0
  8
0
 10
70.766693
 20
-26.374468
 30
0.0
 11
44.232635
 21
-22.161701
 31
0.0
  0
LINE
 39
0.0
 62
0
  8
0
 10
70.766693
 20
-26.374468
 30
0.0
 11
70.766693
 21
-26.374468
 31
0.0
  0
LINE
 39
0.0
 62
0
  8
0
 10
70.766693
 20
26.374468
 30
0.0
 11
70.766693
 21
26.374468
 31
0.0
  0
LINE
 39
0.0
 62
0
  8
0
 10
44.232635
 20
22.161701
 30
0.0
 11
70.766693
 21
26.374468
 31
0.0
  0
LINE
 39
0.0
 62
0
  8
0
 10
70.766693
 20
26.374468
 30
0.0
 11
44.232635
 21
22.161701
 31
0.0
  0
LINE
 39
0.0
 62
0
  8
0
 10
70.766693
 20
26.374468
 30
0.0
 11
70.766693
 21
26.374468
 31
0.0
  0
LINE
 39
0.0
 62
0
  8
0
 10
97.992165
 20
-29.058155
 30
0.0
 11
97.992165
 21
-29.058155
 31
0.0
  0
LINE
 39
0.0
 62
0
  8
0
 10
70.766693
 20
-26.374468
 30
0.0
 11
97.992165
 21
-29.058155
 31
0.0
  0
LINE
 39
0.0
 62
0
  8
0
 10
97.992165
 20
-29.058155
 30
0.0
 11
70.766693
 21
-26.374468
 31
0.0
  0
LINE
 39
0.0
 62
0
  8
0
 10
97.992165
 20
-29.058155
 30
0.0
 11
97.992165
 21
-29.058155
 31
0.0
  0
LINE
 39
0.0
 62
0
  8
0
 10
97.992165
 20
29.058155
 30
0.0
 11
97.992165
 21
29.058155
 31
0.0
  0
LINE
 39
0.0
 62
0
  8
0
 10
70.766693
 20
26.374468
 30
0.0
 11
97.992165
 21
29.058155
 31
0.0
  0
LINE
 39
0.0
 62
0
  8
0
 10
97.992165
 20
29.058155
 30
0.0
 11
70.766693
 21
26.374468
 31
0.0
  0
LINE
 39
0.0
 62
0
  8
0
 10
97.992165
 20
29.058155
 30
0.0
 11
97.992165
 21
29.058155
 31
0.0
  0
LINE
 39
0.0
 62
0
  8
0
 10
124.21875
 20
-30.0
 30
0.0
 11
124.21875
 21
-30.0
 31
0.0
  0
LINE
 39
0.0
 62
0
  8
0
 10
97.992165
 20
-29.058155
 30
0.0
 11
124.21875
 21
-30.0
 31
0.0
  0
LINE
 39
0.0
 62
0
  8
0
 10
124.21875
 20
-30.0
 30
0.0
 11
97.992165
 21
-29.058155
 31
0.0
  0
LINE
 39
0.0
 62
0
  8
0
 10
124.21875
 20
-30.0
 30
0.0
 11
124.21875
 21
-30.0
 31
0.0
  0
LINE
 39
0.0
 62
0
  8
0
 10
124.21875
 20
30.0
 30
0.0
 11
124.21875
 21
30.0
 31
0.0
  0
LINE
 39
0.0
 62
0
  8
0
 10
97.992165
 20
29.058155
 30
0.0
 11
124.21875
 21
30.0
 31
0.0
  0
LINE
 39
0.0
 62
0
  8
0
 10
124.21875
 20
30.0
 30
0.0
 11
97.992165
 21
29.058155
 31
0.0
  0
LINE
 39
0.0
 62
0
  8
0
 10
124.21875
 20
30.0
 30
0.0
 11
124.21875
 21
30.0
 31
0.0
  0
LINE
 39
0.0
 62
0
  8
0
 10
153.11676
 20
-28.870508
 30
0.0
 11
153.11676
 21
-28.870508
 31
0.0
  0
LINE
 39
0.0
 62
0
  8
0
 10
124.21875
 20
-30.0
 30
0.0
 11
153.11676
 21
-28.870508
 31
0.0
  0
LINE
 39
0.0
 62
0
  8
0
 10
153.11676
 20
-28.870508
 30
0.0
 11
124.21875
 21
-30.0
 31
0.0
  0
LINE
 39
0.0
 62
0
  8
0
 10
153.11676
 20
-28.870508
 30
0.0
 11
153.11676
 21
-28.870508
 31
0.0
  0
LINE
 39
0.0
 62
0
  8
0
 10
153.11676
 20
28.870508
 30
0.0
 11
153.11676
 21
28.870508
 31
0.0
  0
LINE
 39
0.0
 62
0
  8
0
 10
124.21875
 20
30.0
 30
0.0
 11
153.11676
 21
28.870508
 31
0.0
  0
LINE
 39
0.0
 62
0
  8
0
 10
153.11676
 20
28.870508
 30
0.0
 11
124.21875
 21
30.0
 31
0.0
  0
LINE
 39
0.0
 62
0
  8
0
 10
153.11676
 20
28.870508
 30
0.0
 11
153.11676
 21
28.870508
 31
0.0
  0
LINE
 39
0.0
 62
0
  8
0
 10
187.747589
 20
-25.611523
 30
0.0
 11
187.747589
 21
-25.611523
 31
0.0
  0
LINE
 39
0.0
 62
0
  8
0
 10
153.11676
 20
-28.870508
 30
0.0
 11
187.747589
 21
-25.611523
 31
0.0
  0
LINE
 39
0.0
 62
0
  8
0
 10
187.747589
 20
-25.611523
 30
0.0
 11
153.11676
 21
-28.870508
 31
0.0
  0
LINE
 39
0.0
 62
0
  8
0
 10
187.747589
 20
-25.611523
 30
0.0
 11
187.747589
 21
-25.611523
 31
0.0
  0
LINE
 39
0.0
 62
0
  8
0
 10
187.747589
 20
25.611523
 30
0.0
 11
187.747589
 21
25.611523
 31
0.0
  0
LINE
 39
0.0
 62
0
  8
0
 10
153.11676
 20
28.870508
 30
0.0
 11
187.747589
 21
25.611523
 31
0.0
  0
LINE
 39
0.0
 62
0
  8
0
 10
187.747589
 20
25.611523
 30
0.0
 11
153.11676
 21
28.870508
 31
0.0
  0
LINE
 39
0.0
 62
0
  8
0
 10
187.747589
 20
25.611523
 30
0.0
 11
187.747589
 21
25.611523
 31
0.0
  0
LINE
 39
0.0
 62
0
  8
0
 10
225.507538
 20
-20.417282
 30
0.0
 11
225.507538
 21
-20.417282
 31
0.0
  0
LINE
 39
0.0
 62
0
  8
0
 10
187.747589
 20
-25.611523
 30
0.0
 11
225.507538
 21
-20.417282
 31
0.0
  0
LINE
 39
0.0
 62
0
  8
0
 10
225.507538
 20
-20.417282
 30
0.0
 11
187.747589
 21
-25.611523
 31
0.0
  0
LINE
 39
0.0
 62
0
  8
0
 10
225.507538
 20
-20.417282
 30
0.0
 11
225.507538
 21
-20.417282
 31
0.0
  0
LINE
 39
0.0
 62
0
  8
0
 10
225.507538
 20
20.417282
 30
0.0
 11
225.507538
 21
20.417282
 31
0.0
  0
LINE
 39
0.0
 62
0
  8
0
 10
187.747589
 20
25.611523
 30
0.0
 11
225.507538
 21
20.417282
 31
0.0
  0
LINE
 39
0.0
 62
0
  8
0
 10
225.507538
 20
20.417282
 30
0.0
 11
187.747589
 21
25.611523
 31
0.0
  0
LINE
 39
0.0
 62
0
  8
0
 10
225.507538
 20
20.417282
 30
0.0
 11
225.507538
 21
20.417282
 31
0.0
  0
LINE
 39
0.0
 62
0
  8
0
 10
263.792908
 20
-13.482029
 30
0.0
 11
263.792908
 21
-13.482029
 31
0.0
  0
LINE
 39
0.0
 62
0
  8
0
 10
225.507538
 20
-20.417282
 30
0.0
 11
263.792908
 21
-13.482029
 31
0.0
  0
LINE
 39
0.0
 62
0
  8
0
 10
263.792908
 20
-13.482029
 30
0.0
 11
225.507538
 21
-20.417282
 31
0.0
  0
LINE
 39
0.0
 62
0
  8
0
 10
263.792908
 20
-13.482029
 30
0.0
 11
263.792908
 21
-13.482029
 31
0.0
  0
LINE
 39
0.0
 62
0
  8
0
 10
263.792908
 20
13.482029
 30
0.0
 11
263.792908
 21
13.482029
 31
0.0
  0
LINE
 39
0.0
 62
0
  8
0
 10
225.507538
 20
20.417282
 30
0.0
 11
263.792908
 21
13.482029
 31
0.0
  0
LINE
 39
0.0
 62
0
  8
0
 10
263.792908
 20
13.482029
 30
0.0
 11
225.507538
 21
20.417282
 31
0.0
  0
LINE
 39
0.0
 62
0
  8
0
 10
263.792908
 20
13.482029
 30
0.0
 11
263.792908
 21
13.482029
 31
0.0
  0
LINE
 39
0.0
 62
0
  8
0
 10
300.0
 20
-5.0
 30
0.0
 11
300.0
 21
-5.0
 31
0.0
  0
LINE
 39
0.0
 62
0
  8
0
 10
263.792908
 20
-13.482029
 30
0.0
 11
300.0
 21
-5.0
 31
0.0
  0
LINE
 39
0.0
 62
0
  8
0
 10
300.0
 20
-5.0
 30
0.0
 11
263.792908
 21
-13.482029
 31
0.0
  0
LINE
 39
0.0
 62
0
  8
0
 10
300.0
 20
-5.0
 30
0.0
 11
300.0
 21
-5.0
 31
0.0
  0
LINE
 39
0.0
 62
0
  8
0
 10
300.0
 20
5.0
 30
0.0
 11
300.0
 21
5.0
 31
0.0
  0
LINE
 39
0.0
 62
0
  8
0
 10
263.792908
 20
13.482029
 30
0.0
 11
300.0
 21
5.0
 31
0.0
  0
LINE
 39
0.0
 62
0
  8
0
 10
300.0
 20
5.0
 30
0.0
 11
263.792908
 21
13.482029
 31
0.0
  0
LINE
 39
0.0
 62
0
  8
0
 10
300.0
 20
5.0
 30
0.0
 11
300.0
 21
5.0
 31
0.0
  0
ENDBLK
  0
BLOCK
  8
0
  2
slices_z_0
  3
slices_z_0
 70
0
 10
0.0
 20
0.0
 30
0.0
  0
ENDBLK
  0
INSERT
  8
~slices_y
  2
slices_y_0
 10
0.0
 20
0.0
 30
0.0
  0
INSERT
  8
~slices_y
  2
slices_y_0
 10
0.0
 20
0.0
 30
0.0
  0
INSERT
  8
~slices_y
  2
slices_y_0
 10
0.0
 20
0.0
 30
0.0
  0
INSERT
  8
~slices_y
  2
slices_y_0
 10
0.0
 20
0.0
 30
0.0
  0
INSERT
  8
~slices_y
  2
slices_y_0
 10
0.0
 20
0.0
 30
0.0
  0
INSERT
  8
~slices_y
  2
slices_y_0
 10
0.0
 20
0.0
 30
0.0
  0
INSERT
  8
~slices_y
  2
slices_y_0
 10
0.0
 20
0.0
 30
0.0
  0
INSERT
  8
~slices_y
  2
slices_y_0
 10
0.0
 20
0.0
 30
0.0
  0
INSERT
  8
~slices_y
  2
slices_y_0
 10
0.0
 20
0.0
 30
0.0
  0
INSERT
  8
~slices_y
  2
slices_y_0
 10
0.0
 20
0.0
 30
0.0
  0
INSERT
  8
~slices_y
  2
slices_y_0
 10
0.0
 20
0.0
 30
0.0
  0
INSERT
  8
~slices_y
  2
slices_y_0
 10
0.0
 20
0.0
 30
0.0
  0
INSERT
  8
~slices_y
  2
slices_y_0
 10
0.0
 20
0.0
 30
0.0
  0
INSERT
  8
~slices_y
  2
slices_y_0
 10
0.0
 20
0.0
 30
0.0
  0
INSERT
  8
~slices_y
  2
slices_y_0
 10
0.0
 20
0.0
 30
0.0
  0
INSERT
  8
~slices_y
  2
slices_y_0
 10
0.0
 20
0.0
 30
0.0
  0
INSERT
  8
~slices_y
  2
slices_y_0
 10
0.0
 20
0.0
 30
0.0
  0
INSERT
  8
~slices_y
  2
slices_y_0
 10
0.0
 20
0.0
 30
0.0
  0
INSERT
  8
~slices_y
  2
slices_y_0
 10
0.0
 20
0.0
 30
0.0
  0
INSERT
  8
~slices_y
  2
slices_y_0
 10
0.0
 20
0.0
 30
0.0
  0
INSERT
  8
~slices_y
  2
slices_y_0
 10
0.0
 20
0.0
 30
0.0
  0
INSERT
  8
~slices_y
  2
slices_y_0
 10
0.0
 20
0.0
 30
0.0
  0
INSERT
  8
~slices_y
  2
slices_y_0
 10
0.0
 20
0.0
 30
0.0
  0
INSERT
  8
~slices_y
  2
slices_y_0
 10
0.0
 20
0.0
 30
0.0
  0
INSERT
  8
~slices_y
  2
slices_y_0
 10
0.0
 20
0.0
 30
0.0
  0
INSERT
  8
~slices_y
  2
slices_y_0
 10
0.0
 20
0.0
 30
0.0
  0
INSERT
  8
~slices_y
  2
slices_y_0
 10
0.0
 20
0.0
 30
0.0
  0
INSERT
  8
~slices_y
  2
slices_y_0
 10
0.0
 20
0.0
 30
0.0
  0
INSERT
  8
~slices_y
  2
slices_y_0
 10
0.0
 20
0.0
 30
0.0
  0
INSERT
  8
~slices_y
  2
slices_y_0
 10
0.0
 20
0.0
 30
0.0
  0
INSERT
  8
~slices_y
  2
slices_y_0
 10
0.0
 20
0.0
 30
0.0
  0
INSERT
  8
~slices_y
  2
slices_y_0
 10
0.0
 20
0.0
 30
0.0
  0
INSERT
  8
~slices_y
  2
slices_y_0
 10
0.0
 20
0.0
 30
0.0
  0
INSERT
  8
~slices_y
  2
slices_y_0
 10
0.0
 20
0.0
 30
0.0
  0
INSERT
  8
~slices_y
  2
slices_y_0
 10
0.0
 20
0.0
 30
0.0
  0
INSERT
  8
~slices_y
  2
slices_y_0
 10
0.0
 20
0.0
 30
0.0
  0
INSERT
  8
~slices_y
  2
slices_y_0
 10
0.0
 20
0.0
 30
0.0
  0
INSERT
  8
~slices_y
  2
slices_y_0
 10
0.0
 20
0.0
 30
0.0
  0
INSERT
  8
~slices_y
  2
slices_y_0
 10
0.0
 20
0.0
 30
0.0
  0
INSERT
  8
~slices_y
  2
slices_y_0
 10
0.0
 20
0.0
 30
0.0
  0
INSERT
  8
~slices_y
  2
slices_y_0
 10
0.0
 20
0.0
 30
0.0
  0
INSERT
  8
~slices_y
  2
slices_y_0
 10
0.0
 20
0.0
 30
0.0
  0
INSERT
  8
~slices_y
  2
slices_y_0
 10
0.0
 20
0.0
 30
0.0
  0
INSERT
  8
~slices_y
  2
slices_y_0
 10
0.0
 20
0.0
 30
0.0
  0
INSERT
  8
~slices_y
  2
slices_y_0
 10
0.0
 20
0.0
 30
0.0
  0
INSERT
  8
~slices_y
  2
slices_y_0
 10
0.0
 20
0.0
 30
0.0
  0
INSERT
  8
~slices_y
  2
slices_y_0
 10
0.0
 20
0.0
 30
0.0
  0
INSERT
  8
~slices_y
  2
slices_y_0
 10
0.0
 20
0.0
 30
0.0
  0
INSERT
  8
~slices_y
  2
slices_y_0
 10
0.0
 20
0.0
 30
0.0
  0
INSERT
  8
~slices_y
  2
slices_y_0
 10
0.0
 20
0.0
 30
0.0
  0
INSERT
  8
~slices_y
  2
slices_y_0
 10
0.0
 20
0.0
 30
0.0
  0
INSERT
  8
~slices_y
  2
slices_y_0
 10
0.0
 20
0.0
 30
0.0
  0
INSERT
  8
~slices_y
  2
slices_y_0
 10
0.0
 20
0.0
 30
0.0
  0
INSERT
  8
~slices_y
  2
slices_y_0
 10
0.0
 20
0.0
 30
0.0
  0
INSERT
  8
~slices_y
  2
slices_y_0
 10
0.0
 20
0.0
 30
0.0
  0
INSERT
  8
~slices_y
  2
slices_y_0
 10
0.0
 20
0.0
 30
0.0
  0
INSERT
  8
~slices_y
  2
slices_y_0
 10
0.0
 20
0.0
 30
0.0
  0
INSERT
  8
~slices_y
  2
slices_y_0
 10
0.0
 20
0.0
 30
0.0
  0
INSERT
  8
~slices_y
  2
slices_y_0
 10
0.0
 20
0.0
 30
0.0
  0
INSERT
  8
~slices_y
  2
slices_y_0
 10
0.0
 20
0.0
 30
0.0
  0
INSERT
  8
~slices_y
  2
slices_y_0
 10
0.0
 20
0.0
 30
0.0
  0
INSERT
  8
~slices_y
  2
slices_y_0
 10
0.0
 20
0.0
 30
0.0
  0
INSERT
  8
~slices_y
  2
slices_y_0
 10
0.0
 20
0.0
 30
0.0
  0
INSERT
  8
~slices_y
  2
slices_y_0
 10
0.0
 20
0.0
 30
0.0
  0
INSERT
  8
~slices_y
  2
slices_y_0
 10
0.0
 20
0.0
 30
0.0
  0
INSERT
  8
~slices_y
  2
slices_y_0
 10
0.0
 20
0.0
 30
0.0
  0
INSERT
  8
~slices_y
  2
slices_y_0
 10
0.0
 20
0.0
 30
0.0
  0
INSERT
  8
~slices_y
  2
slices_y_0
 10
0.0
 20
0.0
 30
0.0
  0
INSERT
  8
~slices_y
  2
slices_y_0
 10
0.0
 20
0.0
 30
0.0
  0
INSERT
  8
~slices_y
  2
slices_y_0
 10
0.0
 20
0.0
 30
0.0
  0
INSERT
  8
~slices_y
  2
slices_y_0
 10
0.0
 20
0.0
 30
0.0
  0
INSERT
  8
~slices_y
  2
slices_y_0
 10
0.0
 20
0.0
 30
0.0
  0
INSERT
  8
~slices_y
  2
slices_y_0
 10
0.0
 20
0.0
 30
0.0
  0
INSERT
  8
~slices_y
  2
slices_y_0
 10
0.0
 20
0.0
 30
0.0
  0
INSERT
  8
~slices_y
  2
slices_y_0
 10
0.0
 20
0.0
 30
0.0
  0
INSERT
  8
~slices_y
  2
slices_y_0
 10
0.0
 20
0.0
 30
0.0
  0
INSERT
  8
~slices_y
  2
slices_y_0
 10
0.0
 20
0.0
 30
0.0
  0
INSERT
  8
~slices_y
  2
slices_y_0
 10
0.0
 20
0.0
 30
0.0
  0
INSERT
  8
~slices_y
  2
slices_y_0
 10
0.0
 20
0.0
 30
0.0
  0
INSERT
  8
~slices_y
  2
slices_y_0
 10
0.0
 20
0.0
 30
0.0
  0
BLOCK
  8
0
  2
slices_x_0
  3
slices_x_0
 70
0
 10
0.0
 20
0.0
 30
0.0
  0
ENDBLK
  0
BLOCK
  8
0
  2
slices_y_0
  3
slices_y_0
 70
0
 10
0.0
 20
0.0
 30
0.0
  0
ENDBLK
  0
BLOCK
  8
0
  2
slices_z_0
  3
slices_z_0
 70
0
 10
0.0
 20
0.0
 30
0.0
  0
LINE
 39
0.0
 62
0
  8
0
 10
17.433401
 20
20.100843
 30
0.0
 11
0.0
 21
10.0
 31
0.0
  0
LINE
 39
0.0
 62
0
  8
0
 10
0.0
 20
10.0
 30
0.0
 11
0.0
 21
10.0
 31
0.0
  0
LINE
 39
0.0
 62
0
  8
0
 10
0.0
 20
-10.0
 30
0.0
 11
0.0
 21
-10.0
 31
0.0
  0
LINE
 39
0.0
 62
0
  8
0
 10
0.0
 20
-10.0
 30
0.0
 11
17.433401
 21
-20.100843
 31
0.0
  0
LINE
 39
0.0
 62
0
  8
0
 10
17.433401
 20
-20.100843
 30
0.0
 11
0.0
 21
-10.0
 31
0.0
  0
LINE
 39
0.0
 62
0
  8
0
 10
0.0
 20
-10.0
 30
0.0
 11
0.0
 21
-10.0
 31
0.0
  0
LINE
 39
0.0
 62
0
  8
0
 10
0.0
 20
10.0
 30
0.0
 11
0.0
 21
10.0
 31
0.0
  0
LINE
 39
0.0
 62
0
  8
0
 10
0.0
 20
10.0
 30
0.0
 11
17.433401
 21
20.100843
 31
0.0
  0
LINE
 39
0.0
 62
0
  8
0
 10
41.254871
 20
24.888449
 30
0.0
 11
17.433401
 21
20.100843
 31
0.0
  0
LINE
 39
0.0
 62
0
  8
0
 10
17.433401
 20
20.100843
 30
0.0
 11
17.433401
 21
20.100843
 31
0.0
  0
LINE
 39
0.0
 62
0
  8
0
 10
17.433401
 20
-20.100843
 30
0.0
 11
17.433401
 21
-20.100843
 31
0.0
  0
LINE
 39
0.0
 62
0
  8
0
 10
17.433401
 20
-20.100843
 30
0.0
 11
41.254871
 21
-24.888449
 31
0.0
  0
LINE
 39
0.0
 62
0
  8
0
 10
41.254871
 20
-24.888449
 30
0.0
 11
17.433401
 21
-20.100843
 31
0.0
  0
LINE
 39
0.0
 62
0
  8
0
 10
17.433401
 20
-20.100843
 30
0.0
 11
17.433401
 21
-20.100843
 31
0.0
  0
LINE
 39
0.0
 62
0
  8
0
 10
17.433401
 20
20.100843
 30
0.0
 11
17.433401
 21
20.100843
 31
0.0
  0
LINE
 39
0.0
 62
0
  8
0
 10
17.433401
 20
20.100843
 30
0.0
 11
41.254871
 21
24.888449
 31
0.0
  0
LINE
 39
0.0
 62
0
  8
0
 10
68.781517
 20
26.125633
 30
0.0
 11
41.254871
 21
24.888449
 31
0.0
  0
LINE
 39
0.0
 62
0
  8
0
 10
41.254871
 20
24.888449
 30
0.0
 11
41.254871
 21
24.888449
 31
0.0
  0
LINE
 39
0.0
 62
0
  8
0
 10
41.254871
 20
-24.888449
 30
0.0
 11
41.254871
 21
-24.888449
 31
0.0
  0
LINE
 39
0.0
 62
0
  8
0
 10
41.254871
 20
-24.888449
 30
0.0
 11
68.781517
 21
-26.125633
 31
0.0
  0
LINE
 39
0.0
 62
0
  8
0
 10
68.781517
 20
-26.125633
 30
0.0
 11
41.254871
 21
-24.888449
 31
0.0
  0
LINE
 39
0.0
 62
0
  8
0
 10
41.254871
 20
-24.888449
 30
0.0
 11
41.254871
 21
-24.888449
 31
0.0
  0
LINE
 39
0.0
 62
0
  8
0
 10
41.254871
 20
24.888449
 30
0.0
 11
41.254871
 21
24.888449
 31
0.0
  0
LINE
 39
0.0
 62
0
  8
0
 10
41.254871
 20
24.888449
 30
0.0
 11
68.781517
 21
26.125633
 31
0.0
  0
LINE
 39
0.0
 62
0
  8
0
 10
97.330444
 20
25.575211
 30
0.0
 11
68.781517
 21
26.125633
 31
0.0
  0
LINE
 39
0.0
 62
0
  8
0
 10
68.781517
 20
26.125633
 30
0.0
 11
68.781517
 21
26.125633
 31
0.0
  0
LINE
 39
0.0
 62
0
  8
0
 10
68.781517
 20
-26.125633
 30
0.0
 11
68.781517
 21
-26.125633
 31
0.0
  0
LINE
 39
0.0
 62
0
  8
0
 10
68.781517
 20
-26.125633
 30
0.0
 11
97.330444
 21
-25.575211
 31
0.0
  0
LINE
 39
0.0
 62
0
  8
0
 10
97.330444
 20
-25.575211
 30
0.0
 11
68.781517
 21
-26.125633
 31
0.0
  0
LINE
 39
0.0
 62
0
  8
0
 10
68.781517
 20
-26.125633
 30
0.0
 11
68.781517
 21
-26.125633
 31
0.0
  0
LINE
 39
0.0
 62
0
  8
0
 10
68.781517
 20
26.125633
 30
0.0
 11
68.781517
 21
26.125633
 31
0.0
  0
LINE
 39
0.0
 62
0
  8
0
 10
68.781517
 20
26.125633
 30
0.0
 11
97.330444
 21
25.575211
 31
0.0
  0
LINE
 39
0.0
 62
0
  8
0
 10
124.21875
 20
25.0
 30
0.0
 11
97.330444
 21
25.575211
 31
0.0
  0
LINE
 39
0.0
 62
0
  8
0
 10
97.330444
 20
25.575211
 30
0.0
 11
97.330444
 21
25.575211
 31
0.0
  0
LINE
 39
0.0
 62
0
  8
0
 10
97.330444
 20
-25.575211
 30
0.0
 11
97.330444
 21
-25.575211
 31
0.0
  0
LINE
 39
0.0
 62
0
  8
0
 10
97.330444
 20
-25.575211
 30
0.0
 11
124.21875
 21
-25.0
 31
0.0
  0
LINE
 39
0.0
 62
0
  8
0
 10
124.21875
 20
-25.0
 30
0.0
 11
97.330444
 21
-25.575211
 31
0.0
  0
LINE
 39
0.0
 62
0
  8
0
 10
97.330444
 20
-25.575211
 30
0.0
 11
97.330444
 21
-25.575211
 31
0.0
  0
LINE
 39
0.0
 62
0
  8
0
 10
97.330444
 20
25.575211
 30
0.0
 11
97.330444
 21
25.575211
 31
0.0
  0
LINE
 39
0.0
 62
0
  8
0
 10
97.330444
 20
25.575211
 30
0.0
 11
124.21875
 21
25.0
 31
0.0
  0
LINE
 39
0.0
 62
0
  8
0
 10
152.967255
 20
24.146471
 30
0.0
 11
124.21875
 21
25.0
 31
0.0
  0
LINE
 39
0.0
 62
0
  8
0
 10
124.21875
 20
25.0
 30
0.0
 11
124.21875
 21
25.0
 31
0.0
  0
LINE
 39
0.0
 62
0
  8
0
 10
124.21875
 20
-25.0
 30
0.0
 11
124.21875
 21
-25.0
 31
0.0
  0
LINE
 39
0.0
 62
0
  8
0
 10
124.21875
 20
-25.0
 30
0.0
 11
152.967255
 21
-24.146471
 31
0.0
  0
LINE
 39
0.0
 62
0
  8
0
 10
152.967255
 20
-24.146471
 30
0.0
 11
124.21875
 21
-25.0
 31
0.0
  0
LINE
 39
0.0
 62
0
  8
0
 10
124.21875
 20
-25.0
 30
0.0
 11
124.21875
 21
-25.0
 31
0.0
  0
LINE
 39
0.0
 62
0
  8
0
 10
124.21875
 20
25.0
 30
0.0
 11
124.21875
 21
25.0
 31
0.0
  0
LINE
 39
0.0
 62
0
  8
0
 10
124.21875
 20
25.0
 30
0.0
 11
152.967255
 21
24.146471
 31
0.0
  0
LINE
 39
0.0
 62
0
  8
0
 10
187.299088
 20
21.839415
 30
0.0
 11
152.967255
 21
24.146471
 31
0.0
  0
LINE
 39
0.0
 62
0
  8
0
 10
152.967255
 20
24.146471
 30
0.0
 11
152.967255
 21
24.146471
 31
0.0
  0
LINE
 39
0.0
 62
0
  8
0
 10
152.967255
 20
-24.146471
 30
0.0
 11
152.967255
 21
-24.146471
 31
0.0
  0
LINE
 39
0.0
 62
0
  8
0
 10
152.967255
 20
-24.146471
 30
0.0
 11
187.299088
 21
-21.839415
 31
0.0
  0
LINE
 39
0.0
 62
0
  8
0
 10
187.299088
 20
-21.839415
 30
0.0
 11
152.967255
 21
-24.146471
 31
0.0
  0
LINE
 39
0.0
 62
0
  8
0
 10
152.967255
 20
-24.146471
 30
0.0
 11
152.967255
 21
-24.146471
 31
0.0
  0
LINE
 39
0.0
 62
0
  8
0
 10
152.967255
 20
24.146471
 30
0.0
 11
152.967255
 21
24.146471
 31
0.0
  0
LINE
 39
0.0
 62
0
  8
0
 10
152.967255
 20
24.146471
 30
0.0
 11
187.299088
 21
21.839415
 31
0.0
  0
LINE
 39
0.0
 62
0
  8
0
 10
224.834778
 20
18.459122
 30
0.0
 11
187.299088
 21
21.839415
 31
0.0
  0
LINE
 39
0.0
 62
0
  8
0
 10
187.299088
 20
21.839415
 30
0.0
 11
187.299088
 21
21.839415
 31
0.0
  0
LINE
 39
0.0
 62
0
  8
0
 10
187.299088
 20
-21.839415
 30
0.0
 11
187.299088
 21
-21.839415
 31
0.0
  0
LINE
 39
0.0
 62
0
  8
0
 10
187.299088
 20
-21.839415
 30
0.0
 11
224.834778
 21
-18.459122
 31
0.0
  0
LINE
 39
0.0
 62
0
  8
0
 10
224.834778
 20
-18.459122
 30
0.0
 11
187.299088
 21
-21.839415
 31
0.0
  0
LINE
 39
0.0
 62
0
  8
0
 10
187.299088
 20
-21.839415
 30
0.0
 11
187.299088
 21
-21.839415
 31
0.0
  0
LINE
 39
0.0
 62
0
  8
0
 10
187.299088
 20
21.839415
 30
0.0
 11
187.299088
 21
21.839415
 31
0.0
  0
LINE
 39
0.0
 62
0
  8
0
 10
187.299088
 20
21.839415
 30
0.0
 11
224.834778
 21
18.459122
 31
0.0
  0
LINE
 39
0.0
 62
0
  8
0
 10
263.194916
 20
14.385887
 30
0.0
 11
224.834778
 21
18.459122
 31
0.0
  0
LINE
 39
0.0
 62
0
  8
0
 10
224.834778
 20
18.459122
 30
0.0
 11
224.834778
 21
18.459122
 31
0.0
  0
LINE
 39
0.0
 62
0
  8
0
 10
224.834778
 20
-18.459122
 30
0.0
 11
224.834778
 21
-18.459122
 31
0.0
  0
LINE
 39
0.0
 62
0
  8
0
 10
224.834778
 20
-18.459122
 30
0.0
 11
263.194916
 21
-14.385887
 31
0.0
  0
LINE
 39
0.0
 62
0
  8
0
 10
263.194916
 20
-14.385887
 30
0.0
 11
224.834778
 21
-18.459122
 31
0.0
  0
LINE
 39
0.0
 62
0
  8
0
 10
224.834778
 20
-18.459122
 30
0.0
 11
224.834778
 21
-18.459122
 31
0.0
  0
LINE
 39
0.0
 62
0
  8
0
 10
224.834778
 20
18.459122
 30
0.0
 11
224.834778
 21
18.459122
 31
0.0
  0
LINE
 39
0.0
 62
0
  8
0
 10
224.834778
 20
18.459122
 30
0.0
 11
263.194916
 21
14.385887
 31
0.0
  0
LINE
 39
0.0
 62
0
  8
0
 10
300.0
 20
10.0
 30
0.0
 11
263.194916
 21
14.385887
 31
0.0
  0
LINE
 39
0.0
 62
0
  8
0
 10
263.194916
 20
14.385887
 30
0.0
 11
263.194916
 21
14.385887
 31
0.0
  0
LINE
 39
0.0
 62
0
  8
0
 10
263.194916
 20
-14.385887
 30
0.0
 11
263.194916
 21
-14.385887
 31
0.0
  0
LINE
 39
0.0
 62
0
  8
0
 10
263.194916
 20
-14.385887
 30
0.0
 11
300.0
 21
-10.0
 31
0.0
  0
LINE
 39
0.0
 62
0
  8
0
 10
300.0
 20
-10.0
 30
0.0
 11
263.194916
 21
-14.385887
 31
0.0
  0
LINE
 39
0.0
 62
0
  8
0
 10
263.194916
 20
-14.385887
 30
0.0
 11
263.194916
 21
-14.385887
 31
0.0
  0
LINE
 39
0.0
 62
0
  8
0
 10
263.194916
 20
14.385887
 30
0.0
 11
263.194916
 21
14.385887
 31
0.0
  0
LINE
 39
0.0
 62
0
  8
0
 10
263.194916
 20
14.385887
 30
0.0
 11
300.0
 21
10.0
 31
0.0
  0
ENDBLK
  0
INSERT
  8
~slices_z
  2
slices_z_0
 10
0.0
 20
0.0
 30
0.0
  0
INSERT
  8
~slices_z
  2
slices_z_0
 10
0.0
 20
0.0
 30
0.0
  0
INSERT
  8
~slices_z
  2
slices_z_0
 10
0.0
 20
0.0
 30
0.0
  0
INSERT
  8
~slices_z
  2
slices_z_0
 10
0.0
 20
0.0
 30
0.0
  0
INSERT
  8
~slices_z
  2
slices_z_0
 10
0.0
 20
0.0
 30
0.0
  0
INSERT
  8
~slices_z
  2
slices_z_0
 10
0.0
 20
0.0
 30
0.0
  0
INSERT
  8
~slices_z
  2
slices_z_0
 10
0.0
 20
0.0
 30
0.0
  0
INSERT
  8
~slices_z
  2
slices_z_0
 10
0.0
 20
0.0
 30
0.0
  0
INSERT
  8
~slices_z
  2
slices_z_0
 10
0.0
 20
0.0
 30
0.0
  0
INSERT
  8
~slices_z
  2
slices_z_0
 10
0.0
 20
0.0
 30
0.0
  0
INSERT
  8
~slices_z
  2
slices_z_0
 10
0.0
 20
0.0
 30
0.0
  0
INSERT
  8
~slices_z
  2
slices_z_0
 10
0.0
 20
0.0
 30
0.0
  0
INSERT
  8
~slices_z
  2
slices_z_0
 10
0.0
 20
0.0
 30
0.0
  0
INSERT
  8
~slices_z
  2
slices_z_0
 10
0.0
 20
0.0
 30
0.0
  0
INSERT
  8
~slices_z
  2
slices_z_0
 10
0.0
 20
0.0
 30
0.0
  0
INSERT
  8
~slices_z
  2
slices_z_0
 10
0.0
 20
0.0
 30
0.0
  0
INSERT
  8
~slices_z
  2
slices_z_0
 10
0.0
 20
0.0
 30
0.0
  0
INSERT
  8
~slices_z
  2
slices_z_0
 10
0.0
 20
0.0
 30
0.0
  0
INSERT
  8
~slices_z
  2
slices_z_0
 10
0.0
 20
0.0
 30
0.0
  0
INSERT
  8
~slices_z
  2
slices_z_0
 10
0.0
 20
0.0
 30
0.0
  0
INSERT
  8
~slices_z
  2
slices_z_0
 10
0.0
 20
0.0
 30
0.0
  0
INSERT
  8
~slices_z
  2
slices_z_0
 10
0.0
 20
0.0
 30
0.0
  0
INSERT
  8
~slices_z
  2
slices_z_0
 10
0.0
 20
0.0
 30
0.0
  0
INSERT
  8
~slices_z
  2
slices_z_0
 10
0.0
 20
0.0
 30
0.0
  0
INSERT
  8
~slices_z
  2
slices_z_0
 10
0.0
 20
0.0
 30
0.0
  0
INSERT
  8
~slices_z
  2
slices_z_0
 10
0.0
 20
0.0
 30
0.0
  0
INSERT
  8
~slices_z
  2
slices_z_0
 10
0.0
 20
0.0
 30
0.0
  0
INSERT
  8
~slices_z
  2
slices_z_0
 10
0.0
 20
0.0
 30
0.0
  0
INSERT
  8
~slices_z
  2
slices_z_0
 10
0.0
 20
0.0
 30
0.0
  0
INSERT
  8
~slices_z
  2
slices_z_0
 10
0.0
 20
0.0
 30
0.0
  0
INSERT
  8
~slices_z
  2
slices_z_0
 10
0.0
 20
0.0
 30
0.0
  0
INSERT
  8
~slices_z
  2
slices_z_0
 10
0.0
 20
0.0
 30
0.0
  0
INSERT
  8
~slices_z
  2
slices_z_0
 10
0.0
 20
0.0
 30
0.0
  0
INSERT
  8
~slices_z
  2
slices_z_0
 10
0.0
 20
0.0
 30
0.0
  0
INSERT
  8
~slices_z
  2
slices_z_0
 10
0.0
 20
0.0
 30
0.0
  0
INSERT
  8
~slices_z
  2
slices_z_0
 10
0.0
 20
0.0
 30
0.0
  0
INSERT
  8
~slices_z
  2
slices_z_0
 10
0.0
 20
0.0
 30
0.0
  0
INSERT
  8
~slices_z
  2
slices_z_0
 10
0.0
 20
0.0
 30
0.0
  0
INSERT
  8
~slices_z
  2
slices_z_0
 10
0.0
 20
0.0
 30
0.0
  0
INSERT
  8
~slices_z
  2
slices_z_0
 10
0.0
 20
0.0
 30
0.0
  0
INSERT
  8
~slices_z
  2
slices_z_0
 10
0.0
 20
0.0
 30
0.0
  0
INSERT
  8
~slices_z
  2
slices_z_0
 10
0.0
 20
0.0
 30
0.0
  0
INSERT
  8
~slices_z
  2
slices_z_0
 10
0.0
 20
0.0
 30
0.0
  0
INSERT
  8
~slices_z
  2
slices_z_0
 10
0.0
 20
0.0
 30
0.0
  0
INSERT
  8
~slices_z
  2
slices_z_0
 10
0.0
 20
0.0
 30
0.0
  0
INSERT
  8
~slices_z
  2
slices_z_0
 10
0.0
 20
0.0
 30
0.0
  0
INSERT
  8
~slices_z
  2
slices_z_0
 10
0.0
 20
0.0
 30
0.0
  0
INSERT
  8
~slices_z
  2
slices_z_0
 10
0.0
 20
0.0
 30
0.0
  0
INSERT
  8
~slices_z
  2
slices_z_0
 10
0.0
 20
0.0
 30
0.0
  0
INSERT
  8
~slices_z
  2
slices_z_0
 10
0.0
 20
0.0
 30
0.0
  0
INSERT
  8
~slices_z
  2
slices_z_0
 10
0.0
 20
0.0
 30
0.0
  0
INSERT
  8
~slices_z
  2
slices_z_0
 10
0.0
 20
0.0
 30
0.0
  0
INSERT
  8
~slices_z
  2
slices_z_0
 10
0.0
 20
0.0
 30
0.0
  0
INSERT
  8
~slices_z
  2
slices_z_0
 10
0.0
 20
0.0
 30
0.0
  0
INSERT
  8
~slices_z
  2
slices_z_0
 10
0.0
 20
0.0
 30
0.0
  0
INSERT
  8
~slices_z
  2
slices_z_0
 10
0.0
 20
0.0
 30
0.0
  0
INSERT
  8
~slices_z
  2
slices_z_0
 10
0.0
 20
0.0
 30
0.0
  0
INSERT
  8
~slices_z
  2
slices_z_0
 10
0.0
 20
0.0
 30
0.0
  0
INSERT
  8
~slices_z
  2
slices_z_0
 10
0.0
 20
0.0
 30
0.0
  0
INSERT
  8
~slices_z
  2
slices_z_0
 10
0.0
 20
0.0
 30
0.0
  0
INSERT
  8
~slices_z
  2
slices_z_0
 10
0.0
 20
0.0
 30
0.0
  0
INSERT
  8
~slices_z
  2
slices_z_0
 10
0.0
 20
0.0
 30
0.0
  0
INSERT
  8
~slices_z
  2
slices_z_0
 10
0.0
 20
0.0
 30
0.0
  0
INSERT
  8
~slices_z
  2
slices_z_0
 10
0.0
 20
0.0
 30
0.0
  0
INSERT
  8
~slices_z
  2
slices_z_0
 10
0.0
 20
0.0
 30
0.0
  0
INSERT
  8
~slices_z
  2
slices_z_0
 10
0.0
 20
0.0
 30
0.0
  0
INSERT
  8
~slices_z
  2
slices_z_0
 10
0.0
 20
0.0
 30
0.0
  0
INSERT
  8
~slices_z
  2
slices_z_0
 10
0.0
 20
0.0
 30
0.0
  0
INSERT
  8
~slices_z
  2
slices_z_0
 10
0.0
 20
0.0
 30
0.0
  0
INSERT
  8
~slices_z
  2
slices_z_0
 10
0.0
 20
0.0
 30
0.0
  0
INSERT
  8
~slices_z
  2
slices_z_0
 10
0.0
 20
0.0
 30
0.0
  0
INSERT
  8
~slices_z
  2
slices_z_0
 10
0.0
 20
0.0
 30
0.0
  0
INSERT
  8
~slices_z
  2
slices_z_0
 10
0.0
 20
0.0
 30
0.0
  0
INSERT
  8
~slices_z
  2
slices_z_0
 10
0.0
 20
0.0
 30
0.0
  0
INSERT
  8
~slices_z
  2
slices_z_0
 10
0.0
 20
0.0
 30
0.0
  0
INSERT
  8
~slices_z
  2
slices_z_0
 10
0.0
 20
0.0
 30
0.0
  0
INSERT
  8
~slices_z
  2
slices_z_0
 10
0.0
 20
0.0
 30
0.0
  0
INSERT
  8
~slices_z
  2
slices_z_0
 10
0.0
 20
0.0
 30
0.0
  0
INSERT
  8
~slices_z
  2
slices_z_0
 10
0.0
 20
0.0
 30
0.0
  0
INSERT
  8
~slices_z
  2
slices_z_0
 10
0.0
 20
0.0
 30
0.0
  0
ENDSEC
  0
EOF
