solid STL generated by MeshLab
  facet normal  2.691827e-01  8.333205e-01 -4.828226e-01
    outer loop
      vertex   0.000000e+00  1.000000e+01  0.000000e+00
      vertex   4.325740e-15  2.010084e+01  1.743340e+01
      vertex   7.595025e+00  1.794490e+01  1.794675e+01
    endloop
  endfacet
  facet normal  1.759189e-01  8.704323e-01 -4.597827e-01
    outer loop
      vertex   0.000000e+00  1.000000e+01  0.000000e+00
      vertex   7.595025e+00  1.794490e+01  1.794675e+01
      vertex   3.890892e+00  9.213631e+00 -8.639515e-16
    endloop
  endfacet
  facet normal  6.400166e-01  6.306581e-01 -4.389180e-01
    outer loop
      vertex   3.890892e+00  9.213631e+00 -8.639515e-16
      vertex   7.595025e+00  1.794490e+01  1.794675e+01
      vertex   1.326306e+01  1.289543e+01  1.895639e+01
    endloop
  endfacet
  facet normal  5.122848e-01  7.595541e-01 -4.008013e-01
    outer loop
      vertex   3.890892e+00  9.213631e+00 -8.639515e-16
      vertex   1.326306e+01  1.289543e+01  1.895639e+01
      vertex   7.069681e+00  7.069681e+00 -1.569785e-15
    endloop
  endfacet
  facet normal  8.611348e-01  3.333798e-01 -3.838031e-01
    outer loop
      vertex   7.069681e+00  7.069681e+00 -1.569785e-15
      vertex   1.326306e+01  1.289543e+01  1.895639e+01
      vertex   1.600259e+01  6.751734e+00  1.976649e+01
    endloop
  endfacet
  facet normal  7.786323e-01  5.251523e-01 -3.434337e-01
    outer loop
      vertex   7.069681e+00  7.069681e+00 -1.569785e-15
      vertex   1.600259e+01  6.751734e+00  1.976649e+01
      vertex   9.213631e+00  3.890892e+00 -4.414313e-15
    endloop
  endfacet
  facet normal  9.400434e-01  7.222776e-02 -3.333189e-01
    outer loop
      vertex   9.213631e+00  3.890892e+00 -4.414313e-15
      vertex   1.600259e+01  6.751734e+00  1.976649e+01
      vertex   1.663262e+01 -5.229595e-15  2.008030e+01
    endloop
  endfacet
  facet normal  9.325259e-01  1.884683e-01 -3.080179e-01
    outer loop
      vertex   9.213631e+00  3.890892e+00 -4.414313e-15
      vertex   1.663262e+01 -5.229595e-15  2.008030e+01
      vertex   1.000000e+01  0.000000e+00 -6.957398e-15
    endloop
  endfacet
  facet normal  9.325259e-01 -1.884683e-01 -3.080179e-01
    outer loop
      vertex   1.000000e+01  0.000000e+00 -6.957398e-15
      vertex   1.663262e+01 -5.229595e-15  2.008030e+01
      vertex   9.213631e+00 -3.890892e+00 -4.414313e-15
    endloop
  endfacet
  facet normal  9.400434e-01 -7.222772e-02 -3.333189e-01
    outer loop
      vertex   1.663262e+01 -5.229595e-15  2.008030e+01
      vertex   1.600259e+01 -6.751734e+00  1.976649e+01
      vertex   9.213631e+00 -3.890892e+00 -4.414313e-15
    endloop
  endfacet
  facet normal  7.786323e-01 -5.251523e-01 -3.434337e-01
    outer loop
      vertex   9.213631e+00 -3.890892e+00 -4.414313e-15
      vertex   1.600259e+01 -6.751734e+00  1.976649e+01
      vertex   7.069681e+00 -7.069681e+00 -1.569785e-15
    endloop
  endfacet
  facet normal  8.611348e-01 -3.333798e-01 -3.838030e-01
    outer loop
      vertex   1.600259e+01 -6.751734e+00  1.976649e+01
      vertex   1.326306e+01 -1.289543e+01  1.895639e+01
      vertex   7.069681e+00 -7.069681e+00 -1.569785e-15
    endloop
  endfacet
  facet normal  5.122848e-01 -7.595541e-01 -4.008013e-01
    outer loop
      vertex   7.069681e+00 -7.069681e+00 -1.569785e-15
      vertex   1.326306e+01 -1.289543e+01  1.895639e+01
      vertex   3.890892e+00 -9.213631e+00 -8.639515e-16
    endloop
  endfacet
  facet normal  6.400167e-01 -6.306581e-01 -4.389180e-01
    outer loop
      vertex   1.326306e+01 -1.289543e+01  1.895639e+01
      vertex   7.595025e+00 -1.794490e+01  1.794675e+01
      vertex   3.890892e+00 -9.213631e+00 -8.639515e-16
    endloop
  endfacet
  facet normal  1.759189e-01 -8.704323e-01 -4.597827e-01
    outer loop
      vertex   3.890892e+00 -9.213631e+00 -8.639515e-16
      vertex   7.595025e+00 -1.794490e+01  1.794675e+01
      vertex   0.000000e+00 -1.000000e+01  0.000000e+00
    endloop
  endfacet
  facet normal  2.691827e-01 -8.333205e-01 -4.828226e-01
    outer loop
      vertex   7.595025e+00 -1.794490e+01  1.794675e+01
      vertex   7.751503e-15 -2.010084e+01  1.743340e+01
      vertex   0.000000e+00 -1.000000e+01  0.000000e+00
    endloop
  endfacet
  facet normal -2.691827e-01 -8.333205e-01 -4.828226e-01
    outer loop
      vertex   0.000000e+00 -1.000000e+01  0.000000e+00
      vertex   7.751503e-15 -2.010084e+01  1.743340e+01
      vertex  -7.595025e+00 -1.794490e+01  1.794675e+01
    endloop
  endfacet
  facet normal -1.759189e-01 -8.704323e-01 -4.597827e-01
    outer loop
      vertex   0.000000e+00 -1.000000e+01  0.000000e+00
      vertex  -7.595025e+00 -1.794490e+01  1.794675e+01
      vertex  -3.890892e+00 -9.213631e+00 -1.504524e-15
    endloop
  endfacet
  facet normal -6.400166e-01 -6.306581e-01 -4.389180e-01
    outer loop
      vertex  -3.890892e+00 -9.213631e+00 -1.504524e-15
      vertex  -7.595025e+00 -1.794490e+01  1.794675e+01
      vertex  -1.326306e+01 -1.289543e+01  1.895639e+01
    endloop
  endfacet
  facet normal -5.122848e-01 -7.595541e-01 -4.008013e-01
    outer loop
      vertex  -3.890892e+00 -9.213631e+00 -1.504524e-15
      vertex  -1.326306e+01 -1.289543e+01  1.895639e+01
      vertex  -7.069681e+00 -7.069681e+00 -3.167167e-15
    endloop
  endfacet
  facet normal -8.611348e-01 -3.333798e-01 -3.838031e-01
    outer loop
      vertex  -7.069681e+00 -7.069681e+00 -3.167167e-15
      vertex  -1.326306e+01 -1.289543e+01  1.895639e+01
      vertex  -1.600259e+01 -6.751734e+00  1.976649e+01
    endloop
  endfacet
  facet normal -7.786323e-01 -5.251523e-01 -3.434337e-01
    outer loop
      vertex  -7.069681e+00 -7.069681e+00 -3.167167e-15
      vertex  -1.600259e+01 -6.751734e+00  1.976649e+01
      vertex  -9.213631e+00 -3.890892e+00 -3.226389e-16
    endloop
  endfacet
  facet normal -9.400434e-01 -7.222776e-02 -3.333189e-01
    outer loop
      vertex  -9.213631e+00 -3.890892e+00 -3.226389e-16
      vertex  -1.600259e+01 -6.751734e+00  1.976649e+01
      vertex  -1.663262e+01  1.705847e-15  2.008030e+01
    endloop
  endfacet
  facet normal -9.325259e-01 -1.884683e-01 -3.080179e-01
    outer loop
      vertex  -9.213631e+00 -3.890892e+00 -3.226389e-16
      vertex  -1.663262e+01  1.705847e-15  2.008030e+01
      vertex  -1.000000e+01 -5.259073e-31  2.220446e-15
    endloop
  endfacet
  facet normal -9.325259e-01  1.884683e-01 -3.080179e-01
    outer loop
      vertex  -1.000000e+01 -5.259073e-31  2.220446e-15
      vertex  -1.663262e+01  1.705847e-15  2.008030e+01
      vertex  -9.213631e+00  3.890892e+00  2.045837e-15
    endloop
  endfacet
  facet normal -9.400434e-01  7.222772e-02 -3.333189e-01
    outer loop
      vertex  -1.663262e+01  1.705847e-15  2.008030e+01
      vertex  -1.600259e+01  6.751734e+00  1.976649e+01
      vertex  -9.213631e+00  3.890892e+00  2.045837e-15
    endloop
  endfacet
  facet normal -7.786323e-01  5.251523e-01 -3.434337e-01
    outer loop
      vertex  -9.213631e+00  3.890892e+00  2.045837e-15
      vertex  -1.600259e+01  6.751734e+00  1.976649e+01
      vertex  -7.069681e+00  7.069681e+00  1.569785e-15
    endloop
  endfacet
  facet normal -8.611348e-01  3.333798e-01 -3.838030e-01
    outer loop
      vertex  -1.600259e+01  6.751734e+00  1.976649e+01
      vertex  -1.326306e+01  1.289543e+01  1.895639e+01
      vertex  -7.069681e+00  7.069681e+00  1.569785e-15
    endloop
  endfacet
  facet normal -5.122848e-01  7.595541e-01 -4.008013e-01
    outer loop
      vertex  -7.069681e+00  7.069681e+00  1.569785e-15
      vertex  -1.326306e+01  1.289543e+01  1.895639e+01
      vertex  -3.890892e+00  9.213631e+00  8.639515e-16
    endloop
  endfacet
  facet normal -6.400167e-01  6.306581e-01 -4.389180e-01
    outer loop
      vertex  -1.326306e+01  1.289543e+01  1.895639e+01
      vertex  -7.595025e+00  1.794490e+01  1.794675e+01
      vertex  -3.890892e+00  9.213631e+00  8.639515e-16
    endloop
  endfacet
  facet normal -1.759189e-01  8.704323e-01 -4.597827e-01
    outer loop
      vertex  -3.890892e+00  9.213631e+00  8.639515e-16
      vertex  -7.595025e+00  1.794490e+01  1.794675e+01
      vertex   0.000000e+00  1.000000e+01  0.000000e+00
    endloop
  endfacet
  facet normal -2.691827e-01  8.333205e-01 -4.828226e-01
    outer loop
      vertex  -7.595025e+00  1.794490e+01  1.794675e+01
      vertex   4.325740e-15  2.010084e+01  1.743340e+01
      vertex   0.000000e+00  1.000000e+01  0.000000e+00
    endloop
  endfacet
  facet normal  2.604518e-01  9.465592e-01 -1.902381e-01
    outer loop
      vertex   4.325740e-15  2.010084e+01  1.743340e+01
      vertex   9.672013e-15  2.488845e+01  4.125487e+01
      vertex   9.886760e+00  2.228411e+01  4.183239e+01
    endloop
  endfacet
  facet normal  2.800262e-01  9.394497e-01 -1.975337e-01
    outer loop
      vertex   4.325740e-15  2.010084e+01  1.743340e+01
      vertex   9.886760e+00  2.228411e+01  4.183239e+01
      vertex   7.595025e+00  1.794490e+01  1.794675e+01
    endloop
  endfacet
  facet normal  6.417568e-01  7.413715e-01 -1.962563e-01
    outer loop
      vertex   7.595025e+00  1.794490e+01  1.794675e+01
      vertex   9.886760e+00  2.228411e+01  4.183239e+01
      vertex   1.735998e+01  1.611572e+01  4.296824e+01
    endloop
  endfacet
  facet normal  6.709523e-01  7.111843e-01 -2.098570e-01
    outer loop
      vertex   7.595025e+00  1.794490e+01  1.794675e+01
      vertex   1.735998e+01  1.611572e+01  4.296824e+01
      vertex   1.326306e+01  1.289543e+01  1.895639e+01
    endloop
  endfacet
  facet normal  8.845308e-01  4.180463e-01 -2.069845e-01
    outer loop
      vertex   1.326306e+01  1.289543e+01  1.895639e+01
      vertex   1.735998e+01  1.611572e+01  4.296824e+01
      vertex   2.118161e+01  8.480879e+00  4.387960e+01
    endloop
  endfacet
  facet normal  9.013466e-01  3.728660e-01 -2.203298e-01
    outer loop
      vertex   1.326306e+01  1.289543e+01  1.895639e+01
      vertex   2.118161e+01  8.480879e+00  4.387960e+01
      vertex   1.600259e+01  6.751734e+00  1.976649e+01
    endloop
  endfacet
  facet normal  9.709359e-01  1.032166e-01 -2.159397e-01
    outer loop
      vertex   1.600259e+01  6.751734e+00  1.976649e+01
      vertex   2.118161e+01  8.480879e+00  4.387960e+01
      vertex   2.216170e+01 -5.883294e-15  4.423264e+01
    endloop
  endfacet
  facet normal  9.716334e-01  8.032938e-02 -2.224314e-01
    outer loop
      vertex   1.600259e+01  6.751734e+00  1.976649e+01
      vertex   2.216170e+01 -5.883294e-15  4.423264e+01
      vertex   1.663262e+01 -5.229595e-15  2.008030e+01
    endloop
  endfacet
  facet normal  9.716334e-01 -8.032938e-02 -2.224314e-01
    outer loop
      vertex   1.663262e+01 -5.229595e-15  2.008030e+01
      vertex   2.216170e+01 -5.883294e-15  4.423264e+01
      vertex   1.600259e+01 -6.751734e+00  1.976649e+01
    endloop
  endfacet
  facet normal  9.709359e-01 -1.032166e-01 -2.159397e-01
    outer loop
      vertex   2.216170e+01 -5.883294e-15  4.423264e+01
      vertex   2.118161e+01 -8.480879e+00  4.387960e+01
      vertex   1.600259e+01 -6.751734e+00  1.976649e+01
    endloop
  endfacet
  facet normal  9.013466e-01 -3.728660e-01 -2.203298e-01
    outer loop
      vertex   1.600259e+01 -6.751734e+00  1.976649e+01
      vertex   2.118161e+01 -8.480879e+00  4.387960e+01
      vertex   1.326306e+01 -1.289543e+01  1.895639e+01
    endloop
  endfacet
  facet normal  8.845308e-01 -4.180463e-01 -2.069845e-01
    outer loop
      vertex   2.118161e+01 -8.480879e+00  4.387960e+01
      vertex   1.735998e+01 -1.611572e+01  4.296824e+01
      vertex   1.326306e+01 -1.289543e+01  1.895639e+01
    endloop
  endfacet
  facet normal  6.709523e-01 -7.111843e-01 -2.098570e-01
    outer loop
      vertex   1.326306e+01 -1.289543e+01  1.895639e+01
      vertex   1.735998e+01 -1.611572e+01  4.296824e+01
      vertex   7.595025e+00 -1.794490e+01  1.794675e+01
    endloop
  endfacet
  facet normal  6.417569e-01 -7.413714e-01 -1.962563e-01
    outer loop
      vertex   1.735998e+01 -1.611572e+01  4.296824e+01
      vertex   9.886760e+00 -2.228411e+01  4.183239e+01
      vertex   7.595025e+00 -1.794490e+01  1.794675e+01
    endloop
  endfacet
  facet normal  2.800262e-01 -9.394497e-01 -1.975337e-01
    outer loop
      vertex   7.595025e+00 -1.794490e+01  1.794675e+01
      vertex   9.886760e+00 -2.228411e+01  4.183239e+01
      vertex   7.751503e-15 -2.010084e+01  1.743340e+01
    endloop
  endfacet
  facet normal  2.604518e-01 -9.465592e-01 -1.902381e-01
    outer loop
      vertex   9.886760e+00 -2.228411e+01  4.183239e+01
      vertex   1.352600e-14 -2.488845e+01  4.125487e+01
      vertex   7.751503e-15 -2.010084e+01  1.743340e+01
    endloop
  endfacet
  facet normal -2.604518e-01 -9.465592e-01 -1.902381e-01
    outer loop
      vertex   7.751503e-15 -2.010084e+01  1.743340e+01
      vertex   1.352600e-14 -2.488845e+01  4.125487e+01
      vertex  -9.886760e+00 -2.228411e+01  4.183239e+01
    endloop
  endfacet
  facet normal -2.800262e-01 -9.394497e-01 -1.975337e-01
    outer loop
      vertex   7.751503e-15 -2.010084e+01  1.743340e+01
      vertex  -9.886760e+00 -2.228411e+01  4.183239e+01
      vertex  -7.595025e+00 -1.794490e+01  1.794675e+01
    endloop
  endfacet
  facet normal -6.417568e-01 -7.413715e-01 -1.962563e-01
    outer loop
      vertex  -7.595025e+00 -1.794490e+01  1.794675e+01
      vertex  -9.886760e+00 -2.228411e+01  4.183239e+01
      vertex  -1.735998e+01 -1.611572e+01  4.296824e+01
    endloop
  endfacet
  facet normal -6.709523e-01 -7.111843e-01 -2.098570e-01
    outer loop
      vertex  -7.595025e+00 -1.794490e+01  1.794675e+01
      vertex  -1.735998e+01 -1.611572e+01  4.296824e+01
      vertex  -1.326306e+01 -1.289543e+01  1.895639e+01
    endloop
  endfacet
  facet normal -8.845308e-01 -4.180463e-01 -2.069845e-01
    outer loop
      vertex  -1.326306e+01 -1.289543e+01  1.895639e+01
      vertex  -1.735998e+01 -1.611572e+01  4.296824e+01
      vertex  -2.118161e+01 -8.480879e+00  4.387960e+01
    endloop
  endfacet
  facet normal -9.013466e-01 -3.728660e-01 -2.203298e-01
    outer loop
      vertex  -1.326306e+01 -1.289543e+01  1.895639e+01
      vertex  -2.118161e+01 -8.480879e+00  4.387960e+01
      vertex  -1.600259e+01 -6.751734e+00  1.976649e+01
    endloop
  endfacet
  facet normal -9.709359e-01 -1.032166e-01 -2.159397e-01
    outer loop
      vertex  -1.600259e+01 -6.751734e+00  1.976649e+01
      vertex  -2.118161e+01 -8.480879e+00  4.387960e+01
      vertex  -2.216170e+01  1.919077e-15  4.423264e+01
    endloop
  endfacet
  facet normal -9.716334e-01 -8.032938e-02 -2.224314e-01
    outer loop
      vertex  -1.600259e+01 -6.751734e+00  1.976649e+01
      vertex  -2.216170e+01  1.919077e-15  4.423264e+01
      vertex  -1.663262e+01  1.705847e-15  2.008030e+01
    endloop
  endfacet
  facet normal -9.716334e-01  8.032938e-02 -2.224314e-01
    outer loop
      vertex  -1.663262e+01  1.705847e-15  2.008030e+01
      vertex  -2.216170e+01  1.919077e-15  4.423264e+01
      vertex  -1.600259e+01  6.751734e+00  1.976649e+01
    endloop
  endfacet
  facet normal -9.709359e-01  1.032166e-01 -2.159397e-01
    outer loop
      vertex  -2.216170e+01  1.919077e-15  4.423264e+01
      vertex  -2.118161e+01  8.480879e+00  4.387960e+01
      vertex  -1.600259e+01  6.751734e+00  1.976649e+01
    endloop
  endfacet
  facet normal -9.013466e-01  3.728660e-01 -2.203298e-01
    outer loop
      vertex  -1.600259e+01  6.751734e+00  1.976649e+01
      vertex  -2.118161e+01  8.480879e+00  4.387960e+01
      vertex  -1.326306e+01  1.289543e+01  1.895639e+01
    endloop
  endfacet
  facet normal -8.845308e-01  4.180463e-01 -2.069845e-01
    outer loop
      vertex  -2.118161e+01  8.480879e+00  4.387960e+01
      vertex  -1.735998e+01  1.611572e+01  4.296824e+01
      vertex  -1.326306e+01  1.289543e+01  1.895639e+01
    endloop
  endfacet
  facet normal -6.709523e-01  7.111843e-01 -2.098570e-01
    outer loop
      vertex  -1.326306e+01  1.289543e+01  1.895639e+01
      vertex  -1.735998e+01  1.611572e+01  4.296824e+01
      vertex  -7.595025e+00  1.794490e+01  1.794675e+01
    endloop
  endfacet
  facet normal -6.417569e-01  7.413714e-01 -1.962563e-01
    outer loop
      vertex  -1.735998e+01  1.611572e+01  4.296824e+01
      vertex  -9.886760e+00  2.228411e+01  4.183239e+01
      vertex  -7.595025e+00  1.794490e+01  1.794675e+01
    endloop
  endfacet
  facet normal -2.800262e-01  9.394497e-01 -1.975337e-01
    outer loop
      vertex  -7.595025e+00  1.794490e+01  1.794675e+01
      vertex  -9.886760e+00  2.228411e+01  4.183239e+01
      vertex   4.325740e-15  2.010084e+01  1.743340e+01
    endloop
  endfacet
  facet normal -2.604518e-01  9.465592e-01 -1.902381e-01
    outer loop
      vertex  -9.886760e+00  2.228411e+01  4.183239e+01
      vertex   9.672013e-15  2.488845e+01  4.125487e+01
      vertex   4.325740e-15  2.010084e+01  1.743340e+01
    endloop
  endfacet
  facet normal  2.196911e-01  9.745856e-01 -4.380273e-02
    outer loop
      vertex   9.672013e-15  2.488845e+01  4.125487e+01
      vertex   1.561363e-14  2.612563e+01  6.878152e+01
      vertex   1.110461e+01  2.363974e+01  6.916653e+01
    endloop
  endfacet
  facet normal  2.575168e-01  9.644522e-01 -5.930496e-02
    outer loop
      vertex   9.672013e-15  2.488845e+01  4.125487e+01
      vertex   1.110461e+01  2.363974e+01  6.916653e+01
      vertex   9.886760e+00  2.228411e+01  4.183239e+01
    endloop
  endfacet
  facet normal  5.815371e-01  8.108283e-01 -6.612249e-02
    outer loop
      vertex   9.886760e+00  2.228411e+01  4.183239e+01
      vertex   1.110461e+01  2.363974e+01  6.916653e+01
      vertex   1.977415e+01  1.748357e+01  6.992376e+01
    endloop
  endfacet
  facet normal  6.422675e-01  7.604310e-01 -9.611034e-02
    outer loop
      vertex   9.886760e+00  2.228411e+01  4.183239e+01
      vertex   1.977415e+01  1.748357e+01  6.992376e+01
      vertex   1.735998e+01  1.611572e+01  4.296824e+01
    endloop
  endfacet
  facet normal  8.488454e-01  5.186400e-01 -1.023421e-01
    outer loop
      vertex   1.735998e+01  1.611572e+01  4.296824e+01
      vertex   1.977415e+01  1.748357e+01  6.992376e+01
      vertex   2.480889e+01  9.363235e+00  7.053133e+01
    endloop
  endfacet
  facet normal  8.923470e-01  4.304679e-01 -1.356990e-01
    outer loop
      vertex   1.735998e+01  1.611572e+01  4.296824e+01
      vertex   2.480889e+01  9.363235e+00  7.053133e+01
      vertex   2.118161e+01  8.480879e+00  4.387960e+01
    endloop
  endfacet
  facet normal  9.773870e-01  1.599473e-01 -1.383167e-01
    outer loop
      vertex   2.118161e+01  8.480879e+00  4.387960e+01
      vertex   2.480889e+01  9.363235e+00  7.053133e+01
      vertex   2.637447e+01 -3.922196e-15  7.076669e+01
    endloop
  endfacet
  facet normal  9.819609e-01  1.069898e-01 -1.559042e-01
    outer loop
      vertex   2.118161e+01  8.480879e+00  4.387960e+01
      vertex   2.637447e+01 -3.922196e-15  7.076669e+01
      vertex   2.216170e+01 -5.883294e-15  4.423264e+01
    endloop
  endfacet
  facet normal  9.819608e-01 -1.069898e-01 -1.559042e-01
    outer loop
      vertex   2.216170e+01 -5.883294e-15  4.423264e+01
      vertex   2.637447e+01 -3.922196e-15  7.076669e+01
      vertex   2.118161e+01 -8.480879e+00  4.387960e+01
    endloop
  endfacet
  facet normal  9.773870e-01 -1.599472e-01 -1.383167e-01
    outer loop
      vertex   2.637447e+01 -3.922196e-15  7.076669e+01
      vertex   2.480889e+01 -9.363235e+00  7.053133e+01
      vertex   2.118161e+01 -8.480879e+00  4.387960e+01
    endloop
  endfacet
  facet normal  8.923470e-01 -4.304679e-01 -1.356990e-01
    outer loop
      vertex   2.118161e+01 -8.480879e+00  4.387960e+01
      vertex   2.480889e+01 -9.363235e+00  7.053133e+01
      vertex   1.735998e+01 -1.611572e+01  4.296824e+01
    endloop
  endfacet
  facet normal  8.488454e-01 -5.186400e-01 -1.023421e-01
    outer loop
      vertex   2.480889e+01 -9.363235e+00  7.053133e+01
      vertex   1.977415e+01 -1.748357e+01  6.992376e+01
      vertex   1.735998e+01 -1.611572e+01  4.296824e+01
    endloop
  endfacet
  facet normal  6.422675e-01 -7.604309e-01 -9.611034e-02
    outer loop
      vertex   1.735998e+01 -1.611572e+01  4.296824e+01
      vertex   1.977415e+01 -1.748357e+01  6.992376e+01
      vertex   9.886760e+00 -2.228411e+01  4.183239e+01
    endloop
  endfacet
  facet normal  5.815370e-01 -8.108283e-01 -6.612250e-02
    outer loop
      vertex   1.977415e+01 -1.748357e+01  6.992376e+01
      vertex   1.110461e+01 -2.363974e+01  6.916653e+01
      vertex   9.886760e+00 -2.228411e+01  4.183239e+01
    endloop
  endfacet
  facet normal  2.575169e-01 -9.644522e-01 -5.930497e-02
    outer loop
      vertex   9.886760e+00 -2.228411e+01  4.183239e+01
      vertex   1.110461e+01 -2.363974e+01  6.916653e+01
      vertex   1.352600e-14 -2.488845e+01  4.125487e+01
    endloop
  endfacet
  facet normal  2.196912e-01 -9.745856e-01 -4.380273e-02
    outer loop
      vertex   1.110461e+01 -2.363974e+01  6.916653e+01
      vertex   1.818295e-14 -2.612563e+01  6.878152e+01
      vertex   1.352600e-14 -2.488845e+01  4.125487e+01
    endloop
  endfacet
  facet normal -2.196911e-01 -9.745856e-01 -4.380273e-02
    outer loop
      vertex   1.352600e-14 -2.488845e+01  4.125487e+01
      vertex   1.818295e-14 -2.612563e+01  6.878152e+01
      vertex  -1.110461e+01 -2.363974e+01  6.916653e+01
    endloop
  endfacet
  facet normal -2.575168e-01 -9.644522e-01 -5.930496e-02
    outer loop
      vertex   1.352600e-14 -2.488845e+01  4.125487e+01
      vertex  -1.110461e+01 -2.363974e+01  6.916653e+01
      vertex  -9.886760e+00 -2.228411e+01  4.183239e+01
    endloop
  endfacet
  facet normal -5.815371e-01 -8.108283e-01 -6.612249e-02
    outer loop
      vertex  -9.886760e+00 -2.228411e+01  4.183239e+01
      vertex  -1.110461e+01 -2.363974e+01  6.916653e+01
      vertex  -1.977415e+01 -1.748357e+01  6.992376e+01
    endloop
  endfacet
  facet normal -6.422675e-01 -7.604310e-01 -9.611034e-02
    outer loop
      vertex  -9.886760e+00 -2.228411e+01  4.183239e+01
      vertex  -1.977415e+01 -1.748357e+01  6.992376e+01
      vertex  -1.735998e+01 -1.611572e+01  4.296824e+01
    endloop
  endfacet
  facet normal -8.488454e-01 -5.186400e-01 -1.023421e-01
    outer loop
      vertex  -1.735998e+01 -1.611572e+01  4.296824e+01
      vertex  -1.977415e+01 -1.748357e+01  6.992376e+01
      vertex  -2.480889e+01 -9.363235e+00  7.053133e+01
    endloop
  endfacet
  facet normal -8.923470e-01 -4.304679e-01 -1.356990e-01
    outer loop
      vertex  -1.735998e+01 -1.611572e+01  4.296824e+01
      vertex  -2.480889e+01 -9.363235e+00  7.053133e+01
      vertex  -2.118161e+01 -8.480879e+00  4.387960e+01
    endloop
  endfacet
  facet normal -9.773870e-01 -1.599473e-01 -1.383167e-01
    outer loop
      vertex  -2.118161e+01 -8.480879e+00  4.387960e+01
      vertex  -2.480889e+01 -9.363235e+00  7.053133e+01
      vertex  -2.637447e+01  1.279385e-15  7.076669e+01
    endloop
  endfacet
  facet normal -9.819609e-01 -1.069898e-01 -1.559042e-01
    outer loop
      vertex  -2.118161e+01 -8.480879e+00  4.387960e+01
      vertex  -2.637447e+01  1.279385e-15  7.076669e+01
      vertex  -2.216170e+01  1.919077e-15  4.423264e+01
    endloop
  endfacet
  facet normal -9.819608e-01  1.069898e-01 -1.559042e-01
    outer loop
      vertex  -2.216170e+01  1.919077e-15  4.423264e+01
      vertex  -2.637447e+01  1.279385e-15  7.076669e+01
      vertex  -2.118161e+01  8.480879e+00  4.387960e+01
    endloop
  endfacet
  facet normal -9.773870e-01  1.599472e-01 -1.383167e-01
    outer loop
      vertex  -2.637447e+01  1.279385e-15  7.076669e+01
      vertex  -2.480889e+01  9.363235e+00  7.053133e+01
      vertex  -2.118161e+01  8.480879e+00  4.387960e+01
    endloop
  endfacet
  facet normal -8.923470e-01  4.304679e-01 -1.356990e-01
    outer loop
      vertex  -2.118161e+01  8.480879e+00  4.387960e+01
      vertex  -2.480889e+01  9.363235e+00  7.053133e+01
      vertex  -1.735998e+01  1.611572e+01  4.296824e+01
    endloop
  endfacet
  facet normal -8.488454e-01  5.186400e-01 -1.023421e-01
    outer loop
      vertex  -2.480889e+01  9.363235e+00  7.053133e+01
      vertex  -1.977415e+01  1.748357e+01  6.992376e+01
      vertex  -1.735998e+01  1.611572e+01  4.296824e+01
    endloop
  endfacet
  facet normal -6.422675e-01  7.604309e-01 -9.611034e-02
    outer loop
      vertex  -1.735998e+01  1.611572e+01  4.296824e+01
      vertex  -1.977415e+01  1.748357e+01  6.992376e+01
      vertex  -9.886760e+00  2.228411e+01  4.183239e+01
    endloop
  endfacet
  facet normal -5.815370e-01  8.108283e-01 -6.612250e-02
    outer loop
      vertex  -1.977415e+01  1.748357e+01  6.992376e+01
      vertex  -1.110461e+01  2.363974e+01  6.916653e+01
      vertex  -9.886760e+00  2.228411e+01  4.183239e+01
    endloop
  endfacet
  facet normal -2.575169e-01  9.644522e-01 -5.930497e-02
    outer loop
      vertex  -9.886760e+00  2.228411e+01  4.183239e+01
      vertex  -1.110461e+01  2.363974e+01  6.916653e+01
      vertex   9.672013e-15  2.488845e+01  4.125487e+01
    endloop
  endfacet
  facet normal -2.196912e-01  9.745856e-01 -4.380273e-02
    outer loop
      vertex  -1.110461e+01  2.363974e+01  6.916653e+01
      vertex   1.561363e-14  2.612563e+01  6.878152e+01
      vertex   9.672013e-15  2.488845e+01  4.125487e+01
    endloop
  endfacet
  facet normal  1.826099e-01  9.830027e-01  1.895227e-02
    outer loop
      vertex   1.561363e-14  2.612563e+01  6.878152e+01
      vertex   2.172539e-14  2.557521e+01  9.733044e+01
      vertex   1.158708e+01  2.342023e+01  9.745878e+01
    endloop
  endfacet
  facet normal  2.183262e-01  9.758682e-01  3.848012e-03
    outer loop
      vertex   1.561363e-14  2.612563e+01  6.878152e+01
      vertex   1.158708e+01  2.342023e+01  9.745878e+01
      vertex   1.110461e+01  2.363974e+01  6.916653e+01
    endloop
  endfacet
  facet normal  5.191683e-01  8.546692e-01 -2.222561e-03
    outer loop
      vertex   1.110461e+01  2.363974e+01  6.916653e+01
      vertex   1.158708e+01  2.342023e+01  9.745878e+01
      vertex   2.091927e+01  1.775205e+01  9.771119e+01
    endloop
  endfacet
  facet normal  5.805227e-01  8.136235e-01 -3.178452e-02
    outer loop
      vertex   1.110461e+01  2.363974e+01  6.916653e+01
      vertex   2.091927e+01  1.775205e+01  9.771119e+01
      vertex   1.977415e+01  1.748357e+01  6.992376e+01
    endloop
  endfacet
  facet normal  8.011934e-01  5.971472e-01 -3.878679e-02
    outer loop
      vertex   1.977415e+01  1.748357e+01  6.992376e+01
      vertex   2.091927e+01  1.775205e+01  9.771119e+01
      vertex   2.694259e+01  9.683716e+00  9.791371e+01
    endloop
  endfacet
  facet normal  8.500849e-01  5.216529e-01 -7.234597e-02
    outer loop
      vertex   1.977415e+01  1.748357e+01  6.992376e+01
      vertex   2.694259e+01  9.683716e+00  9.791371e+01
      vertex   2.480889e+01  9.363235e+00  7.053133e+01
    endloop
  endfacet
  facet normal  9.740841e-01  2.121698e-01 -7.838614e-02
    outer loop
      vertex   2.480889e+01  9.363235e+00  7.053133e+01
      vertex   2.694259e+01  9.683716e+00  9.791371e+01
      vertex   2.905816e+01 -1.307399e-15  9.799216e+01
    endloop
  endfacet
  facet normal  9.820683e-01  1.617735e-01 -9.680508e-02
    outer loop
      vertex   2.480889e+01  9.363235e+00  7.053133e+01
      vertex   2.905816e+01 -1.307399e-15  9.799216e+01
      vertex   2.637447e+01 -3.922196e-15  7.076669e+01
    endloop
  endfacet
  facet normal  9.820683e-01 -1.617735e-01 -9.680508e-02
    outer loop
      vertex   2.637447e+01 -3.922196e-15  7.076669e+01
      vertex   2.905816e+01 -1.307399e-15  9.799216e+01
      vertex   2.480889e+01 -9.363235e+00  7.053133e+01
    endloop
  endfacet
  facet normal  9.740841e-01 -2.121698e-01 -7.838614e-02
    outer loop
      vertex   2.905816e+01 -1.307399e-15  9.799216e+01
      vertex   2.694259e+01 -9.683716e+00  9.791371e+01
      vertex   2.480889e+01 -9.363235e+00  7.053133e+01
    endloop
  endfacet
  facet normal  8.500850e-01 -5.216529e-01 -7.234599e-02
    outer loop
      vertex   2.480889e+01 -9.363235e+00  7.053133e+01
      vertex   2.694259e+01 -9.683716e+00  9.791371e+01
      vertex   1.977415e+01 -1.748357e+01  6.992376e+01
    endloop
  endfacet
  facet normal  8.011934e-01 -5.971472e-01 -3.878679e-02
    outer loop
      vertex   2.694259e+01 -9.683716e+00  9.791371e+01
      vertex   2.091927e+01 -1.775205e+01  9.771119e+01
      vertex   1.977415e+01 -1.748357e+01  6.992376e+01
    endloop
  endfacet
  facet normal  5.805227e-01 -8.136235e-01 -3.178453e-02
    outer loop
      vertex   1.977415e+01 -1.748357e+01  6.992376e+01
      vertex   2.091927e+01 -1.775205e+01  9.771119e+01
      vertex   1.110461e+01 -2.363974e+01  6.916653e+01
    endloop
  endfacet
  facet normal  5.191683e-01 -8.546692e-01 -2.222556e-03
    outer loop
      vertex   2.091927e+01 -1.775205e+01  9.771119e+01
      vertex   1.158708e+01 -2.342023e+01  9.745878e+01
      vertex   1.110461e+01 -2.363974e+01  6.916653e+01
    endloop
  endfacet
  facet normal  2.183262e-01 -9.758682e-01  3.848016e-03
    outer loop
      vertex   1.110461e+01 -2.363974e+01  6.916653e+01
      vertex   1.158708e+01 -2.342023e+01  9.745878e+01
      vertex   1.818295e-14 -2.612563e+01  6.878152e+01
    endloop
  endfacet
  facet normal  1.826099e-01 -9.830028e-01  1.895227e-02
    outer loop
      vertex   1.158708e+01 -2.342023e+01  9.745878e+01
      vertex   2.258183e-14 -2.557521e+01  9.733044e+01
      vertex   1.818295e-14 -2.612563e+01  6.878152e+01
    endloop
  endfacet
  facet normal -1.826099e-01 -9.830027e-01  1.895227e-02
    outer loop
      vertex   1.818295e-14 -2.612563e+01  6.878152e+01
      vertex   2.258183e-14 -2.557521e+01  9.733044e+01
      vertex  -1.158708e+01 -2.342023e+01  9.745878e+01
    endloop
  endfacet
  facet normal -2.183262e-01 -9.758682e-01  3.848012e-03
    outer loop
      vertex   1.818295e-14 -2.612563e+01  6.878152e+01
      vertex  -1.158708e+01 -2.342023e+01  9.745878e+01
      vertex  -1.110461e+01 -2.363974e+01  6.916653e+01
    endloop
  endfacet
  facet normal -5.191683e-01 -8.546692e-01 -2.222561e-03
    outer loop
      vertex  -1.110461e+01 -2.363974e+01  6.916653e+01
      vertex  -1.158708e+01 -2.342023e+01  9.745878e+01
      vertex  -2.091927e+01 -1.775205e+01  9.771119e+01
    endloop
  endfacet
  facet normal -5.805227e-01 -8.136235e-01 -3.178452e-02
    outer loop
      vertex  -1.110461e+01 -2.363974e+01  6.916653e+01
      vertex  -2.091927e+01 -1.775205e+01  9.771119e+01
      vertex  -1.977415e+01 -1.748357e+01  6.992376e+01
    endloop
  endfacet
  facet normal -8.011934e-01 -5.971472e-01 -3.878679e-02
    outer loop
      vertex  -1.977415e+01 -1.748357e+01  6.992376e+01
      vertex  -2.091927e+01 -1.775205e+01  9.771119e+01
      vertex  -2.694259e+01 -9.683716e+00  9.791371e+01
    endloop
  endfacet
  facet normal -8.500849e-01 -5.216529e-01 -7.234597e-02
    outer loop
      vertex  -1.977415e+01 -1.748357e+01  6.992376e+01
      vertex  -2.694259e+01 -9.683716e+00  9.791371e+01
      vertex  -2.480889e+01 -9.363235e+00  7.053133e+01
    endloop
  endfacet
  facet normal -9.740841e-01 -2.121698e-01 -7.838614e-02
    outer loop
      vertex  -2.480889e+01 -9.363235e+00  7.053133e+01
      vertex  -2.694259e+01 -9.683716e+00  9.791371e+01
      vertex  -2.905816e+01  4.264616e-16  9.799216e+01
    endloop
  endfacet
  facet normal -9.820683e-01 -1.617735e-01 -9.680508e-02
    outer loop
      vertex  -2.480889e+01 -9.363235e+00  7.053133e+01
      vertex  -2.905816e+01  4.264616e-16  9.799216e+01
      vertex  -2.637447e+01  1.279385e-15  7.076669e+01
    endloop
  endfacet
  facet normal -9.820683e-01  1.617735e-01 -9.680508e-02
    outer loop
      vertex  -2.637447e+01  1.279385e-15  7.076669e+01
      vertex  -2.905816e+01  4.264616e-16  9.799216e+01
      vertex  -2.480889e+01  9.363235e+00  7.053133e+01
    endloop
  endfacet
  facet normal -9.740841e-01  2.121698e-01 -7.838614e-02
    outer loop
      vertex  -2.905816e+01  4.264616e-16  9.799216e+01
      vertex  -2.694259e+01  9.683716e+00  9.791371e+01
      vertex  -2.480889e+01  9.363235e+00  7.053133e+01
    endloop
  endfacet
  facet normal -8.500850e-01  5.216529e-01 -7.234599e-02
    outer loop
      vertex  -2.480889e+01  9.363235e+00  7.053133e+01
      vertex  -2.694259e+01  9.683716e+00  9.791371e+01
      vertex  -1.977415e+01  1.748357e+01  6.992376e+01
    endloop
  endfacet
  facet normal -8.011934e-01  5.971472e-01 -3.878679e-02
    outer loop
      vertex  -2.694259e+01  9.683716e+00  9.791371e+01
      vertex  -2.091927e+01  1.775205e+01  9.771119e+01
      vertex  -1.977415e+01  1.748357e+01  6.992376e+01
    endloop
  endfacet
  facet normal -5.805227e-01  8.136235e-01 -3.178453e-02
    outer loop
      vertex  -1.977415e+01  1.748357e+01  6.992376e+01
      vertex  -2.091927e+01  1.775205e+01  9.771119e+01
      vertex  -1.110461e+01  2.363974e+01  6.916653e+01
    endloop
  endfacet
  facet normal -5.191683e-01  8.546692e-01 -2.222556e-03
    outer loop
      vertex  -2.091927e+01  1.775205e+01  9.771119e+01
      vertex  -1.158708e+01  2.342023e+01  9.745878e+01
      vertex  -1.110461e+01  2.363974e+01  6.916653e+01
    endloop
  endfacet
  facet normal -2.183262e-01  9.758682e-01  3.848016e-03
    outer loop
      vertex  -1.110461e+01  2.363974e+01  6.916653e+01
      vertex  -1.158708e+01  2.342023e+01  9.745878e+01
      vertex   1.561363e-14  2.612563e+01  6.878152e+01
    endloop
  endfacet
  facet normal -1.826099e-01  9.830028e-01  1.895227e-02
    outer loop
      vertex  -1.158708e+01  2.342023e+01  9.745878e+01
      vertex   2.172539e-14  2.557521e+01  9.733044e+01
      vertex   1.561363e-14  2.612563e+01  6.878152e+01
    endloop
  endfacet
  facet normal  1.660450e-01  9.858926e-01  2.109080e-02
    outer loop
      vertex   2.172539e-14  2.557521e+01  9.733044e+01
      vertex   2.758210e-14  2.500000e+01  1.242188e+02
      vertex   1.167267e+01  2.303408e+01  1.242188e+02
    endloop
  endfacet
  facet normal  1.826831e-01  9.830777e-01  1.360188e-02
    outer loop
      vertex   2.172539e-14  2.557521e+01  9.733044e+01
      vertex   1.167267e+01  2.303408e+01  1.242188e+02
      vertex   1.158708e+01  2.342023e+01  9.745878e+01
    endloop
  endfacet
  facet normal  4.899305e-01  8.716919e-01  1.101174e-02
    outer loop
      vertex   1.158708e+01  2.342023e+01  9.745878e+01
      vertex   1.167267e+01  2.303408e+01  1.242188e+02
      vertex   2.120904e+01  1.767420e+01  1.242188e+02
    endloop
  endfacet
  facet normal  5.191857e-01  8.546557e-01 -3.165523e-03
    outer loop
      vertex   1.158708e+01  2.342023e+01  9.745878e+01
      vertex   2.120904e+01  1.767420e+01  1.242188e+02
      vertex   2.091927e+01  1.775205e+01  9.771119e+01
    endloop
  endfacet
  facet normal  7.772954e-01  6.291006e-01 -6.649529e-03
    outer loop
      vertex   2.091927e+01  1.775205e+01  9.771119e+01
      vertex   2.120904e+01  1.767420e+01  1.242188e+02
      vertex   2.764089e+01  9.727229e+00  1.242188e+02
    endloop
  endfacet
  facet normal  8.013991e-01  5.977155e-01 -2.226302e-02
    outer loop
      vertex   2.091927e+01  1.775205e+01  9.771119e+01
      vertex   2.764089e+01  9.727229e+00  1.242188e+02
      vertex   2.694259e+01  9.683716e+00  9.791371e+01
    endloop
  endfacet
  facet normal  9.714943e-01  2.356128e-01 -2.617946e-02
    outer loop
      vertex   2.694259e+01  9.683716e+00  9.791371e+01
      vertex   2.764089e+01  9.727229e+00  1.242188e+02
      vertex   3.000000e+01  0.000000e+00  1.242188e+02
    endloop
  endfacet
  facet normal  9.764162e-01  2.130302e-01 -3.506491e-02
    outer loop
      vertex   2.694259e+01  9.683716e+00  9.791371e+01
      vertex   3.000000e+01  0.000000e+00  1.242188e+02
      vertex   2.905816e+01 -1.307399e-15  9.799216e+01
    endloop
  endfacet
  facet normal  9.764162e-01 -2.130302e-01 -3.506490e-02
    outer loop
      vertex   2.905816e+01 -1.307399e-15  9.799216e+01
      vertex   3.000000e+01  0.000000e+00  1.242188e+02
      vertex   2.694259e+01 -9.683716e+00  9.791371e+01
    endloop
  endfacet
  facet normal  9.714943e-01 -2.356128e-01 -2.617946e-02
    outer loop
      vertex   3.000000e+01  0.000000e+00  1.242188e+02
      vertex   2.764089e+01 -9.727229e+00  1.242188e+02
      vertex   2.694259e+01 -9.683716e+00  9.791371e+01
    endloop
  endfacet
  facet normal  8.013991e-01 -5.977155e-01 -2.226302e-02
    outer loop
      vertex   2.694259e+01 -9.683716e+00  9.791371e+01
      vertex   2.764089e+01 -9.727229e+00  1.242188e+02
      vertex   2.091927e+01 -1.775205e+01  9.771119e+01
    endloop
  endfacet
  facet normal  7.772955e-01 -6.291006e-01 -6.649530e-03
    outer loop
      vertex   2.764089e+01 -9.727229e+00  1.242188e+02
      vertex   2.120904e+01 -1.767420e+01  1.242188e+02
      vertex   2.091927e+01 -1.775205e+01  9.771119e+01
    endloop
  endfacet
  facet normal  5.191856e-01 -8.546557e-01 -3.165521e-03
    outer loop
      vertex   2.091927e+01 -1.775205e+01  9.771119e+01
      vertex   2.120904e+01 -1.767420e+01  1.242188e+02
      vertex   1.158708e+01 -2.342023e+01  9.745878e+01
    endloop
  endfacet
  facet normal  4.899305e-01 -8.716919e-01  1.101174e-02
    outer loop
      vertex   2.120904e+01 -1.767420e+01  1.242188e+02
      vertex   1.167267e+01 -2.303408e+01  1.242188e+02
      vertex   1.158708e+01 -2.342023e+01  9.745878e+01
    endloop
  endfacet
  facet normal  1.826831e-01 -9.830777e-01  1.360188e-02
    outer loop
      vertex   1.158708e+01 -2.342023e+01  9.745878e+01
      vertex   1.167267e+01 -2.303408e+01  1.242188e+02
      vertex   2.258183e-14 -2.557521e+01  9.733044e+01
    endloop
  endfacet
  facet normal  1.660450e-01 -9.858926e-01  2.109080e-02
    outer loop
      vertex   1.167267e+01 -2.303408e+01  1.242188e+02
      vertex   2.758210e-14 -2.500000e+01  1.242188e+02
      vertex   2.258183e-14 -2.557521e+01  9.733044e+01
    endloop
  endfacet
  facet normal -1.660450e-01 -9.858926e-01  2.109080e-02
    outer loop
      vertex   2.258183e-14 -2.557521e+01  9.733044e+01
      vertex   2.758210e-14 -2.500000e+01  1.242188e+02
      vertex  -1.167267e+01 -2.303408e+01  1.242188e+02
    endloop
  endfacet
  facet normal -1.826831e-01 -9.830777e-01  1.360188e-02
    outer loop
      vertex   2.258183e-14 -2.557521e+01  9.733044e+01
      vertex  -1.167267e+01 -2.303408e+01  1.242188e+02
      vertex  -1.158708e+01 -2.342023e+01  9.745878e+01
    endloop
  endfacet
  facet normal -4.899305e-01 -8.716919e-01  1.101174e-02
    outer loop
      vertex  -1.158708e+01 -2.342023e+01  9.745878e+01
      vertex  -1.167267e+01 -2.303408e+01  1.242188e+02
      vertex  -2.120904e+01 -1.767420e+01  1.242188e+02
    endloop
  endfacet
  facet normal -5.191857e-01 -8.546557e-01 -3.165523e-03
    outer loop
      vertex  -1.158708e+01 -2.342023e+01  9.745878e+01
      vertex  -2.120904e+01 -1.767420e+01  1.242188e+02
      vertex  -2.091927e+01 -1.775205e+01  9.771119e+01
    endloop
  endfacet
  facet normal -7.772954e-01 -6.291006e-01 -6.649529e-03
    outer loop
      vertex  -2.091927e+01 -1.775205e+01  9.771119e+01
      vertex  -2.120904e+01 -1.767420e+01  1.242188e+02
      vertex  -2.764089e+01 -9.727229e+00  1.242188e+02
    endloop
  endfacet
  facet normal -8.013991e-01 -5.977155e-01 -2.226302e-02
    outer loop
      vertex  -2.091927e+01 -1.775205e+01  9.771119e+01
      vertex  -2.764089e+01 -9.727229e+00  1.242188e+02
      vertex  -2.694259e+01 -9.683716e+00  9.791371e+01
    endloop
  endfacet
  facet normal -9.714943e-01 -2.356128e-01 -2.617946e-02
    outer loop
      vertex  -2.694259e+01 -9.683716e+00  9.791371e+01
      vertex  -2.764089e+01 -9.727229e+00  1.242188e+02
      vertex  -3.000000e+01  0.000000e+00  1.242188e+02
    endloop
  endfacet
  facet normal -9.764162e-01 -2.130302e-01 -3.506491e-02
    outer loop
      vertex  -2.694259e+01 -9.683716e+00  9.791371e+01
      vertex  -3.000000e+01  0.000000e+00  1.242188e+02
      vertex  -2.905816e+01  4.264616e-16  9.799216e+01
    endloop
  endfacet
  facet normal -9.764162e-01  2.130302e-01 -3.506490e-02
    outer loop
      vertex  -2.905816e+01  4.264616e-16  9.799216e+01
      vertex  -3.000000e+01  0.000000e+00  1.242188e+02
      vertex  -2.694259e+01  9.683716e+00  9.791371e+01
    endloop
  endfacet
  facet normal -9.714943e-01  2.356128e-01 -2.617946e-02
    outer loop
      vertex  -3.000000e+01  0.000000e+00  1.242188e+02
      vertex  -2.764089e+01  9.727229e+00  1.242188e+02
      vertex  -2.694259e+01  9.683716e+00  9.791371e+01
    endloop
  endfacet
  facet normal -8.013991e-01  5.977155e-01 -2.226302e-02
    outer loop
      vertex  -2.694259e+01  9.683716e+00  9.791371e+01
      vertex  -2.764089e+01  9.727229e+00  1.242188e+02
      vertex  -2.091927e+01  1.775205e+01  9.771119e+01
    endloop
  endfacet
  facet normal -7.772955e-01  6.291006e-01 -6.649530e-03
    outer loop
      vertex  -2.764089e+01  9.727229e+00  1.242188e+02
      vertex  -2.120904e+01  1.767420e+01  1.242188e+02
      vertex  -2.091927e+01  1.775205e+01  9.771119e+01
    endloop
  endfacet
  facet normal -5.191856e-01  8.546557e-01 -3.165521e-03
    outer loop
      vertex  -2.091927e+01  1.775205e+01  9.771119e+01
      vertex  -2.120904e+01  1.767420e+01  1.242188e+02
      vertex  -1.158708e+01  2.342023e+01  9.745878e+01
    endloop
  endfacet
  facet normal -4.899305e-01  8.716919e-01  1.101174e-02
    outer loop
      vertex  -2.120904e+01  1.767420e+01  1.242188e+02
      vertex  -1.167267e+01  2.303408e+01  1.242188e+02
      vertex  -1.158708e+01  2.342023e+01  9.745878e+01
    endloop
  endfacet
  facet normal -1.826831e-01  9.830777e-01  1.360188e-02
    outer loop
      vertex  -1.158708e+01  2.342023e+01  9.745878e+01
      vertex  -1.167267e+01  2.303408e+01  1.242188e+02
      vertex   2.172539e-14  2.557521e+01  9.733044e+01
    endloop
  endfacet
  facet normal -1.660450e-01  9.858926e-01  2.109080e-02
    outer loop
      vertex  -1.167267e+01  2.303408e+01  1.242188e+02
      vertex   2.758210e-14  2.500000e+01  1.242188e+02
      vertex   2.172539e-14  2.557521e+01  9.733044e+01
    endloop
  endfacet
  facet normal  1.590702e-01  9.868325e-01  2.929857e-02
    outer loop
      vertex   2.758210e-14  2.500000e+01  1.242188e+02
      vertex   3.399398e-14  2.414647e+01  1.529673e+02
      vertex   1.101711e+01  2.237009e+01  1.529841e+02
    endloop
  endfacet
  facet normal  1.660234e-01  9.857647e-01  2.653786e-02
    outer loop
      vertex   2.758210e-14  2.500000e+01  1.242188e+02
      vertex   1.101711e+01  2.237009e+01  1.529841e+02
      vertex   1.167267e+01  2.303408e+01  1.242188e+02
    endloop
  endfacet
  facet normal  4.821813e-01  8.755158e-01  3.119832e-02
    outer loop
      vertex   1.167267e+01  2.303408e+01  1.242188e+02
      vertex   1.101711e+01  2.237009e+01  1.529841e+02
      vertex   2.014242e+01  1.734282e+01  1.530289e+02
    endloop
  endfacet
  facet normal  4.897660e-01  8.713993e-01  2.815536e-02
    outer loop
      vertex   1.167267e+01  2.303408e+01  1.242188e+02
      vertex   2.014242e+01  1.734282e+01  1.530289e+02
      vertex   2.120904e+01  1.767420e+01  1.242188e+02
    endloop
  endfacet
  facet normal  7.731121e-01  6.332523e-01  3.590634e-02
    outer loop
      vertex   2.120904e+01  1.767420e+01  1.242188e+02
      vertex   2.014242e+01  1.734282e+01  1.530289e+02
      vertex   2.648257e+01  9.599105e+00  1.530869e+02
    endloop
  endfacet
  facet normal  7.768642e-01  6.287516e-01  3.396193e-02
    outer loop
      vertex   2.120904e+01  1.767420e+01  1.242188e+02
      vertex   2.648257e+01  9.599105e+00  1.530869e+02
      vertex   2.764089e+01  9.727229e+00  1.242188e+02
    endloop
  endfacet
  facet normal  9.696186e-01  2.413334e-01  3.997667e-02
    outer loop
      vertex   2.764089e+01  9.727229e+00  1.242188e+02
      vertex   2.648257e+01  9.599105e+00  1.530869e+02
      vertex   2.887051e+01 -2.842171e-16  1.531168e+02
    endloop
  endfacet
  facet normal  9.711270e-01  2.355237e-01  3.795694e-02
    outer loop
      vertex   2.764089e+01  9.727229e+00  1.242188e+02
      vertex   2.887051e+01 -2.842171e-16  1.531168e+02
      vertex   3.000000e+01  0.000000e+00  1.242188e+02
    endloop
  endfacet
  facet normal  9.711270e-01 -2.355237e-01  3.795694e-02
    outer loop
      vertex   3.000000e+01  0.000000e+00  1.242188e+02
      vertex   2.887051e+01 -2.842171e-16  1.531168e+02
      vertex   2.764089e+01 -9.727229e+00  1.242188e+02
    endloop
  endfacet
  facet normal  9.696186e-01 -2.413334e-01  3.997667e-02
    outer loop
      vertex   2.887051e+01 -2.842171e-16  1.531168e+02
      vertex   2.648257e+01 -9.599105e+00  1.530869e+02
      vertex   2.764089e+01 -9.727229e+00  1.242188e+02
    endloop
  endfacet
  facet normal  7.768642e-01 -6.287516e-01  3.396194e-02
    outer loop
      vertex   2.764089e+01 -9.727229e+00  1.242188e+02
      vertex   2.648257e+01 -9.599105e+00  1.530869e+02
      vertex   2.120904e+01 -1.767420e+01  1.242188e+02
    endloop
  endfacet
  facet normal  7.731121e-01 -6.332523e-01  3.590633e-02
    outer loop
      vertex   2.648257e+01 -9.599105e+00  1.530869e+02
      vertex   2.014242e+01 -1.734282e+01  1.530289e+02
      vertex   2.120904e+01 -1.767420e+01  1.242188e+02
    endloop
  endfacet
  facet normal  4.897660e-01 -8.713993e-01  2.815535e-02
    outer loop
      vertex   2.120904e+01 -1.767420e+01  1.242188e+02
      vertex   2.014242e+01 -1.734282e+01  1.530289e+02
      vertex   1.167267e+01 -2.303408e+01  1.242188e+02
    endloop
  endfacet
  facet normal  4.821812e-01 -8.755158e-01  3.119833e-02
    outer loop
      vertex   2.014242e+01 -1.734282e+01  1.530289e+02
      vertex   1.101711e+01 -2.237009e+01  1.529841e+02
      vertex   1.167267e+01 -2.303408e+01  1.242188e+02
    endloop
  endfacet
  facet normal  1.660234e-01 -9.857647e-01  2.653786e-02
    outer loop
      vertex   1.167267e+01 -2.303408e+01  1.242188e+02
      vertex   1.101711e+01 -2.237009e+01  1.529841e+02
      vertex   2.758210e-14 -2.500000e+01  1.242188e+02
    endloop
  endfacet
  facet normal  1.590702e-01 -9.868325e-01  2.929857e-02
    outer loop
      vertex   1.101711e+01 -2.237009e+01  1.529841e+02
      vertex   3.360176e-14 -2.414647e+01  1.529673e+02
      vertex   2.758210e-14 -2.500000e+01  1.242188e+02
    endloop
  endfacet
  facet normal -1.590702e-01 -9.868325e-01  2.929857e-02
    outer loop
      vertex   2.758210e-14 -2.500000e+01  1.242188e+02
      vertex   3.360176e-14 -2.414647e+01  1.529673e+02
      vertex  -1.101711e+01 -2.237009e+01  1.529841e+02
    endloop
  endfacet
  facet normal -1.660234e-01 -9.857647e-01  2.653786e-02
    outer loop
      vertex   2.758210e-14 -2.500000e+01  1.242188e+02
      vertex  -1.101711e+01 -2.237009e+01  1.529841e+02
      vertex  -1.167267e+01 -2.303408e+01  1.242188e+02
    endloop
  endfacet
  facet normal -4.821813e-01 -8.755158e-01  3.119832e-02
    outer loop
      vertex  -1.167267e+01 -2.303408e+01  1.242188e+02
      vertex  -1.101711e+01 -2.237009e+01  1.529841e+02
      vertex  -2.014242e+01 -1.734282e+01  1.530289e+02
    endloop
  endfacet
  facet normal -4.897660e-01 -8.713993e-01  2.815536e-02
    outer loop
      vertex  -1.167267e+01 -2.303408e+01  1.242188e+02
      vertex  -2.014242e+01 -1.734282e+01  1.530289e+02
      vertex  -2.120904e+01 -1.767420e+01  1.242188e+02
    endloop
  endfacet
  facet normal -7.731121e-01 -6.332523e-01  3.590634e-02
    outer loop
      vertex  -2.120904e+01 -1.767420e+01  1.242188e+02
      vertex  -2.014242e+01 -1.734282e+01  1.530289e+02
      vertex  -2.648257e+01 -9.599105e+00  1.530869e+02
    endloop
  endfacet
  facet normal -7.768642e-01 -6.287516e-01  3.396193e-02
    outer loop
      vertex  -2.120904e+01 -1.767420e+01  1.242188e+02
      vertex  -2.648257e+01 -9.599105e+00  1.530869e+02
      vertex  -2.764089e+01 -9.727229e+00  1.242188e+02
    endloop
  endfacet
  facet normal -9.696186e-01 -2.413334e-01  3.997667e-02
    outer loop
      vertex  -2.764089e+01 -9.727229e+00  1.242188e+02
      vertex  -2.648257e+01 -9.599105e+00  1.530869e+02
      vertex  -2.887051e+01 -1.218462e-16  1.531168e+02
    endloop
  endfacet
  facet normal -9.711270e-01 -2.355237e-01  3.795694e-02
    outer loop
      vertex  -2.764089e+01 -9.727229e+00  1.242188e+02
      vertex  -2.887051e+01 -1.218462e-16  1.531168e+02
      vertex  -3.000000e+01  0.000000e+00  1.242188e+02
    endloop
  endfacet
  facet normal -9.711270e-01  2.355237e-01  3.795694e-02
    outer loop
      vertex  -3.000000e+01  0.000000e+00  1.242188e+02
      vertex  -2.887051e+01 -1.218462e-16  1.531168e+02
      vertex  -2.764089e+01  9.727229e+00  1.242188e+02
    endloop
  endfacet
  facet normal -9.696186e-01  2.413334e-01  3.997667e-02
    outer loop
      vertex  -2.887051e+01 -1.218462e-16  1.531168e+02
      vertex  -2.648257e+01  9.599105e+00  1.530869e+02
      vertex  -2.764089e+01  9.727229e+00  1.242188e+02
    endloop
  endfacet
  facet normal -7.768642e-01  6.287516e-01  3.396194e-02
    outer loop
      vertex  -2.764089e+01  9.727229e+00  1.242188e+02
      vertex  -2.648257e+01  9.599105e+00  1.530869e+02
      vertex  -2.120904e+01  1.767420e+01  1.242188e+02
    endloop
  endfacet
  facet normal -7.731121e-01  6.332523e-01  3.590633e-02
    outer loop
      vertex  -2.648257e+01  9.599105e+00  1.530869e+02
      vertex  -2.014242e+01  1.734282e+01  1.530289e+02
      vertex  -2.120904e+01  1.767420e+01  1.242188e+02
    endloop
  endfacet
  facet normal -4.897660e-01  8.713993e-01  2.815535e-02
    outer loop
      vertex  -2.120904e+01  1.767420e+01  1.242188e+02
      vertex  -2.014242e+01  1.734282e+01  1.530289e+02
      vertex  -1.167267e+01  2.303408e+01  1.242188e+02
    endloop
  endfacet
  facet normal -4.821812e-01  8.755158e-01  3.119833e-02
    outer loop
      vertex  -2.014242e+01  1.734282e+01  1.530289e+02
      vertex  -1.101711e+01  2.237009e+01  1.529841e+02
      vertex  -1.167267e+01  2.303408e+01  1.242188e+02
    endloop
  endfacet
  facet normal -1.660234e-01  9.857647e-01  2.653786e-02
    outer loop
      vertex  -1.167267e+01  2.303408e+01  1.242188e+02
      vertex  -1.101711e+01  2.237009e+01  1.529841e+02
      vertex   2.758210e-14  2.500000e+01  1.242188e+02
    endloop
  endfacet
  facet normal -1.590702e-01  9.868325e-01  2.929857e-02
    outer loop
      vertex  -1.101711e+01  2.237009e+01  1.529841e+02
      vertex   3.399398e-14  2.414647e+01  1.529673e+02
      vertex   2.758210e-14  2.500000e+01  1.242188e+02
    endloop
  endfacet
  facet normal  1.427431e-01  9.875326e-01  6.636096e-02
    outer loop
      vertex   3.399398e-14  2.414647e+01  1.529673e+02
      vertex   4.167402e-14  2.183941e+01  1.872991e+02
      vertex   9.316880e+00  2.048932e+01  1.873495e+02
    endloop
  endfacet
  facet normal  1.587861e-01  9.853779e-01  6.178446e-02
    outer loop
      vertex   3.399398e-14  2.414647e+01  1.529673e+02
      vertex   9.316880e+00  2.048932e+01  1.873495e+02
      vertex   1.101711e+01  2.237009e+01  1.529841e+02
    endloop
  endfacet
  facet normal  4.662671e-01  8.817638e-01  7.132636e-02
    outer loop
      vertex   1.101711e+01  2.237009e+01  1.529841e+02
      vertex   9.316880e+00  2.048932e+01  1.873495e+02
      vertex   1.730220e+01  1.625588e+01  1.874840e+02
    endloop
  endfacet
  facet normal  4.811883e-01  8.740348e-01  6.723832e-02
    outer loop
      vertex   1.101711e+01  2.237009e+01  1.529841e+02
      vertex   1.730220e+01  1.625588e+01  1.874840e+02
      vertex   2.014242e+01  1.734282e+01  1.530289e+02
    endloop
  endfacet
  facet normal  7.652474e-01  6.383347e-01  8.321846e-02
    outer loop
      vertex   2.014242e+01  1.734282e+01  1.530289e+02
      vertex   1.730220e+01  1.625588e+01  1.874840e+02
      vertex   2.324457e+01  9.109403e+00  1.876579e+02
    endloop
  endfacet
  facet normal  7.708930e-01  6.317739e-01  8.115284e-02
    outer loop
      vertex   2.014242e+01  1.734282e+01  1.530289e+02
      vertex   2.324457e+01  9.109403e+00  1.876579e+02
      vertex   2.648257e+01  9.599105e+00  1.530869e+02
    endloop
  endfacet
  facet normal  9.633694e-01  2.512424e-01  9.379037e-02
    outer loop
      vertex   2.648257e+01  9.599105e+00  1.530869e+02
      vertex   2.324457e+01  9.109403e+00  1.876579e+02
      vertex   2.561152e+01 -8.526513e-16  1.877476e+02
    endloop
  endfacet
  facet normal  9.663361e-01  2.406756e-01  9.093849e-02
    outer loop
      vertex   2.648257e+01  9.599105e+00  1.530869e+02
      vertex   2.561152e+01 -8.526513e-16  1.877476e+02
      vertex   2.887051e+01 -2.842171e-16  1.531168e+02
    endloop
  endfacet
  facet normal  9.663361e-01 -2.406756e-01  9.093849e-02
    outer loop
      vertex   2.887051e+01 -2.842171e-16  1.531168e+02
      vertex   2.561152e+01 -8.526513e-16  1.877476e+02
      vertex   2.648257e+01 -9.599105e+00  1.530869e+02
    endloop
  endfacet
  facet normal  9.633694e-01 -2.512424e-01  9.379037e-02
    outer loop
      vertex   2.561152e+01 -8.526513e-16  1.877476e+02
      vertex   2.324457e+01 -9.109403e+00  1.876579e+02
      vertex   2.648257e+01 -9.599105e+00  1.530869e+02
    endloop
  endfacet
  facet normal  7.708929e-01 -6.317739e-01  8.115283e-02
    outer loop
      vertex   2.648257e+01 -9.599105e+00  1.530869e+02
      vertex   2.324457e+01 -9.109403e+00  1.876579e+02
      vertex   2.014242e+01 -1.734282e+01  1.530289e+02
    endloop
  endfacet
  facet normal  7.652473e-01 -6.383347e-01  8.321846e-02
    outer loop
      vertex   2.324457e+01 -9.109403e+00  1.876579e+02
      vertex   1.730220e+01 -1.625588e+01  1.874840e+02
      vertex   2.014242e+01 -1.734282e+01  1.530289e+02
    endloop
  endfacet
  facet normal  4.811882e-01 -8.740348e-01  6.723831e-02
    outer loop
      vertex   2.014242e+01 -1.734282e+01  1.530289e+02
      vertex   1.730220e+01 -1.625588e+01  1.874840e+02
      vertex   1.101711e+01 -2.237009e+01  1.529841e+02
    endloop
  endfacet
  facet normal  4.662672e-01 -8.817639e-01  7.132638e-02
    outer loop
      vertex   1.730220e+01 -1.625588e+01  1.874840e+02
      vertex   9.316880e+00 -2.048932e+01  1.873495e+02
      vertex   1.101711e+01 -2.237009e+01  1.529841e+02
    endloop
  endfacet
  facet normal  1.587861e-01 -9.853779e-01  6.178445e-02
    outer loop
      vertex   1.101711e+01 -2.237009e+01  1.529841e+02
      vertex   9.316880e+00 -2.048932e+01  1.873495e+02
      vertex   3.360176e-14 -2.414647e+01  1.529673e+02
    endloop
  endfacet
  facet normal  1.427431e-01 -9.875326e-01  6.636096e-02
    outer loop
      vertex   9.316880e+00 -2.048932e+01  1.873495e+02
      vertex   4.049736e-14 -2.183941e+01  1.872991e+02
      vertex   3.360176e-14 -2.414647e+01  1.529673e+02
    endloop
  endfacet
  facet normal -1.427431e-01 -9.875326e-01  6.636096e-02
    outer loop
      vertex   3.360176e-14 -2.414647e+01  1.529673e+02
      vertex   4.049736e-14 -2.183941e+01  1.872991e+02
      vertex  -9.316880e+00 -2.048932e+01  1.873495e+02
    endloop
  endfacet
  facet normal -1.587861e-01 -9.853779e-01  6.178446e-02
    outer loop
      vertex   3.360176e-14 -2.414647e+01  1.529673e+02
      vertex  -9.316880e+00 -2.048932e+01  1.873495e+02
      vertex  -1.101711e+01 -2.237009e+01  1.529841e+02
    endloop
  endfacet
  facet normal -4.662671e-01 -8.817638e-01  7.132636e-02
    outer loop
      vertex  -1.101711e+01 -2.237009e+01  1.529841e+02
      vertex  -9.316880e+00 -2.048932e+01  1.873495e+02
      vertex  -1.730220e+01 -1.625588e+01  1.874840e+02
    endloop
  endfacet
  facet normal -4.811883e-01 -8.740348e-01  6.723832e-02
    outer loop
      vertex  -1.101711e+01 -2.237009e+01  1.529841e+02
      vertex  -1.730220e+01 -1.625588e+01  1.874840e+02
      vertex  -2.014242e+01 -1.734282e+01  1.530289e+02
    endloop
  endfacet
  facet normal -7.652474e-01 -6.383347e-01  8.321846e-02
    outer loop
      vertex  -2.014242e+01 -1.734282e+01  1.530289e+02
      vertex  -1.730220e+01 -1.625588e+01  1.874840e+02
      vertex  -2.324457e+01 -9.109403e+00  1.876579e+02
    endloop
  endfacet
  facet normal -7.708930e-01 -6.317739e-01  8.115284e-02
    outer loop
      vertex  -2.014242e+01 -1.734282e+01  1.530289e+02
      vertex  -2.324457e+01 -9.109403e+00  1.876579e+02
      vertex  -2.648257e+01 -9.599105e+00  1.530869e+02
    endloop
  endfacet
  facet normal -9.633694e-01 -2.512424e-01  9.379037e-02
    outer loop
      vertex  -2.648257e+01 -9.599105e+00  1.530869e+02
      vertex  -2.324457e+01 -9.109403e+00  1.876579e+02
      vertex  -2.561152e+01 -3.655386e-16  1.877476e+02
    endloop
  endfacet
  facet normal -9.663361e-01 -2.406756e-01  9.093849e-02
    outer loop
      vertex  -2.648257e+01 -9.599105e+00  1.530869e+02
      vertex  -2.561152e+01 -3.655386e-16  1.877476e+02
      vertex  -2.887051e+01 -1.218462e-16  1.531168e+02
    endloop
  endfacet
  facet normal -9.663361e-01  2.406756e-01  9.093849e-02
    outer loop
      vertex  -2.887051e+01 -1.218462e-16  1.531168e+02
      vertex  -2.561152e+01 -3.655386e-16  1.877476e+02
      vertex  -2.648257e+01  9.599105e+00  1.530869e+02
    endloop
  endfacet
  facet normal -9.633694e-01  2.512424e-01  9.379037e-02
    outer loop
      vertex  -2.561152e+01 -3.655386e-16  1.877476e+02
      vertex  -2.324457e+01  9.109403e+00  1.876579e+02
      vertex  -2.648257e+01  9.599105e+00  1.530869e+02
    endloop
  endfacet
  facet normal -7.708929e-01  6.317739e-01  8.115283e-02
    outer loop
      vertex  -2.648257e+01  9.599105e+00  1.530869e+02
      vertex  -2.324457e+01  9.109403e+00  1.876579e+02
      vertex  -2.014242e+01  1.734282e+01  1.530289e+02
    endloop
  endfacet
  facet normal -7.652473e-01  6.383347e-01  8.321846e-02
    outer loop
      vertex  -2.324457e+01  9.109403e+00  1.876579e+02
      vertex  -1.730220e+01  1.625588e+01  1.874840e+02
      vertex  -2.014242e+01  1.734282e+01  1.530289e+02
    endloop
  endfacet
  facet normal -4.811882e-01  8.740348e-01  6.723831e-02
    outer loop
      vertex  -2.014242e+01  1.734282e+01  1.530289e+02
      vertex  -1.730220e+01  1.625588e+01  1.874840e+02
      vertex  -1.101711e+01  2.237009e+01  1.529841e+02
    endloop
  endfacet
  facet normal -4.662672e-01  8.817639e-01  7.132638e-02
    outer loop
      vertex  -1.730220e+01  1.625588e+01  1.874840e+02
      vertex  -9.316880e+00  2.048932e+01  1.873495e+02
      vertex  -1.101711e+01  2.237009e+01  1.529841e+02
    endloop
  endfacet
  facet normal -1.587861e-01  9.853779e-01  6.178445e-02
    outer loop
      vertex  -1.101711e+01  2.237009e+01  1.529841e+02
      vertex  -9.316880e+00  2.048932e+01  1.873495e+02
      vertex   3.399398e-14  2.414647e+01  1.529673e+02
    endloop
  endfacet
  facet normal -1.427431e-01  9.875326e-01  6.636096e-02
    outer loop
      vertex  -9.316880e+00  2.048932e+01  1.873495e+02
      vertex   4.167402e-14  2.183941e+01  1.872991e+02
      vertex   3.399398e-14  2.414647e+01  1.529673e+02
    endloop
  endfacet
  facet normal  1.266630e-01  9.879478e-01  8.897007e-02
    outer loop
      vertex   4.167402e-14  2.183941e+01  1.872991e+02
      vertex   5.005125e-14  1.845912e+01  2.248348e+02
      vertex   6.971716e+00  1.755848e+01  2.249104e+02
    endloop
  endfacet
  facet normal  1.424267e-01  9.860765e-01  8.583508e-02
    outer loop
      vertex   4.167402e-14  2.183941e+01  1.872991e+02
      vertex   6.971716e+00  1.755848e+01  2.249104e+02
      vertex   9.316880e+00  2.048932e+01  1.873495e+02
    endloop
  endfacet
  facet normal  4.601255e-01  8.824745e-01  9.758706e-02
    outer loop
      vertex   9.316880e+00  2.048932e+01  1.873495e+02
      vertex   6.971716e+00  1.755848e+01  2.249104e+02
      vertex   1.322787e+01  1.427418e+01  2.251122e+02
    endloop
  endfacet
  facet normal  4.649317e-01  8.800508e-01  9.669042e-02
    outer loop
      vertex   9.316880e+00  2.048932e+01  1.873495e+02
      vertex   1.322787e+01  1.427418e+01  2.251122e+02
      vertex   1.730220e+01  1.625588e+01  1.874840e+02
    endloop
  endfacet
  facet normal  7.661186e-01  6.320993e-01  1.162441e-01
    outer loop
      vertex   1.730220e+01  1.625588e+01  1.874840e+02
      vertex   1.322787e+01  1.427418e+01  2.251122e+02
      vertex   1.828232e+01  8.100129e+00  2.253729e+02
    endloop
  endfacet
  facet normal  7.621958e-01  6.366267e-01  1.173201e-01
    outer loop
      vertex   1.730220e+01  1.625588e+01  1.874840e+02
      vertex   1.828232e+01  8.100129e+00  2.253729e+02
      vertex   2.324457e+01  9.109403e+00  1.876579e+02
    endloop
  endfacet
  facet normal  9.578595e-01  2.546722e-01  1.328427e-01
    outer loop
      vertex   2.324457e+01  9.109403e+00  1.876579e+02
      vertex   1.828232e+01  8.100129e+00  2.253729e+02
      vertex   2.041728e+01 -1.278977e-15  2.255075e+02
    endloop
  endfacet
  facet normal  9.590837e-01  2.505046e-01  1.319311e-01
    outer loop
      vertex   2.324457e+01  9.109403e+00  1.876579e+02
      vertex   2.041728e+01 -1.278977e-15  2.255075e+02
      vertex   2.561152e+01 -8.526513e-16  1.877476e+02
    endloop
  endfacet
  facet normal  9.590837e-01 -2.505046e-01  1.319311e-01
    outer loop
      vertex   2.561152e+01 -8.526513e-16  1.877476e+02
      vertex   2.041728e+01 -1.278977e-15  2.255075e+02
      vertex   2.324457e+01 -9.109403e+00  1.876579e+02
    endloop
  endfacet
  facet normal  9.578595e-01 -2.546722e-01  1.328427e-01
    outer loop
      vertex   2.041728e+01 -1.278977e-15  2.255075e+02
      vertex   1.828232e+01 -8.100129e+00  2.253729e+02
      vertex   2.324457e+01 -9.109403e+00  1.876579e+02
    endloop
  endfacet
  facet normal  7.621958e-01 -6.366267e-01  1.173201e-01
    outer loop
      vertex   2.324457e+01 -9.109403e+00  1.876579e+02
      vertex   1.828232e+01 -8.100129e+00  2.253729e+02
      vertex   1.730220e+01 -1.625588e+01  1.874840e+02
    endloop
  endfacet
  facet normal  7.661186e-01 -6.320993e-01  1.162441e-01
    outer loop
      vertex   1.828232e+01 -8.100129e+00  2.253729e+02
      vertex   1.322787e+01 -1.427418e+01  2.251122e+02
      vertex   1.730220e+01 -1.625588e+01  1.874840e+02
    endloop
  endfacet
  facet normal  4.649317e-01 -8.800508e-01  9.669041e-02
    outer loop
      vertex   1.730220e+01 -1.625588e+01  1.874840e+02
      vertex   1.322787e+01 -1.427418e+01  2.251122e+02
      vertex   9.316880e+00 -2.048932e+01  1.873495e+02
    endloop
  endfacet
  facet normal  4.601255e-01 -8.824745e-01  9.758706e-02
    outer loop
      vertex   1.322787e+01 -1.427418e+01  2.251122e+02
      vertex   6.971716e+00 -1.755848e+01  2.249104e+02
      vertex   9.316880e+00 -2.048932e+01  1.873495e+02
    endloop
  endfacet
  facet normal  1.424267e-01 -9.860765e-01  8.583508e-02
    outer loop
      vertex   9.316880e+00 -2.048932e+01  1.873495e+02
      vertex   6.971716e+00 -1.755848e+01  2.249104e+02
      vertex   4.049736e-14 -2.183941e+01  1.872991e+02
    endloop
  endfacet
  facet normal  1.266630e-01 -9.879478e-01  8.897007e-02
    outer loop
      vertex   6.971716e+00 -1.755848e+01  2.249104e+02
      vertex   4.828626e-14 -1.845912e+01  2.248348e+02
      vertex   4.049736e-14 -2.183941e+01  1.872991e+02
    endloop
  endfacet
  facet normal -1.266630e-01 -9.879478e-01  8.897007e-02
    outer loop
      vertex   4.049736e-14 -2.183941e+01  1.872991e+02
      vertex   4.828626e-14 -1.845912e+01  2.248348e+02
      vertex  -6.971716e+00 -1.755848e+01  2.249104e+02
    endloop
  endfacet
  facet normal -1.424267e-01 -9.860765e-01  8.583508e-02
    outer loop
      vertex   4.049736e-14 -2.183941e+01  1.872991e+02
      vertex  -6.971716e+00 -1.755848e+01  2.249104e+02
      vertex  -9.316880e+00 -2.048932e+01  1.873495e+02
    endloop
  endfacet
  facet normal -4.601255e-01 -8.824745e-01  9.758706e-02
    outer loop
      vertex  -9.316880e+00 -2.048932e+01  1.873495e+02
      vertex  -6.971716e+00 -1.755848e+01  2.249104e+02
      vertex  -1.322787e+01 -1.427418e+01  2.251122e+02
    endloop
  endfacet
  facet normal -4.649317e-01 -8.800508e-01  9.669042e-02
    outer loop
      vertex  -9.316880e+00 -2.048932e+01  1.873495e+02
      vertex  -1.322787e+01 -1.427418e+01  2.251122e+02
      vertex  -1.730220e+01 -1.625588e+01  1.874840e+02
    endloop
  endfacet
  facet normal -7.661186e-01 -6.320993e-01  1.162441e-01
    outer loop
      vertex  -1.730220e+01 -1.625588e+01  1.874840e+02
      vertex  -1.322787e+01 -1.427418e+01  2.251122e+02
      vertex  -1.828232e+01 -8.100129e+00  2.253729e+02
    endloop
  endfacet
  facet normal -7.621958e-01 -6.366267e-01  1.173201e-01
    outer loop
      vertex  -1.730220e+01 -1.625588e+01  1.874840e+02
      vertex  -1.828232e+01 -8.100129e+00  2.253729e+02
      vertex  -2.324457e+01 -9.109403e+00  1.876579e+02
    endloop
  endfacet
  facet normal -9.578595e-01 -2.546722e-01  1.328427e-01
    outer loop
      vertex  -2.324457e+01 -9.109403e+00  1.876579e+02
      vertex  -1.828232e+01 -8.100129e+00  2.253729e+02
      vertex  -2.041728e+01 -5.483078e-16  2.255075e+02
    endloop
  endfacet
  facet normal -9.590837e-01 -2.505046e-01  1.319311e-01
    outer loop
      vertex  -2.324457e+01 -9.109403e+00  1.876579e+02
      vertex  -2.041728e+01 -5.483078e-16  2.255075e+02
      vertex  -2.561152e+01 -3.655386e-16  1.877476e+02
    endloop
  endfacet
  facet normal -9.590837e-01  2.505046e-01  1.319311e-01
    outer loop
      vertex  -2.561152e+01 -3.655386e-16  1.877476e+02
      vertex  -2.041728e+01 -5.483078e-16  2.255075e+02
      vertex  -2.324457e+01  9.109403e+00  1.876579e+02
    endloop
  endfacet
  facet normal -9.578595e-01  2.546722e-01  1.328427e-01
    outer loop
      vertex  -2.041728e+01 -5.483078e-16  2.255075e+02
      vertex  -1.828232e+01  8.100129e+00  2.253729e+02
      vertex  -2.324457e+01  9.109403e+00  1.876579e+02
    endloop
  endfacet
  facet normal -7.621958e-01  6.366267e-01  1.173201e-01
    outer loop
      vertex  -2.324457e+01  9.109403e+00  1.876579e+02
      vertex  -1.828232e+01  8.100129e+00  2.253729e+02
      vertex  -1.730220e+01  1.625588e+01  1.874840e+02
    endloop
  endfacet
  facet normal -7.661186e-01  6.320993e-01  1.162441e-01
    outer loop
      vertex  -1.828232e+01  8.100129e+00  2.253729e+02
      vertex  -1.322787e+01  1.427418e+01  2.251122e+02
      vertex  -1.730220e+01  1.625588e+01  1.874840e+02
    endloop
  endfacet
  facet normal -4.649317e-01  8.800508e-01  9.669041e-02
    outer loop
      vertex  -1.730220e+01  1.625588e+01  1.874840e+02
      vertex  -1.322787e+01  1.427418e+01  2.251122e+02
      vertex  -9.316880e+00  2.048932e+01  1.873495e+02
    endloop
  endfacet
  facet normal -4.601255e-01  8.824745e-01  9.758706e-02
    outer loop
      vertex  -1.322787e+01  1.427418e+01  2.251122e+02
      vertex  -6.971716e+00  1.755848e+01  2.249104e+02
      vertex  -9.316880e+00  2.048932e+01  1.873495e+02
    endloop
  endfacet
  facet normal -1.424267e-01  9.860765e-01  8.583508e-02
    outer loop
      vertex  -9.316880e+00  2.048932e+01  1.873495e+02
      vertex  -6.971716e+00  1.755848e+01  2.249104e+02
      vertex   4.167402e-14  2.183941e+01  1.872991e+02
    endloop
  endfacet
  facet normal -1.266630e-01  9.879478e-01  8.897007e-02
    outer loop
      vertex  -6.971716e+00  1.755848e+01  2.249104e+02
      vertex   5.005125e-14  1.845912e+01  2.248348e+02
      vertex   4.167402e-14  2.183941e+01  1.872991e+02
    endloop
  endfacet
  facet normal  1.425196e-01  9.842588e-01  1.045126e-01
    outer loop
      vertex   5.005125e-14  1.845912e+01  2.248348e+02
      vertex   5.855470e-14  1.438589e+01  2.631949e+02
      vertex   4.381331e+00  1.374434e+01  2.632621e+02
    endloop
  endfacet
  facet normal  1.262526e-01  9.862526e-01  1.066119e-01
    outer loop
      vertex   5.005125e-14  1.845912e+01  2.248348e+02
      vertex   4.381331e+00  1.374434e+01  2.632621e+02
      vertex   6.971716e+00  1.755848e+01  2.249104e+02
    endloop
  endfacet
  facet normal  5.129907e-01  8.500789e-01  1.191906e-01
    outer loop
      vertex   6.971716e+00  1.755848e+01  2.249104e+02
      vertex   4.381331e+00  1.374434e+01  2.632621e+02
      vertex   8.458922e+00  1.125852e+01  2.634415e+02
    endloop
  endfacet
  facet normal  4.579023e-01  8.799981e-01  1.262088e-01
    outer loop
      vertex   6.971716e+00  1.755848e+01  2.249104e+02
      vertex   8.458922e+00  1.125852e+01  2.634415e+02
      vertex   1.322787e+01  1.427418e+01  2.251122e+02
    endloop
  endfacet
  facet normal  7.993122e-01  5.830784e-01  1.453261e-01
    outer loop
      vertex   1.322787e+01  1.427418e+01  2.251122e+02
      vertex   8.458922e+00  1.125852e+01  2.634415e+02
      vertex   1.195125e+01  6.413290e+00  2.636733e+02
    endloop
  endfacet
  facet normal  7.614046e-01  6.298177e-01  1.535992e-01
    outer loop
      vertex   1.322787e+01  1.427418e+01  2.251122e+02
      vertex   1.195125e+01  6.413290e+00  2.636733e+02
      vertex   1.828232e+01  8.100129e+00  2.253729e+02
    endloop
  endfacet
  facet normal  9.580414e-01  2.318174e-01  1.685744e-01
    outer loop
      vertex   1.828232e+01  8.100129e+00  2.253729e+02
      vertex   1.195125e+01  6.413290e+00  2.636733e+02
      vertex   1.348203e+01 -1.136868e-15  2.637929e+02
    endloop
  endfacet
  facet normal  9.517855e-01  2.537288e-01  1.724124e-01
    outer loop
      vertex   1.828232e+01  8.100129e+00  2.253729e+02
      vertex   1.348203e+01 -1.136868e-15  2.637929e+02
      vertex   2.041728e+01 -1.278977e-15  2.255075e+02
    endloop
  endfacet
  facet normal  9.517855e-01 -2.537288e-01  1.724124e-01
    outer loop
      vertex   2.041728e+01 -1.278977e-15  2.255075e+02
      vertex   1.348203e+01 -1.136868e-15  2.637929e+02
      vertex   1.828232e+01 -8.100129e+00  2.253729e+02
    endloop
  endfacet
  facet normal  9.580414e-01 -2.318174e-01  1.685745e-01
    outer loop
      vertex   1.348203e+01 -1.136868e-15  2.637929e+02
      vertex   1.195125e+01 -6.413290e+00  2.636733e+02
      vertex   1.828232e+01 -8.100129e+00  2.253729e+02
    endloop
  endfacet
  facet normal  7.614046e-01 -6.298177e-01  1.535992e-01
    outer loop
      vertex   1.828232e+01 -8.100129e+00  2.253729e+02
      vertex   1.195125e+01 -6.413290e+00  2.636733e+02
      vertex   1.322787e+01 -1.427418e+01  2.251122e+02
    endloop
  endfacet
  facet normal  7.993122e-01 -5.830784e-01  1.453261e-01
    outer loop
      vertex   1.195125e+01 -6.413290e+00  2.636733e+02
      vertex   8.458922e+00 -1.125852e+01  2.634415e+02
      vertex   1.322787e+01 -1.427418e+01  2.251122e+02
    endloop
  endfacet
  facet normal  4.579023e-01 -8.799981e-01  1.262088e-01
    outer loop
      vertex   1.322787e+01 -1.427418e+01  2.251122e+02
      vertex   8.458922e+00 -1.125852e+01  2.634415e+02
      vertex   6.971716e+00 -1.755848e+01  2.249104e+02
    endloop
  endfacet
  facet normal  5.129907e-01 -8.500789e-01  1.191906e-01
    outer loop
      vertex   8.458922e+00 -1.125852e+01  2.634415e+02
      vertex   4.381331e+00 -1.374434e+01  2.632621e+02
      vertex   6.971716e+00 -1.755848e+01  2.249104e+02
    endloop
  endfacet
  facet normal  1.262526e-01 -9.862526e-01  1.066119e-01
    outer loop
      vertex   6.971716e+00 -1.755848e+01  2.249104e+02
      vertex   4.381331e+00 -1.374434e+01  2.632621e+02
      vertex   4.828626e-14 -1.845912e+01  2.248348e+02
    endloop
  endfacet
  facet normal  1.425196e-01 -9.842588e-01  1.045126e-01
    outer loop
      vertex   4.381331e+00 -1.374434e+01  2.632621e+02
      vertex   5.698582e-14 -1.438589e+01  2.631949e+02
      vertex   4.828626e-14 -1.845912e+01  2.248348e+02
    endloop
  endfacet
  facet normal -1.425196e-01 -9.842588e-01  1.045126e-01
    outer loop
      vertex   4.828626e-14 -1.845912e+01  2.248348e+02
      vertex   5.698582e-14 -1.438589e+01  2.631949e+02
      vertex  -4.381331e+00 -1.374434e+01  2.632621e+02
    endloop
  endfacet
  facet normal -1.262526e-01 -9.862526e-01  1.066119e-01
    outer loop
      vertex   4.828626e-14 -1.845912e+01  2.248348e+02
      vertex  -4.381331e+00 -1.374434e+01  2.632621e+02
      vertex  -6.971716e+00 -1.755848e+01  2.249104e+02
    endloop
  endfacet
  facet normal -5.129907e-01 -8.500789e-01  1.191906e-01
    outer loop
      vertex  -6.971716e+00 -1.755848e+01  2.249104e+02
      vertex  -4.381331e+00 -1.374434e+01  2.632621e+02
      vertex  -8.458922e+00 -1.125852e+01  2.634415e+02
    endloop
  endfacet
  facet normal -4.579023e-01 -8.799981e-01  1.262088e-01
    outer loop
      vertex  -6.971716e+00 -1.755848e+01  2.249104e+02
      vertex  -8.458922e+00 -1.125852e+01  2.634415e+02
      vertex  -1.322787e+01 -1.427418e+01  2.251122e+02
    endloop
  endfacet
  facet normal -7.993122e-01 -5.830784e-01  1.453261e-01
    outer loop
      vertex  -1.322787e+01 -1.427418e+01  2.251122e+02
      vertex  -8.458922e+00 -1.125852e+01  2.634415e+02
      vertex  -1.195125e+01 -6.413290e+00  2.636733e+02
    endloop
  endfacet
  facet normal -7.614046e-01 -6.298177e-01  1.535992e-01
    outer loop
      vertex  -1.322787e+01 -1.427418e+01  2.251122e+02
      vertex  -1.195125e+01 -6.413290e+00  2.636733e+02
      vertex  -1.828232e+01 -8.100129e+00  2.253729e+02
    endloop
  endfacet
  facet normal -9.580414e-01 -2.318174e-01  1.685744e-01
    outer loop
      vertex  -1.828232e+01 -8.100129e+00  2.253729e+02
      vertex  -1.195125e+01 -6.413290e+00  2.636733e+02
      vertex  -1.348203e+01 -4.873847e-16  2.637929e+02
    endloop
  endfacet
  facet normal -9.517855e-01 -2.537288e-01  1.724124e-01
    outer loop
      vertex  -1.828232e+01 -8.100129e+00  2.253729e+02
      vertex  -1.348203e+01 -4.873847e-16  2.637929e+02
      vertex  -2.041728e+01 -5.483078e-16  2.255075e+02
    endloop
  endfacet
  facet normal -9.517855e-01  2.537288e-01  1.724124e-01
    outer loop
      vertex  -2.041728e+01 -5.483078e-16  2.255075e+02
      vertex  -1.348203e+01 -4.873847e-16  2.637929e+02
      vertex  -1.828232e+01  8.100129e+00  2.253729e+02
    endloop
  endfacet
  facet normal -9.580414e-01  2.318174e-01  1.685745e-01
    outer loop
      vertex  -1.348203e+01 -4.873847e-16  2.637929e+02
      vertex  -1.195125e+01  6.413290e+00  2.636733e+02
      vertex  -1.828232e+01  8.100129e+00  2.253729e+02
    endloop
  endfacet
  facet normal -7.614046e-01  6.298177e-01  1.535992e-01
    outer loop
      vertex  -1.828232e+01  8.100129e+00  2.253729e+02
      vertex  -1.195125e+01  6.413290e+00  2.636733e+02
      vertex  -1.322787e+01  1.427418e+01  2.251122e+02
    endloop
  endfacet
  facet normal -7.993122e-01  5.830784e-01  1.453261e-01
    outer loop
      vertex  -1.195125e+01  6.413290e+00  2.636733e+02
      vertex  -8.458922e+00  1.125852e+01  2.634415e+02
      vertex  -1.322787e+01  1.427418e+01  2.251122e+02
    endloop
  endfacet
  facet normal -4.579023e-01  8.799981e-01  1.262088e-01
    outer loop
      vertex  -1.322787e+01  1.427418e+01  2.251122e+02
      vertex  -8.458922e+00  1.125852e+01  2.634415e+02
      vertex  -6.971716e+00  1.755848e+01  2.249104e+02
    endloop
  endfacet
  facet normal -5.129907e-01  8.500789e-01  1.191906e-01
    outer loop
      vertex  -8.458922e+00  1.125852e+01  2.634415e+02
      vertex  -4.381331e+00  1.374434e+01  2.632621e+02
      vertex  -6.971716e+00  1.755848e+01  2.249104e+02
    endloop
  endfacet
  facet normal -1.262526e-01  9.862526e-01  1.066119e-01
    outer loop
      vertex  -6.971716e+00  1.755848e+01  2.249104e+02
      vertex  -4.381331e+00  1.374434e+01  2.632621e+02
      vertex   5.005125e-14  1.845912e+01  2.248348e+02
    endloop
  endfacet
  facet normal -1.425196e-01  9.842588e-01  1.045126e-01
    outer loop
      vertex  -4.381331e+00  1.374434e+01  2.632621e+02
      vertex   5.855470e-14  1.438589e+01  2.631949e+02
      vertex   5.005125e-14  1.845912e+01  2.248348e+02
    endloop
  endfacet
  facet normal  3.724870e-01  9.215175e-01  1.098129e-01
    outer loop
      vertex   5.855470e-14  1.438589e+01  2.631949e+02
      vertex   6.661338e-14  1.000000e+01  3.000000e+02
      vertex   1.945446e+00  9.213631e+00  3.000000e+02
    endloop
  endfacet
  facet normal  1.416866e-01  9.812837e-01  1.304115e-01
    outer loop
      vertex   5.855470e-14  1.438589e+01  2.631949e+02
      vertex   1.945446e+00  9.213631e+00  3.000000e+02
      vertex   4.381331e+00  1.374434e+01  2.632621e+02
    endloop
  endfacet
  facet normal  7.969548e-01  5.908142e-01  1.257040e-01
    outer loop
      vertex   4.381331e+00  1.374434e+01  2.632621e+02
      vertex   1.945446e+00  9.213631e+00  3.000000e+02
      vertex   3.534841e+00  7.069681e+00  3.000000e+02
    endloop
  endfacet
  facet normal  5.080587e-01  8.453147e-01  1.652859e-01
    outer loop
      vertex   4.381331e+00  1.374434e+01  2.632621e+02
      vertex   3.534841e+00  7.069681e+00  3.000000e+02
      vertex   8.458922e+00  1.125852e+01  2.634415e+02
    endloop
  endfacet
  facet normal  9.350429e-01  3.153220e-01  1.620706e-01
    outer loop
      vertex   8.458922e+00  1.125852e+01  2.634415e+02
      vertex   3.534841e+00  7.069681e+00  3.000000e+02
      vertex   4.606815e+00  3.890892e+00  3.000000e+02
    endloop
  endfacet
  facet normal  7.902827e-01  5.791854e-01  1.999938e-01
    outer loop
      vertex   8.458922e+00  1.125852e+01  2.634415e+02
      vertex   4.606815e+00  3.890892e+00  3.000000e+02
      vertex   1.195125e+01  6.413290e+00  2.636733e+02
    endloop
  endfacet
  facet normal  9.740586e-01  9.843115e-02  2.037672e-01
    outer loop
      vertex   1.195125e+01  6.413290e+00  2.636733e+02
      vertex   4.606815e+00  3.890892e+00  3.000000e+02
      vertex   5.000000e+00  0.000000e+00  3.000000e+02
    endloop
  endfacet
  facet normal  9.474708e-01  2.302901e-01  2.219586e-01
    outer loop
      vertex   1.195125e+01  6.413290e+00  2.636733e+02
      vertex   5.000000e+00  0.000000e+00  3.000000e+02
      vertex   1.348203e+01 -1.136868e-15  2.637929e+02
    endloop
  endfacet
  facet normal  9.474708e-01 -2.302901e-01  2.219586e-01
    outer loop
      vertex   1.348203e+01 -1.136868e-15  2.637929e+02
      vertex   5.000000e+00  0.000000e+00  3.000000e+02
      vertex   1.195125e+01 -6.413290e+00  2.636733e+02
    endloop
  endfacet
  facet normal  9.740586e-01 -9.843114e-02  2.037672e-01
    outer loop
      vertex   5.000000e+00  0.000000e+00  3.000000e+02
      vertex   4.606815e+00 -3.890892e+00  3.000000e+02
      vertex   1.195125e+01 -6.413290e+00  2.636733e+02
    endloop
  endfacet
  facet normal  7.902827e-01 -5.791854e-01  1.999938e-01
    outer loop
      vertex   1.195125e+01 -6.413290e+00  2.636733e+02
      vertex   4.606815e+00 -3.890892e+00  3.000000e+02
      vertex   8.458922e+00 -1.125852e+01  2.634415e+02
    endloop
  endfacet
  facet normal  9.350429e-01 -3.153220e-01  1.620706e-01
    outer loop
      vertex   4.606815e+00 -3.890892e+00  3.000000e+02
      vertex   3.534841e+00 -7.069681e+00  3.000000e+02
      vertex   8.458922e+00 -1.125852e+01  2.634415e+02
    endloop
  endfacet
  facet normal  5.080587e-01 -8.453147e-01  1.652859e-01
    outer loop
      vertex   8.458922e+00 -1.125852e+01  2.634415e+02
      vertex   3.534841e+00 -7.069681e+00  3.000000e+02
      vertex   4.381331e+00 -1.374434e+01  2.632621e+02
    endloop
  endfacet
  facet normal  7.969549e-01 -5.908142e-01  1.257040e-01
    outer loop
      vertex   3.534841e+00 -7.069681e+00  3.000000e+02
      vertex   1.945446e+00 -9.213631e+00  3.000000e+02
      vertex   4.381331e+00 -1.374434e+01  2.632621e+02
    endloop
  endfacet
  facet normal  1.416866e-01 -9.812837e-01  1.304115e-01
    outer loop
      vertex   4.381331e+00 -1.374434e+01  2.632621e+02
      vertex   1.945446e+00 -9.213631e+00  3.000000e+02
      vertex   5.698582e-14 -1.438589e+01  2.631949e+02
    endloop
  endfacet
  facet normal  3.724869e-01 -9.215175e-01  1.098129e-01
    outer loop
      vertex   1.945446e+00 -9.213631e+00  3.000000e+02
      vertex   6.661338e-14 -1.000000e+01  3.000000e+02
      vertex   5.698582e-14 -1.438589e+01  2.631949e+02
    endloop
  endfacet
  facet normal -3.724870e-01 -9.215175e-01  1.098129e-01
    outer loop
      vertex   5.698582e-14 -1.438589e+01  2.631949e+02
      vertex   6.661338e-14 -1.000000e+01  3.000000e+02
      vertex  -1.945446e+00 -9.213631e+00  3.000000e+02
    endloop
  endfacet
  facet normal -1.416866e-01 -9.812837e-01  1.304115e-01
    outer loop
      vertex   5.698582e-14 -1.438589e+01  2.631949e+02
      vertex  -1.945446e+00 -9.213631e+00  3.000000e+02
      vertex  -4.381331e+00 -1.374434e+01  2.632621e+02
    endloop
  endfacet
  facet normal -7.969548e-01 -5.908142e-01  1.257040e-01
    outer loop
      vertex  -4.381331e+00 -1.374434e+01  2.632621e+02
      vertex  -1.945446e+00 -9.213631e+00  3.000000e+02
      vertex  -3.534841e+00 -7.069681e+00  3.000000e+02
    endloop
  endfacet
  facet normal -5.080587e-01 -8.453147e-01  1.652859e-01
    outer loop
      vertex  -4.381331e+00 -1.374434e+01  2.632621e+02
      vertex  -3.534841e+00 -7.069681e+00  3.000000e+02
      vertex  -8.458922e+00 -1.125852e+01  2.634415e+02
    endloop
  endfacet
  facet normal -9.350429e-01 -3.153220e-01  1.620706e-01
    outer loop
      vertex  -8.458922e+00 -1.125852e+01  2.634415e+02
      vertex  -3.534841e+00 -7.069681e+00  3.000000e+02
      vertex  -4.606815e+00 -3.890892e+00  3.000000e+02
    endloop
  endfacet
  facet normal -7.902827e-01 -5.791854e-01  1.999938e-01
    outer loop
      vertex  -8.458922e+00 -1.125852e+01  2.634415e+02
      vertex  -4.606815e+00 -3.890892e+00  3.000000e+02
      vertex  -1.195125e+01 -6.413290e+00  2.636733e+02
    endloop
  endfacet
  facet normal -9.740586e-01 -9.843115e-02  2.037672e-01
    outer loop
      vertex  -1.195125e+01 -6.413290e+00  2.636733e+02
      vertex  -4.606815e+00 -3.890892e+00  3.000000e+02
      vertex  -5.000000e+00  0.000000e+00  3.000000e+02
    endloop
  endfacet
  facet normal -9.474708e-01 -2.302901e-01  2.219586e-01
    outer loop
      vertex  -1.195125e+01 -6.413290e+00  2.636733e+02
      vertex  -5.000000e+00  0.000000e+00  3.000000e+02
      vertex  -1.348203e+01 -4.873847e-16  2.637929e+02
    endloop
  endfacet
  facet normal -9.474708e-01  2.302901e-01  2.219586e-01
    outer loop
      vertex  -1.348203e+01 -4.873847e-16  2.637929e+02
      vertex  -5.000000e+00  0.000000e+00  3.000000e+02
      vertex  -1.195125e+01  6.413290e+00  2.636733e+02
    endloop
  endfacet
  facet normal -9.740586e-01  9.843114e-02  2.037672e-01
    outer loop
      vertex  -5.000000e+00  0.000000e+00  3.000000e+02
      vertex  -4.606815e+00  3.890892e+00  3.000000e+02
      vertex  -1.195125e+01  6.413290e+00  2.636733e+02
    endloop
  endfacet
  facet normal -7.902827e-01  5.791854e-01  1.999938e-01
    outer loop
      vertex  -1.195125e+01  6.413290e+00  2.636733e+02
      vertex  -4.606815e+00  3.890892e+00  3.000000e+02
      vertex  -8.458922e+00  1.125852e+01  2.634415e+02
    endloop
  endfacet
  facet normal -9.350429e-01  3.153220e-01  1.620706e-01
    outer loop
      vertex  -4.606815e+00  3.890892e+00  3.000000e+02
      vertex  -3.534841e+00  7.069681e+00  3.000000e+02
      vertex  -8.458922e+00  1.125852e+01  2.634415e+02
    endloop
  endfacet
  facet normal -5.080587e-01  8.453147e-01  1.652859e-01
    outer loop
      vertex  -8.458922e+00  1.125852e+01  2.634415e+02
      vertex  -3.534841e+00  7.069681e+00  3.000000e+02
      vertex  -4.381331e+00  1.374434e+01  2.632621e+02
    endloop
  endfacet
  facet normal -7.969549e-01  5.908142e-01  1.257040e-01
    outer loop
      vertex  -3.534841e+00  7.069681e+00  3.000000e+02
      vertex  -1.945446e+00  9.213631e+00  3.000000e+02
      vertex  -4.381331e+00  1.374434e+01  2.632621e+02
    endloop
  endfacet
  facet normal -1.416866e-01  9.812837e-01  1.304115e-01
    outer loop
      vertex  -4.381331e+00  1.374434e+01  2.632621e+02
      vertex  -1.945446e+00  9.213631e+00  3.000000e+02
      vertex   5.855470e-14  1.438589e+01  2.631949e+02
    endloop
  endfacet
  facet normal -3.724869e-01  9.215175e-01  1.098129e-01
    outer loop
      vertex  -1.945446e+00  9.213631e+00  3.000000e+02
      vertex   6.661338e-14  1.000000e+01  3.000000e+02
      vertex   5.855470e-14  1.438589e+01  2.631949e+02
    endloop
  endfacet
endsolid vcg
